<?xml version="1.0" encoding="iso-8859-1"?>
<!-- Generator: Adobe Illustrator 17.1.0, SVG Export Plug-In . SVG Version: 6.00 Build 0)  -->
<!DOCTYPE svg PUBLIC "-//W3C//DTD SVG 1.1//EN" "http://www.w3.org/Graphics/SVG/1.1/DTD/svg11.dtd">
<svg version="1.1" id="Capa_1" xmlns="http://www.w3.org/2000/svg" xmlns:xlink="http://www.w3.org/1999/xlink" x="0px" y="0px"
	 viewBox="0 0 512 512" style="enable-background:new 0 0 512 512;" xml:space="preserve">
<g>
	<path d="M376,0H136c-22.056,0-40,17.944-40,40v432c0,22.056,17.944,40,40,40h240c22.056,0,40-17.944,40-40V40
		C416,17.944,398.056,0,376,0z M400,472c0,13.234-10.766,24-24,24H136c-13.234,0-24-10.766-24-24V40c0-13.233,10.766-24,24-24h240
		c13.234,0,24,10.767,24,24V472z"/>
	<path d="M304,456H152V128c0-4.418-3.582-8-8-8s-8,3.582-8,8v336c0,4.418,3.582,8,8,8h160c4.418,0,8-3.582,8-8S308.418,456,304,456z
		"/>
	<path d="M208,56h152v328c0,4.418,3.582,8,8,8s8-3.582,8-8V48c0-4.418-3.582-8-8-8H208c-4.418,0-8,3.582-8,8S203.582,56,208,56z"/>
	<path d="M288,312c22.056,0,40-17.944,40-40c0-20.523-15.54-37.478-35.469-39.736C294.753,227.291,296,221.79,296,216
		c0-22.056-17.944-40-40-40s-40,17.944-40,40c0,5.79,1.247,11.291,3.469,16.264C199.54,234.522,184,251.477,184,272
		c0,22.056,17.944,40,40,40c8.998,0,17.31-2.988,24-8.022V312c0,4.411-3.589,8-8,8h-8c-4.418,0-8,3.582-8,8s3.582,8,8,8h48
		c4.418,0,8-3.582,8-8s-3.582-8-8-8h-8c-4.411,0-8-3.589-8-8v-8.022C270.69,309.012,279.002,312,288,312z M312,272
		c0,13.233-10.767,24-24,24s-24-10.767-24-24s10.767-24,24-24S312,258.767,312,272z M256,192c13.233,0,24,10.767,24,24
		s-10.767,24-24,24s-24-10.767-24-24S242.767,192,256,192z M224,296c-13.233,0-24-10.767-24-24s10.767-24,24-24s24,10.767,24,24
		S237.233,296,224,296z"/>
	<path d="M164,87.949c3.651,4.875,9.454,8.051,16,8.051c11.028,0,20-8.972,20-20c0-9.827-7.13-18.003-16.485-19.671
		C183.824,54.933,184,53.488,184,52c0-11.028-8.972-20-20-20s-20,8.972-20,20c0,1.488,0.176,2.933,0.485,4.329
		C135.13,57.997,128,66.173,128,76c0,11.028,8.972,20,20,20C154.546,96,160.349,92.825,164,87.949z M180,80c-2.206,0-4-1.794-4-4
		s1.794-4,4-4s4,1.794,4,4S182.206,80,180,80z M164,48c2.206,0,4,1.794,4,4s-1.794,4-4,4s-4-1.794-4-4S161.794,48,164,48z M144,76
		c0-2.206,1.794-4,4-4s4,1.794,4,4s-1.794,4-4,4S144,78.206,144,76z"/>
	<path d="M160,96c-4.418,0-8,3.582-8,8s3.582,8,8,8h8c4.418,0,8-3.582,8-8s-3.582-8-8-8H160z"/>
	<path d="M364,416c-6.546,0-12.349,3.175-16,8.051c-3.651-4.875-9.454-8.051-16-8.051c-11.028,0-20,8.972-20,20
		c0,9.827,7.13,18.003,16.485,19.671c-0.31,1.396-0.485,2.841-0.485,4.329c0,11.028,8.972,20,20,20s20-8.972,20-20
		c0-1.488-0.176-2.933-0.485-4.329C376.87,454.003,384,445.827,384,436C384,424.972,375.028,416,364,416z M332,432
		c2.206,0,4,1.794,4,4s-1.794,4-4,4s-4-1.794-4-4S329.794,432,332,432z M348,464c-2.206,0-4-1.794-4-4s1.794-4,4-4s4,1.794,4,4
		S350.206,464,348,464z M364,440c-2.206,0-4-1.794-4-4s1.794-4,4-4s4,1.794,4,4S366.206,440,364,440z"/>
	<path d="M344,400c-4.418,0-8,3.582-8,8s3.582,8,8,8h8c4.418,0,8-3.582,8-8s-3.582-8-8-8H344z"/>
</g>
<g>
</g>
<g>
</g>
<g>
</g>
<g>
</g>
<g>
</g>
<g>
</g>
<g>
</g>
<g>
</g>
<g>
</g>
<g>
</g>
<g>
</g>
<g>
</g>
<g>
</g>
<g>
</g>
<g>
</g>
</svg>
