<?xml version="1.0" encoding="iso-8859-1"?>
<!-- Generator: Adobe Illustrator 17.1.0, SVG Export Plug-In . SVG Version: 6.00 Build 0)  -->
<!DOCTYPE svg PUBLIC "-//W3C//DTD SVG 1.1//EN" "http://www.w3.org/Graphics/SVG/1.1/DTD/svg11.dtd">
<svg version="1.1" id="Capa_1" xmlns="http://www.w3.org/2000/svg" xmlns:xlink="http://www.w3.org/1999/xlink" x="0px" y="0px"
	 viewBox="0 0 512.095 512.095" style="enable-background:new 0 0 512.095 512.095;" xml:space="preserve">
<g>
	<path d="M505.208,160.339c-12.166-45.309-39.793-79.684-77.793-96.792c-43.559-19.611-85.204-11.331-121.946-4.024
		c-12.324,2.451-24.165,4.801-35.411,5.988c4.244-12.25,11.266-22.296,22.654-30.995c3.511-2.682,4.183-7.703,1.501-11.214
		c-2.683-3.512-7.703-4.184-11.214-1.501c-13.578,10.372-23.903,22.74-29.696,44.477c-14.507-0.359-30.161-3.471-46.677-6.755
		c-36.743-7.307-78.388-15.588-121.946,4.024c-38,17.109-65.627,51.484-77.793,96.792C-11.4,228.444,7.24,310.235,56.749,379.13
		c33.323,46.371,70.486,78.704,110.457,96.101c33.823,14.721,63.89,16.706,88.841,16.706s55.019-1.985,88.841-16.706
		c39.971-17.397,77.134-49.73,110.457-96.101C504.854,310.235,523.495,228.444,505.208,160.339z M442.353,369.793
		c-31.618,43.998-66.557,74.537-103.849,90.767c-31.131,13.55-59.152,15.376-82.456,15.376s-51.325-1.827-82.456-15.376
		c-37.292-16.23-72.231-46.769-103.849-90.767C23.005,304.755,5.285,228.006,22.339,164.488
		c10.897-40.584,35.37-71.251,68.909-86.352c17.751-7.992,35.167-10.791,52.289-10.791c20.391,0,40.362,3.971,59.969,7.87
		c16.22,3.225,31.645,6.289,46.638,6.959c-1.049,7.396-1.716,15.666-1.971,24.976c-6.642-1.27-13.77-3.859-21.067-6.659
		c-4.125-1.58-8.752,0.478-10.335,4.604c-1.583,4.125,0.479,8.752,4.604,10.335c11.736,4.502,23.219,8.544,34.674,8.544
		s22.938-4.042,34.674-8.544c4.125-1.583,6.186-6.21,4.604-10.335c-1.583-4.125-6.209-6.185-10.335-4.604
		c-7.216,2.769-14.267,5.333-20.846,6.618c0.206-9.216,0.781-17.566,1.964-25.18c13.686-0.993,27.756-3.786,42.481-6.714
		c36.07-7.172,73.366-14.589,112.257,2.921c33.539,15.1,58.011,45.768,68.909,86.352
		C506.81,228.006,489.089,304.755,442.353,369.793z"/>
	<path d="M145.128,405.912c-17.062-14.096-33.66-32.324-49.334-54.178c-4.114-5.737-8.041-11.665-11.671-17.621
		c-2.301-3.772-7.222-4.967-10.995-2.667c-3.772,2.3-4.967,7.223-2.667,10.995c3.837,6.294,7.986,12.558,12.331,18.617
		c16.478,22.974,34.022,42.215,52.146,57.188c1.491,1.232,3.296,1.833,5.091,1.833c2.304,0,4.59-0.99,6.172-2.905
		C149.015,413.769,148.535,408.726,145.128,405.912z"/>
	<path d="M464.422,163.104c-4.267,1.146-6.797,5.535-5.651,9.801c8.951,33.323,6.653,71.402-6.645,110.121
		c-1.435,4.179,0.789,8.729,4.968,10.165c0.861,0.295,1.737,0.436,2.599,0.436c3.322,0,6.426-2.085,7.566-5.403
		c14.337-41.745,16.746-83.057,6.964-119.469C473.078,164.488,468.691,161.96,464.422,163.104z"/>
	<path d="M457.955,147.04c3.827-2.208,5.14-7.1,2.932-10.927c-4.137-7.172-8.935-13.775-14.258-19.625
		c-2.973-3.267-8.033-3.506-11.301-0.533c-3.268,2.974-3.506,8.034-0.533,11.301c4.552,5.002,8.668,10.672,12.232,16.851
		c1.481,2.568,4.171,4.004,6.937,4.004C455.321,148.111,456.695,147.766,457.955,147.04z"/>
</g>
<g>
</g>
<g>
</g>
<g>
</g>
<g>
</g>
<g>
</g>
<g>
</g>
<g>
</g>
<g>
</g>
<g>
</g>
<g>
</g>
<g>
</g>
<g>
</g>
<g>
</g>
<g>
</g>
<g>
</g>
</svg>
