<?xml version="1.0" encoding="iso-8859-1"?>
<!-- Generator: Adobe Illustrator 17.1.0, SVG Export Plug-In . SVG Version: 6.00 Build 0)  -->
<!DOCTYPE svg PUBLIC "-//W3C//DTD SVG 1.1//EN" "http://www.w3.org/Graphics/SVG/1.1/DTD/svg11.dtd">
<svg version="1.1" id="Capa_1" xmlns="http://www.w3.org/2000/svg" xmlns:xlink="http://www.w3.org/1999/xlink" x="0px" y="0px"
	 viewBox="0 0 512 512" style="enable-background:new 0 0 512 512;" xml:space="preserve">
<g>
	<path d="M512,144V48c0-22.056-17.944-40-40-40H40C17.944,8,0,25.944,0,48v96c0,13.071,6.303,24.696,16.028,32
		C6.303,183.304,0,194.929,0,208v96c0,13.071,6.303,24.696,16.028,32C6.303,343.304,0,354.929,0,368v96c0,22.056,17.944,40,40,40
		h432c22.056,0,40-17.944,40-40v-96c0-13.071-6.303-24.696-16.028-32c9.725-7.304,16.028-18.929,16.028-32v-96
		c0-13.071-6.303-24.696-16.028-32C505.697,168.696,512,157.071,512,144z M496,144c0,13.234-10.766,24-24,24h-23.997
		c-4.418,0-8,3.582-8,8s3.582,8,8,8H472c13.234,0,24,10.767,24,24v96c0,13.233-10.766,24-24,24h-23.997c-4.418,0-8,3.582-8,8
		s3.582,8,8,8H472c13.234,0,24,10.766,24,24v96c0,13.234-10.766,24-24,24H40c-13.234,0-24-10.766-24-24v-96
		c0-13.234,10.766-24,24-24h375.999c4.418,0,8-3.582,8-8s-3.582-8-8-8H40c-13.233,0-24-10.766-24-24v-96c0-13.234,10.767-24,24-24
		h375.999c4.418,0,8-3.582,8-8s-3.582-8-8-8H40c-13.234,0-24-10.766-24-24V48c0-13.234,10.766-24,24-24h432
		c13.234,0,24,10.766,24,24V144z"/>
	<path d="M164.603,249.358C166.768,245.385,168,240.834,168,236c0-15.439-12.561-28-28-28H64c-4.418,0-8,3.582-8,8v80
		c0,4.418,3.582,8,8,8h92c15.439,0,28-12.561,28-28C184,263.561,175.845,252.997,164.603,249.358z M156,288H72v-64h68
		c6.617,0,12,5.383,12,12s-5.383,12-12,12H96c-4.418,0-8,3.582-8,8s3.582,8,8,8h44c0.885,0,1.758-0.046,2.622-0.127
		c0.448,0.078,0.907,0.127,1.378,0.127h12c6.617,0,12,5.383,12,12S162.617,288,156,288z"/>
	<path d="M262.554,211.412c-0.028-0.039-0.06-0.074-0.088-0.113c-0.097-0.133-0.199-0.263-0.304-0.391
		c-0.072-0.088-0.145-0.174-0.22-0.257c-0.093-0.103-0.189-0.203-0.288-0.301c-0.1-0.101-0.202-0.199-0.307-0.293
		c-0.082-0.073-0.166-0.145-0.251-0.215c-0.13-0.108-0.262-0.211-0.398-0.31c-0.038-0.027-0.071-0.058-0.109-0.085
		c-0.041-0.028-0.083-0.05-0.124-0.078c-0.143-0.096-0.288-0.187-0.436-0.273c-0.089-0.052-0.177-0.102-0.267-0.15
		c-0.134-0.071-0.27-0.138-0.408-0.202c-0.11-0.051-0.22-0.1-0.331-0.146c-0.12-0.049-0.241-0.093-0.363-0.136
		c-0.129-0.046-0.259-0.089-0.39-0.128c-0.112-0.033-0.224-0.061-0.336-0.089c-0.139-0.034-0.277-0.067-0.417-0.094
		c-0.115-0.022-0.23-0.039-0.346-0.056c-0.135-0.02-0.271-0.039-0.407-0.052c-0.128-0.012-0.256-0.019-0.384-0.025
		c-0.122-0.006-0.245-0.011-0.367-0.011c-0.145,0-0.29,0.006-0.435,0.014c-0.105,0.006-0.21,0.011-0.315,0.02
		c-0.158,0.015-0.315,0.036-0.473,0.06c-0.094,0.014-0.187,0.028-0.281,0.046c-0.159,0.03-0.317,0.067-0.475,0.107
		c-0.094,0.024-0.188,0.048-0.282,0.075c-0.146,0.043-0.291,0.092-0.436,0.143c-0.107,0.038-0.214,0.077-0.32,0.12
		c-0.124,0.05-0.246,0.105-0.367,0.161c-0.127,0.059-0.252,0.12-0.376,0.186c-0.098,0.052-0.195,0.107-0.292,0.164
		c-0.141,0.083-0.28,0.169-0.416,0.261c-0.044,0.029-0.089,0.053-0.133,0.083c-0.041,0.028-0.076,0.061-0.116,0.09
		c-0.131,0.096-0.26,0.196-0.386,0.3c-0.089,0.073-0.175,0.147-0.26,0.223c-0.103,0.093-0.202,0.189-0.301,0.287
		c-0.1,0.1-0.198,0.202-0.292,0.306c-0.074,0.083-0.146,0.167-0.217,0.253c-0.106,0.129-0.209,0.259-0.306,0.393
		c-0.028,0.039-0.06,0.073-0.088,0.112l-56,80c-2.534,3.62-1.654,8.608,1.966,11.142c1.396,0.978,2.997,1.447,4.581,1.447
		c2.522,0,5.004-1.189,6.561-3.413L256,229.95L285.435,272H248c-4.418,0-8,3.582-8,8s3.582,8,8,8h48c0.207,0,0.41-0.016,0.613-0.031
		l8.833,12.619c1.556,2.223,4.038,3.413,6.561,3.413c1.584,0,3.185-0.469,4.581-1.447c3.62-2.534,4.5-7.522,1.966-11.142
		L262.554,211.412z"/>
	<path d="M420,208h-76c-4.418,0-8,3.582-8,8v80c0,4.418,3.582,8,8,8s8-3.582,8-8v-72h68c6.617,0,12,5.383,12,12s-5.383,12-12,12h-44
		c-4.418,0-8,3.582-8,8s3.582,8,8,8h20.687l37.657,37.657c1.562,1.562,3.609,2.343,5.657,2.343s4.095-0.781,5.657-2.343
		c3.125-3.124,3.125-8.189,0-11.313L419.313,264H420c15.439,0,28-12.561,28-28S435.439,208,420,208z"/>
	<path d="M164.603,89.358C166.768,85.385,168,80.834,168,76c0-15.439-12.561-28-28-28H64c-4.418,0-8,3.582-8,8v80
		c0,4.418,3.582,8,8,8h92c15.439,0,28-12.561,28-28C184,103.561,175.845,92.997,164.603,89.358z M156,128H72V64h68
		c6.617,0,12,5.383,12,12s-5.383,12-12,12H96c-4.418,0-8,3.582-8,8s3.582,8,8,8h44c0.885,0,1.758-0.046,2.622-0.127
		c0.448,0.078,0.907,0.127,1.378,0.127h12c6.617,0,12,5.383,12,12S162.617,128,156,128z"/>
	<path d="M262.554,51.412c-0.028-0.039-0.06-0.074-0.088-0.113c-0.097-0.133-0.199-0.264-0.305-0.392
		c-0.072-0.087-0.144-0.173-0.219-0.256c-0.093-0.104-0.19-0.204-0.29-0.304c-0.099-0.1-0.2-0.197-0.304-0.29
		c-0.083-0.075-0.169-0.147-0.256-0.219c-0.128-0.106-0.258-0.208-0.392-0.305c-0.039-0.028-0.073-0.06-0.113-0.088
		c-0.042-0.029-0.086-0.052-0.128-0.08c-0.14-0.094-0.283-0.184-0.428-0.268c-0.091-0.053-0.182-0.105-0.275-0.154
		c-0.132-0.07-0.266-0.136-0.401-0.198c-0.112-0.052-0.224-0.102-0.337-0.148c-0.118-0.048-0.238-0.092-0.358-0.134
		c-0.131-0.046-0.261-0.091-0.394-0.13c-0.11-0.032-0.221-0.061-0.332-0.088c-0.14-0.035-0.28-0.068-0.422-0.095
		c-0.113-0.022-0.227-0.039-0.342-0.056c-0.136-0.02-0.273-0.039-0.41-0.052c-0.127-0.012-0.255-0.019-0.383-0.025
		c-0.122-0.006-0.244-0.011-0.366-0.012c-0.146,0-0.291,0.006-0.437,0.014c-0.105,0.006-0.21,0.011-0.314,0.02
		c-0.159,0.015-0.316,0.036-0.474,0.06c-0.093,0.014-0.186,0.028-0.278,0.045c-0.16,0.03-0.319,0.068-0.478,0.108
		c-0.093,0.023-0.185,0.047-0.277,0.074c-0.148,0.043-0.295,0.093-0.441,0.145c-0.106,0.038-0.211,0.076-0.315,0.118
		c-0.126,0.051-0.25,0.106-0.373,0.164c-0.124,0.058-0.247,0.118-0.369,0.182c-0.101,0.054-0.201,0.11-0.3,0.168
		c-0.138,0.081-0.274,0.166-0.408,0.256c-0.045,0.03-0.092,0.054-0.136,0.086c-0.042,0.029-0.078,0.063-0.119,0.093
		c-0.129,0.094-0.256,0.193-0.38,0.296c-0.09,0.074-0.179,0.149-0.265,0.227c-0.101,0.091-0.2,0.186-0.297,0.284
		c-0.101,0.101-0.2,0.204-0.295,0.309c-0.073,0.082-0.145,0.166-0.215,0.251c-0.107,0.129-0.209,0.26-0.307,0.394
		c-0.028,0.039-0.06,0.073-0.087,0.112l-56,80c-2.534,3.62-1.654,8.608,1.966,11.142c1.396,0.978,2.997,1.447,4.581,1.447
		c2.522,0,5.004-1.189,6.561-3.413L256,69.95L285.435,112H248c-4.418,0-8,3.582-8,8s3.582,8,8,8h48c0.207,0,0.41-0.016,0.613-0.031
		l8.833,12.619c1.556,2.223,4.038,3.413,6.561,3.413c1.584,0,3.185-0.469,4.581-1.447c3.62-2.534,4.5-7.522,1.966-11.142
		L262.554,51.412z"/>
	<path d="M419.313,104H420c15.439,0,28-12.561,28-28s-12.561-28-28-28h-76c-4.418,0-8,3.582-8,8v80c0,4.418,3.582,8,8,8s8-3.582,8-8
		V64h68c6.617,0,12,5.383,12,12s-5.383,12-12,12h-44c-4.418,0-8,3.582-8,8s3.582,8,8,8h20.687l37.657,37.657
		c1.562,1.562,3.609,2.343,5.657,2.343s4.095-0.781,5.657-2.343c3.125-3.124,3.125-8.189,0-11.313L419.313,104z"/>
	<path d="M164.603,409.358C166.768,405.385,168,400.834,168,396c0-15.439-12.561-28-28-28H64c-4.418,0-8,3.582-8,8v80
		c0,4.418,3.582,8,8,8h92c15.439,0,28-12.561,28-28C184,423.561,175.845,412.997,164.603,409.358z M156,448H72v-64h68
		c6.617,0,12,5.383,12,12s-5.383,12-12,12H96c-4.418,0-8,3.582-8,8s3.582,8,8,8h44c0.885,0,1.758-0.046,2.622-0.127
		c0.448,0.078,0.907,0.127,1.378,0.127h12c6.617,0,12,5.383,12,12S162.617,448,156,448z"/>
	<path d="M262.554,371.412c-0.028-0.039-0.06-0.074-0.088-0.113c-0.097-0.133-0.199-0.264-0.305-0.392
		c-0.072-0.087-0.144-0.173-0.219-0.256c-0.093-0.104-0.19-0.204-0.29-0.304c-0.099-0.1-0.2-0.196-0.304-0.29
		c-0.083-0.075-0.169-0.147-0.256-0.219c-0.128-0.106-0.258-0.208-0.392-0.305c-0.039-0.028-0.073-0.06-0.113-0.088
		c-0.042-0.029-0.087-0.052-0.129-0.081c-0.139-0.093-0.28-0.182-0.424-0.266c-0.094-0.055-0.188-0.108-0.283-0.159
		c-0.128-0.068-0.258-0.132-0.389-0.192c-0.117-0.054-0.233-0.106-0.352-0.155c-0.112-0.046-0.226-0.087-0.34-0.128
		c-0.137-0.049-0.275-0.095-0.414-0.136c-0.102-0.03-0.204-0.056-0.307-0.082c-0.15-0.038-0.299-0.073-0.45-0.102
		c-0.102-0.02-0.205-0.035-0.308-0.05c-0.148-0.022-0.296-0.043-0.444-0.057c-0.115-0.011-0.23-0.016-0.345-0.022
		c-0.135-0.007-0.271-0.013-0.406-0.013c-0.132,0-0.264,0.006-0.396,0.012c-0.119,0.006-0.237,0.012-0.355,0.023
		c-0.145,0.014-0.29,0.034-0.435,0.055c-0.106,0.016-0.212,0.032-0.318,0.052c-0.148,0.028-0.294,0.063-0.441,0.1
		c-0.105,0.026-0.21,0.053-0.314,0.083c-0.137,0.04-0.273,0.086-0.408,0.134c-0.116,0.041-0.231,0.083-0.346,0.13
		c-0.116,0.047-0.231,0.099-0.346,0.152c-0.133,0.062-0.265,0.126-0.395,0.195c-0.094,0.05-0.186,0.102-0.278,0.156
		c-0.145,0.084-0.286,0.173-0.426,0.267c-0.042,0.028-0.087,0.051-0.129,0.081c-0.04,0.028-0.074,0.06-0.113,0.088
		c-0.133,0.097-0.264,0.199-0.392,0.305c-0.087,0.072-0.173,0.144-0.256,0.219c-0.104,0.093-0.204,0.19-0.303,0.29
		c-0.1,0.1-0.197,0.201-0.291,0.304c-0.074,0.083-0.147,0.168-0.218,0.255c-0.106,0.128-0.208,0.259-0.305,0.393
		c-0.028,0.039-0.06,0.073-0.088,0.113l-56,80c-2.534,3.62-1.654,8.608,1.966,11.142c1.396,0.978,2.997,1.447,4.581,1.447
		c2.522,0,5.004-1.189,6.561-3.413L256,389.95L285.435,432H248c-4.418,0-8,3.582-8,8s3.582,8,8,8h48c0.207,0,0.41-0.016,0.613-0.031
		l8.833,12.619c1.556,2.223,4.038,3.413,6.561,3.413c1.584,0,3.185-0.469,4.581-1.447c3.62-2.534,4.5-7.522,1.966-11.142
		L262.554,371.412z"/>
	<path d="M420,368h-76c-4.418,0-8,3.582-8,8v80c0,4.418,3.582,8,8,8s8-3.582,8-8v-72h68c6.617,0,12,5.383,12,12s-5.383,12-12,12h-44
		c-4.418,0-8,3.582-8,8s3.582,8,8,8h20.687l37.657,37.657c1.562,1.562,3.609,2.343,5.657,2.343s4.095-0.781,5.657-2.343
		c3.125-3.124,3.125-8.189,0-11.313L419.313,424H420c15.439,0,28-12.561,28-28S435.439,368,420,368z"/>
</g>
<g>
</g>
<g>
</g>
<g>
</g>
<g>
</g>
<g>
</g>
<g>
</g>
<g>
</g>
<g>
</g>
<g>
</g>
<g>
</g>
<g>
</g>
<g>
</g>
<g>
</g>
<g>
</g>
<g>
</g>
</svg>
