<?xml version="1.0" encoding="iso-8859-1"?>
<!-- Generator: Adobe Illustrator 17.1.0, SVG Export Plug-In . SVG Version: 6.00 Build 0)  -->
<!DOCTYPE svg PUBLIC "-//W3C//DTD SVG 1.1//EN" "http://www.w3.org/Graphics/SVG/1.1/DTD/svg11.dtd">
<svg version="1.1" id="Capa_1" xmlns="http://www.w3.org/2000/svg" xmlns:xlink="http://www.w3.org/1999/xlink" x="0px" y="0px"
	 viewBox="0 0 509.06 509.06" style="enable-background:new 0 0 509.06 509.06;" xml:space="preserve">
<g>
	<g>
		<path d="M358.53,494.53h-208c-37.964,0-83.136-27.383-100.697-61.041l-36.792-70.518c-17.388-33.327-17.388-87.556,0-120.883
			l36.792-70.518c3.721-7.131,8.708-14.099,14.824-20.709c3-3.243,8.062-3.441,11.305-0.439c3.243,3,3.44,8.062,0.44,11.305
			c-5.153,5.57-9.319,11.372-12.384,17.245l-36.791,70.517c-15,28.751-15,77.331,0,106.082l36.792,70.518
			c14.832,28.426,54.449,52.441,86.512,52.441h208c32.063,0,71.68-24.016,86.511-52.441l36.792-70.518
			c15.001-28.751,15.001-77.331,0-106.082l-36.792-70.518c-3.063-5.869-7.226-11.668-12.374-17.234
			c-3-3.243-2.803-8.305,0.441-11.305c3.244-2.999,8.305-2.803,11.305,0.441c6.111,6.606,11.095,13.57,14.813,20.697l36.792,70.518
			c17.389,33.327,17.389,87.556,0,120.883l-36.792,70.518C441.666,467.147,396.494,494.53,358.53,494.53z"/>
	</g>
	<g>
		<g>
			<path d="M423.163,166.53c-5.246,0-10.24-1.675-14.441-4.843c-15.899-11.996-34.661-19.157-50.191-19.157h-208
				c-15.53,0-34.292,7.161-50.189,19.155c-10.571,7.965-25.649,5.854-33.617-4.698c-3.861-5.117-5.499-11.431-4.613-17.779
				c0.887-6.351,4.195-11.975,9.313-15.835c24.288-18.329,53.122-28.843,79.106-28.843h208c25.984,0,54.818,10.514,79.108,28.845
				c5.116,3.858,8.424,9.482,9.311,15.833c0.886,6.349-0.751,12.662-4.611,17.777C437.755,163.052,430.767,166.53,423.163,166.53z
				 M150.53,126.53h208c18.886,0,41.251,8.367,59.826,22.384c1.402,1.057,3.064,1.616,4.807,1.616c2.542,0,4.876-1.161,6.406-3.186
				c1.284-1.702,1.83-3.807,1.535-5.923c-0.296-2.116-1.397-3.988-3.101-5.273c-21.573-16.281-46.894-25.618-69.472-25.618h-208
				c-22.578,0-47.899,9.337-69.47,25.616c-1.707,1.287-2.808,3.159-3.104,5.275c-0.295,2.116,0.25,4.221,1.537,5.927
				c2.656,3.517,7.687,4.218,11.215,1.562C109.279,134.897,131.644,126.53,150.53,126.53z"/>
		</g>
	</g>
	<g>
		<path d="M230.53,62.53c-13.234,0-24-10.767-24-24s10.766-24,24-24s24,10.767,24,24S243.764,62.53,230.53,62.53z M230.53,30.53
			c-4.411,0-8,3.589-8,8s3.589,8,8,8s8-3.589,8-8S234.941,30.53,230.53,30.53z"/>
	</g>
	<g>
		<path d="M278.53,62.53c-13.234,0-24-10.767-24-24s10.766-24,24-24s24,10.767,24,24S291.764,62.53,278.53,62.53z M278.53,30.53
			c-4.411,0-8,3.589-8,8s3.589,8,8,8s8-3.589,8-8S282.941,30.53,278.53,30.53z"/>
	</g>
	<g>
		<path d="M286.53,110.53c-2.047,0-4.095-0.781-5.657-2.343l-48-48c-3.125-3.125-3.125-8.189,0-11.314
			c3.124-3.123,8.189-3.123,11.313,0l48,48c3.125,3.125,3.125,8.189,0,11.314C290.625,109.749,288.577,110.53,286.53,110.53z"/>
	</g>
	<g>
		<path d="M222.53,110.53c-2.047,0-4.095-0.781-5.657-2.343c-3.125-3.125-3.125-8.189,0-11.314l48-48
			c3.124-3.123,8.189-3.123,11.313,0c3.125,3.125,3.125,8.189,0,11.314l-48,48C226.625,109.749,224.577,110.53,222.53,110.53z"/>
	</g>
	<g>
		<path d="M469.13,312.531c-0.043,0-0.086,0-0.13-0.001c-4.418-0.07-7.942-3.709-7.872-8.127c0.246-15.442-2.62-30.438-7.667-40.112
			l-12.259-23.496c-2.043-3.917-0.525-8.749,3.392-10.793c3.917-2.043,8.75-0.525,10.793,3.393l12.259,23.496
			c6.315,12.105,9.77,29.517,9.479,47.769C477.057,309.033,473.489,312.531,469.13,312.531z M431.754,213.377
			c-2.892,0-5.684-1.573-7.108-4.317l-6.348-12.235c-0.064-0.103-0.126-0.206-0.188-0.313c-2.222-3.819-0.928-8.716,2.892-10.938
			c3.818-2.221,8.716-0.926,10.938,2.892l0.038,0.064c-0.98-1.637-3.101-3.471-6.114-3.718c1.651,0.136,4.687,0.91,6.596,4.563
			l6.39,12.315c2.035,3.922,0.505,8.751-3.417,10.786C434.254,213.086,432.994,213.377,431.754,213.377z"/>
	</g>
</g>
<g>
</g>
<g>
</g>
<g>
</g>
<g>
</g>
<g>
</g>
<g>
</g>
<g>
</g>
<g>
</g>
<g>
</g>
<g>
</g>
<g>
</g>
<g>
</g>
<g>
</g>
<g>
</g>
<g>
</g>
</svg>
