<?xml version="1.0" encoding="iso-8859-1"?>
<!-- Generator: Adobe Illustrator 17.1.0, SVG Export Plug-In . SVG Version: 6.00 Build 0)  -->
<!DOCTYPE svg PUBLIC "-//W3C//DTD SVG 1.1//EN" "http://www.w3.org/Graphics/SVG/1.1/DTD/svg11.dtd">
<svg version="1.1" id="Capa_1" xmlns="http://www.w3.org/2000/svg" xmlns:xlink="http://www.w3.org/1999/xlink" x="0px" y="0px"
	 viewBox="0 0 496.028 496.028" style="enable-background:new 0 0 496.028 496.028;" xml:space="preserve">
<path d="M440.172,276.421c-0.187-0.05-0.376-0.093-0.566-0.129L290.85,248.013l148.787-28.287c0.191-0.036,0.381-0.08,0.57-0.13
	c12.731-3.4,24.413-10.148,33.781-19.517c29.386-29.387,29.386-77.2,0-106.587c-13.246-13.246-30.939-20.995-49.541-21.913
	c-0.919-18.6-8.668-36.295-21.914-49.541C373.148-7.347,325.334-7.346,295.947,22.04c-9.375,9.376-16.127,21.068-19.525,33.814
	c-0.05,0.187-0.093,0.376-0.129,0.566l-28.279,148.757L219.727,56.391c-0.037-0.191-0.08-0.382-0.13-0.57
	c-3.401-12.733-10.15-24.415-19.517-33.781c-29.385-29.384-77.199-29.385-106.585,0C80.249,35.285,72.499,52.98,71.58,71.58
	c-18.6,0.919-36.295,8.668-49.541,21.913c-29.386,29.387-29.386,77.2,0,106.587c9.377,9.376,21.07,16.128,33.815,19.526
	c0.187,0.05,0.376,0.093,0.566,0.129l148.756,28.279L56.391,276.301c-0.191,0.036-0.381,0.08-0.57,0.13
	c-12.731,3.4-24.413,10.148-33.781,19.517c-29.386,29.387-29.386,77.2,0,106.587c13.246,13.246,30.939,20.995,49.541,21.913
	c0.919,18.6,8.668,36.295,21.914,49.541c14.694,14.694,33.99,22.041,53.293,22.039c19.297-0.002,38.602-7.349,53.292-22.039
	c9.375-9.375,16.127-21.068,19.526-33.815c0.05-0.187,0.093-0.376,0.129-0.566l28.279-148.757L276.3,439.637
	c0.037,0.191,0.08,0.382,0.13,0.57c3.401,12.733,10.15,24.415,19.517,33.781c14.693,14.692,33.993,22.039,53.293,22.039
	c19.3,0,38.6-7.347,53.292-22.039c13.246-13.246,20.995-30.941,21.914-49.541c18.6-0.919,36.295-8.668,49.541-21.913
	c29.386-29.387,29.386-77.2,0-106.587C464.611,286.571,452.918,279.819,440.172,276.421z M291.955,59.704
	c2.697-9.923,7.985-19.029,15.306-26.351c23.147-23.148,60.811-23.148,83.958,0c11.325,11.325,17.539,26.797,17.307,42.833
	l-11.353,11.353c-3.125,3.125-3.125,8.189,0,11.314c1.562,1.562,3.609,2.343,5.657,2.343s4.095-0.781,5.657-2.343l11.354-11.354
	c16.039-0.238,31.507,5.983,42.832,17.308c23.147,23.147,23.147,60.811,0,83.958c-7.315,7.314-16.412,12.601-26.322,15.299
	l-164.314,31.239L384.67,122.672c3.125-3.125,3.125-8.189,0-11.314c-3.124-3.123-8.189-3.123-11.313,0L260.724,223.989
	L291.955,59.704z M33.353,188.766c-23.147-23.147-23.147-60.811,0-83.958C44.679,93.482,60.149,87.265,76.186,87.5L87.54,98.854
	c1.562,1.562,3.609,2.343,5.657,2.343s4.095-0.781,5.657-2.343c3.125-3.125,3.125-8.189,0-11.314L87.5,76.186
	c-0.231-16.035,5.982-31.508,17.307-42.833c23.148-23.148,60.812-23.147,83.958,0c7.313,7.313,12.599,16.409,15.299,26.322
	l31.238,164.313L122.671,111.357c-3.124-3.123-8.189-3.123-11.313,0c-3.125,3.125-3.125,8.189,0,11.314l112.632,112.632
	l-164.285-31.23C49.782,201.376,40.675,196.088,33.353,188.766z M204.072,436.323c-2.697,9.925-7.986,19.03-15.306,26.351
	c-23.147,23.147-60.811,23.149-83.958,0c-11.325-11.325-17.539-26.797-17.307-42.833l11.353-11.353
	c3.125-3.125,3.125-8.189,0-11.314c-3.124-3.123-8.189-3.123-11.313,0l-11.354,11.354c-16.039,0.235-31.508-5.983-42.833-17.308
	c-23.147-23.147-23.147-60.811,0-83.958c7.315-7.314,16.412-12.601,26.322-15.299l164.314-31.239L111.358,373.355
	c-3.125,3.125-3.125,8.189,0,11.314c1.562,1.562,3.609,2.343,5.657,2.343s4.095-0.781,5.657-2.343l112.632-112.632L204.072,436.323z
	 M462.674,391.22c-11.326,11.326-26.793,17.543-42.833,17.308l-11.354-11.354c-3.124-3.123-8.189-3.123-11.313,0
	c-3.125,3.125-3.125,8.189,0,11.314l11.353,11.353c0.231,16.035-5.982,31.508-17.307,42.833c-23.147,23.149-60.811,23.148-83.958,0
	c-7.313-7.313-12.599-16.409-15.299-26.322l-31.238-164.313L373.357,384.67c1.562,1.562,3.609,2.343,5.657,2.343
	s4.095-0.781,5.657-2.343c3.125-3.125,3.125-8.189,0-11.314L272.038,260.724l164.285,31.23c9.923,2.697,19.03,7.985,26.352,15.308
	C485.822,330.409,485.822,368.072,462.674,391.22z"/>
<g>
</g>
<g>
</g>
<g>
</g>
<g>
</g>
<g>
</g>
<g>
</g>
<g>
</g>
<g>
</g>
<g>
</g>
<g>
</g>
<g>
</g>
<g>
</g>
<g>
</g>
<g>
</g>
<g>
</g>
</svg>
