<?xml version="1.0" encoding="iso-8859-1"?>
<!-- Generator: Adobe Illustrator 17.1.0, SVG Export Plug-In . SVG Version: 6.00 Build 0)  -->
<!DOCTYPE svg PUBLIC "-//W3C//DTD SVG 1.1//EN" "http://www.w3.org/Graphics/SVG/1.1/DTD/svg11.dtd">
<svg version="1.1" id="Capa_1" xmlns="http://www.w3.org/2000/svg" xmlns:xlink="http://www.w3.org/1999/xlink" x="0px" y="0px"
	 viewBox="0 0 512.002 512.002" style="enable-background:new 0 0 512.002 512.002;" xml:space="preserve">
<g>
	<path d="M426.859,165.207c-24.963-32.433-59.089-57.326-97.297-71.259c2.657-2.112,5.239-4.339,7.729-6.689
		c21.943-20.706,35.206-48.652,37.347-78.688c0.159-2.227-0.62-4.418-2.148-6.045c-1.528-1.627-3.67-2.575-5.898-2.523
		c-30.331,0.254-59.177,11.852-81.224,32.656c-14.332,13.525-24.958,30.138-31.204,48.405
		c-56.87,0.472-110.266,22.826-150.531,63.09c-40.699,40.699-63.113,94.811-63.113,152.367c0,57.557,22.414,111.669,63.113,152.368
		s94.811,63.113,152.368,63.113c57.557,0,111.668-22.414,152.367-63.113s63.113-94.811,63.113-152.368
		C471.481,248.543,456.051,203.134,426.859,165.207z M296.349,44.295c16.886-15.934,38.376-25.635,61.289-27.823
		c-3.602,22.559-14.531,43.3-31.327,59.15c-13.683,12.912-30.391,21.728-48.429,25.774l23.779-23.779
		c3.125-3.124,3.125-8.189,0-11.313c-3.124-3.124-8.189-3.124-11.313,0l-21.573,21.573
		C274.104,71.406,283.503,56.417,296.349,44.295z M256.001,496.002c-109.994,0-199.48-89.486-199.48-199.48
		c0-107.952,86.188-196.143,193.37-199.38c-0.899,4.668-1.528,9.41-1.869,14.206c-0.008,0.109-0.003,0.217-0.006,0.325
		c-0.005,0.139-0.01,0.277-0.008,0.416c0.002,0.085,0.008,0.17,0.012,0.255c0.01,0.21,0.027,0.419,0.053,0.627
		c0.003,0.024,0.007,0.048,0.01,0.072c0.227,1.674,0.975,3.291,2.262,4.578c1.562,1.562,3.609,2.343,5.657,2.343
		c0.326,0,0.65-0.027,0.974-0.067c19.693-0.312,38.735-5.402,55.669-14.693c39.979,11.833,75.95,36.518,101.535,69.761
		c27.02,35.105,41.301,77.139,41.301,121.556C455.481,406.515,365.995,496.002,256.001,496.002z"/>
	<path d="M364.768,148.745c-5.349-3.943-10.972-7.634-16.714-10.971c-3.82-2.22-8.716-0.922-10.937,2.897
		c-2.22,3.82-0.922,8.717,2.897,10.937c5.242,3.046,10.376,6.416,15.259,10.016c1.429,1.053,3.092,1.561,4.741,1.561
		c2.455,0,4.877-1.126,6.446-3.253C369.082,156.375,368.324,151.367,364.768,148.745z"/>
	<path d="M187.284,449.299c-26.385-11.887-49.396-30.56-66.545-54.001c-2.609-3.565-7.614-4.342-11.18-1.733
		c-3.566,2.608-4.342,7.614-1.733,11.18c18.779,25.67,43.983,46.121,72.886,59.142c1.067,0.48,2.183,0.708,3.281,0.708
		c3.051,0,5.964-1.754,7.299-4.716C193.107,455.851,191.313,451.114,187.284,449.299z"/>
	<path d="M426.662,229.025c-8.614-21.762-21.172-41.459-37.326-58.542c-3.035-3.209-8.098-3.352-11.31-0.316
		c-3.21,3.036-3.352,8.099-0.316,11.31c14.749,15.598,26.213,33.577,34.075,53.438c1.244,3.142,4.255,5.058,7.441,5.058
		c0.979,0,1.976-0.181,2.942-0.563C426.276,237.782,428.288,233.133,426.662,229.025z"/>
</g>
<g>
</g>
<g>
</g>
<g>
</g>
<g>
</g>
<g>
</g>
<g>
</g>
<g>
</g>
<g>
</g>
<g>
</g>
<g>
</g>
<g>
</g>
<g>
</g>
<g>
</g>
<g>
</g>
<g>
</g>
</svg>
