<?xml version="1.0" encoding="iso-8859-1"?>
<!-- Generator: Adobe Illustrator 17.1.0, SVG Export Plug-In . SVG Version: 6.00 Build 0)  -->
<!DOCTYPE svg PUBLIC "-//W3C//DTD SVG 1.1//EN" "http://www.w3.org/Graphics/SVG/1.1/DTD/svg11.dtd">
<svg version="1.1" id="Capa_1" xmlns="http://www.w3.org/2000/svg" xmlns:xlink="http://www.w3.org/1999/xlink" x="0px" y="0px"
	 viewBox="0 0 511.898 511.898" style="enable-background:new 0 0 511.898 511.898;" xml:space="preserve">
<path d="M502.364,161.196c-2.899-13.371-10.498-23.92-20.848-28.939c-8.348-4.049-17.556-4.029-25.892,0.039
	c-43.136,20.814-99.653,44.784-149.516,65.932l-2.859,1.212c-6.592-4.768-14.679-7.588-23.417-7.588h-48.083
	c-8.738,0-16.826,2.821-23.417,7.588c-48.224-20.456-107.491-45.639-152.024-67.128c-8.369-4.085-17.576-4.105-25.925-0.055
	c-10.35,5.02-17.949,15.568-20.866,29.029c-12.69,61.931-12.69,127.398,0.019,189.415c2.898,13.372,10.498,23.921,20.849,28.94
	c4.16,2.018,8.531,3.024,12.902,3.024c4.403,0,8.806-1.022,12.989-3.064c44.535-21.489,103.82-46.681,152.057-67.144
	c6.591,4.767,14.679,7.588,23.417,7.588h48.083c8.738,0,16.826-2.821,23.417-7.588l2.958,1.254
	c49.831,21.135,106.309,45.089,149.385,65.873c4.204,2.053,8.619,3.079,13.031,3.079c4.371,0,8.739-1.007,12.894-3.022
	c10.351-5.02,17.95-15.568,20.868-29.029C515.072,288.684,515.072,223.216,502.364,161.196z M49.287,365.208
	c-3.912,1.91-8.035,1.923-11.922,0.037c-5.812-2.818-10.371-9.522-12.175-17.844C12.93,287.574,12.93,224.327,25.17,164.586
	c1.823-8.411,6.381-15.115,12.193-17.935c3.887-1.886,8.01-1.874,11.957,0.054c43.351,20.918,100.267,45.19,147.682,65.309
	c-3.357,5.84-5.292,12.596-5.308,19.798l-94.868-15.811c-4.357-0.722-8.48,2.218-9.206,6.576c-0.727,4.358,2.218,8.48,6.576,9.207
	l96.167,16.027c0.445,0.074,0.888,0.109,1.325,0.109c0.001,0,0.002,0,0.004,0v16.067c-0.439-0.001-0.882,0.024-1.329,0.097
	l-96.167,16.028c-4.358,0.727-7.302,4.849-6.576,9.207c0.652,3.913,4.041,6.686,7.881,6.686c0.437,0,0.88-0.036,1.325-0.109
	l94.868-15.812c0.017,7.202,1.952,13.958,5.308,19.798C149.573,320.008,92.64,344.288,49.287,365.208z M231.748,304.045
	c-13.264,0-24.056-10.791-24.056-24.056v-48.083c0-13.265,10.792-24.056,24.056-24.056h48.083c13.264,0,24.056,10.791,24.056,24.056
	v48.083c0,13.265-10.792,24.056-24.056,24.056H231.748z M486.727,347.312c-1.823,8.41-6.381,15.114-12.194,17.933
	c-3.889,1.886-8.011,1.872-11.956-0.054c-42.845-20.674-98.527-44.325-148.001-65.309c3.357-5.84,5.292-12.596,5.308-19.798
	l94.868,15.812c0.445,0.074,0.888,0.109,1.325,0.109c3.84,0,7.229-2.772,7.881-6.686c0.727-4.358-2.218-8.48-6.576-9.207
	l-96.167-16.028c-0.447-0.074-0.89-0.101-1.329-0.1v-16.063c0.001,0,0.002,0,0.004,0c0.437,0,0.88-0.035,1.325-0.109l96.167-16.027
	c4.358-0.727,7.303-4.849,6.576-9.207s-4.851-7.301-9.206-6.576l-94.868,15.811c-0.017-7.202-1.952-13.958-5.308-19.798
	c49.483-20.987,105.157-44.636,148.034-65.325c3.913-1.911,8.036-1.925,11.924-0.038c5.812,2.819,10.37,9.523,12.174,17.845
	C498.968,224.327,498.968,287.574,486.727,347.312z"/>
<g>
</g>
<g>
</g>
<g>
</g>
<g>
</g>
<g>
</g>
<g>
</g>
<g>
</g>
<g>
</g>
<g>
</g>
<g>
</g>
<g>
</g>
<g>
</g>
<g>
</g>
<g>
</g>
<g>
</g>
</svg>
