<?xml version="1.0" encoding="iso-8859-1"?>
<!-- Generator: Adobe Illustrator 17.1.0, SVG Export Plug-In . SVG Version: 6.00 Build 0)  -->
<!DOCTYPE svg PUBLIC "-//W3C//DTD SVG 1.1//EN" "http://www.w3.org/Graphics/SVG/1.1/DTD/svg11.dtd">
<svg version="1.1" id="Capa_1" xmlns="http://www.w3.org/2000/svg" xmlns:xlink="http://www.w3.org/1999/xlink" x="0px" y="0px"
	 viewBox="0 0 512.005 512.005" style="enable-background:new 0 0 512.005 512.005;" xml:space="preserve">
<g>
	<path d="M413.989,144.055c-16.354-20.687-22.077-28.918-22.077-40.055c0-0.878,0.552-3.401,2.072-6.752
		c0.339-0.747,1.189-1.248,2.117-1.248h3.812c13.234,0,24-10.767,24-24V24c0-13.233-10.766-24-24-24h-16
		c-24.954,0-48.059,12.879-65.058,36.264C304.488,56.025,295.912,81.347,295.912,104c0,45.484,22.717,74.228,42.763,99.59
		c15.841,20.038,29.521,37.343,34.836,65.096c6.826,35.642-2.01,72.521-24.24,101.182c-21.315,27.481-51.755,43.78-85.711,45.895
		c-33.481,2.087-65.349-9.397-89.753-32.33c-24.083-22.63-37.895-54.497-37.895-87.432c0-45.308,16.433-66.094,37.24-92.414
		c20.042-25.358,42.76-54.102,42.76-99.586c0-22.653-8.576-47.975-22.942-67.736C175.971,12.879,152.866,0,127.912,0h-16
		c-13.234,0-24,10.767-24,24v48c0,13.233,10.766,24,24,24h3.812c0.927,0,1.778,0.502,2.116,1.246
		c1.521,3.354,2.073,5.877,2.073,6.754c0,11.137-5.723,19.368-22.077,40.055c-18.458,23.349-43.739,55.327-53.621,105.747
		c-12.213,62.312,3.004,127.093,41.75,177.732c18.321,23.945,40.734,43.403,66.617,57.833
		c27.064,15.089,56.545,23.861,87.624,26.072c5.297,0.377,10.574,0.565,15.828,0.565c25.154,0,49.767-4.313,73.365-12.876
		c27.394-9.939,52.161-25.109,73.612-45.088c21.501-20.025,38.436-43.724,50.333-70.435c12.322-27.665,18.569-57.14,18.569-87.606
		C471.912,217.327,438.434,174.977,413.989,144.055z M438.727,377.097c-11.017,24.735-26.703,46.685-46.622,65.235
		c-41.088,38.269-94.626,57.143-150.764,53.148c-28.724-2.044-55.965-10.148-80.968-24.088
		c-23.959-13.357-44.718-31.385-61.701-53.581C62.711,370.811,48.585,310.695,59.916,252.88
		c9.136-46.616,32.055-75.608,50.471-98.903c16.773-21.215,25.525-33.073,25.525-49.977c0-4.908-2.193-10.478-3.502-13.363
		C129.478,84.175,122.928,80,115.724,80h-3.812c-4.411,0-8-3.589-8-8V24c0-4.411,3.589-8,8-8h16
		c19.698,0,38.207,10.538,52.117,29.672c12.264,16.871,19.883,39.222,19.883,58.328c0,39.925-19.985,65.211-39.315,89.668
		c-20.923,26.466-40.685,51.464-40.685,102.332c0,37.333,15.65,73.45,42.938,99.092c27.657,25.989,63.778,39.006,101.704,36.639
		c38.61-2.403,73.186-20.892,97.36-52.058c25.046-32.292,35.001-73.842,27.312-113.997c-6.051-31.596-21.569-51.226-38.001-72.011
		c-19.327-24.454-39.313-49.74-39.313-89.665c0-19.106,7.619-41.457,19.883-58.328C345.705,26.538,364.214,16,383.912,16h16
		c4.411,0,8,3.589,8,8v48c0,4.411-3.589,8-8,8h-3.812c-7.206,0-13.755,4.176-16.688,10.638c-1.308,2.883-3.501,8.452-3.501,13.362
		c0,16.903,8.752,28.762,25.525,49.977c22.99,29.082,54.475,68.91,54.475,142.023C455.912,324.209,450.13,351.494,438.727,377.097z"
		/>
	<path d="M271.912,456c-4.418,0-8,3.582-8,8c0,4.411-3.589,8-8,8s-8-3.589-8-8s3.589-8,8-8c4.418,0,8-3.582,8-8s-3.582-8-8-8
		c-13.234,0-24,10.767-24,24s10.766,24,24,24s24-10.767,24-24C279.912,459.582,276.331,456,271.912,456z"/>
	<path d="M103.912,288c-4.418,0-8,3.582-8,8c0,4.411-3.589,8-8,8s-8-3.589-8-8s3.589-8,8-8c4.418,0,8-3.582,8-8s-3.582-8-8-8
		c-13.234,0-24,10.767-24,24s10.766,24,24,24s24-10.767,24-24C111.912,291.582,108.331,288,103.912,288z"/>
	<path d="M439.912,288c-4.418,0-8,3.582-8,8c0,4.411-3.589,8-8,8s-8-3.589-8-8s3.589-8,8-8c4.418,0,8-3.582,8-8s-3.582-8-8-8
		c-13.234,0-24,10.767-24,24s10.766,24,24,24s24-10.767,24-24C447.912,291.582,444.331,288,439.912,288z"/>
	<path d="M153.118,406.794c-4.418,0-8,3.582-8,8c0,4.411-3.589,8-8,8s-8-3.589-8-8s3.589-8,8-8c4.418,0,8-3.582,8-8s-3.582-8-8-8
		c-13.234,0-24,10.767-24,24s10.766,24,24,24s24-10.767,24-24C161.118,410.376,157.537,406.794,153.118,406.794z"/>
	<path d="M390.706,169.206c-4.418,0-8,3.582-8,8c0,4.411-3.589,8-8,8s-8-3.589-8-8s3.589-8,8-8c4.418,0,8-3.582,8-8s-3.582-8-8-8
		c-13.234,0-24,10.767-24,24s10.766,24,24,24s24-10.767,24-24C398.706,172.788,395.125,169.206,390.706,169.206z"/>
	<path d="M390.706,406.794c-4.418,0-8,3.582-8,8c0,4.411-3.589,8-8,8s-8-3.589-8-8s3.589-8,8-8c4.418,0,8-3.582,8-8s-3.582-8-8-8
		c-13.234,0-24,10.767-24,24s10.766,24,24,24s24-10.767,24-24C398.706,410.376,395.125,406.794,390.706,406.794z"/>
	<path d="M137.118,201.206c13.234,0,24-10.767,24-24c0-4.418-3.582-8-8-8s-8,3.582-8,8c0,4.411-3.589,8-8,8s-8-3.589-8-8
		s3.589-8,8-8c4.418,0,8-3.582,8-8s-3.582-8-8-8c-13.234,0-24,10.767-24,24S123.884,201.206,137.118,201.206z"/>
</g>
<g>
</g>
<g>
</g>
<g>
</g>
<g>
</g>
<g>
</g>
<g>
</g>
<g>
</g>
<g>
</g>
<g>
</g>
<g>
</g>
<g>
</g>
<g>
</g>
<g>
</g>
<g>
</g>
<g>
</g>
</svg>
