<?xml version="1.0" encoding="iso-8859-1"?>
<!-- Generator: Adobe Illustrator 17.1.0, SVG Export Plug-In . SVG Version: 6.00 Build 0)  -->
<!DOCTYPE svg PUBLIC "-//W3C//DTD SVG 1.1//EN" "http://www.w3.org/Graphics/SVG/1.1/DTD/svg11.dtd">
<svg version="1.1" id="Capa_1" xmlns="http://www.w3.org/2000/svg" xmlns:xlink="http://www.w3.org/1999/xlink" x="0px" y="0px"
	 viewBox="0 0 512.002 512.002" style="enable-background:new 0 0 512.002 512.002;" xml:space="preserve">
<g>
	<path d="M511.908,307.378c-2.292-56.849-48.557-103.931-105.329-107.188c-44.364-2.543-86.081,21.398-106.275,60.998
		c-3.165,6.206-8.255,10.73-14.336,12.743c-1.125,0.372-2.261,0.74-3.408,1.103c2.299-16.636,6.153-33.086,11.498-49.053
		c2.03-6.064,6.492-11.102,12.565-14.184c39.722-20.16,63.74-61.914,61.19-106.373C364.556,48.653,317.475,2.388,260.627,0.095
		c-30.822-1.244-60.011,9.81-82.201,31.122c-22.199,21.323-34.425,50.012-34.425,80.785c0,42.406,23.571,80.671,61.515,99.864
		c5.978,3.024,10.379,7.998,12.393,14.007c5.364,16.002,9.229,32.49,11.534,49.161c-1.15-0.364-2.291-0.733-3.418-1.106
		c-6.075-2.01-11.161-6.53-14.32-12.728c-20.192-39.606-61.912-63.55-106.281-61.008C48.652,203.447,2.386,250.53,0.094,307.378
		c-1.242,30.818,9.811,60.011,31.122,82.199c21.322,22.199,50.012,34.425,80.785,34.425c42.234,0,80.43-23.434,99.681-61.156
		c3.179-6.228,8.294-10.77,14.405-12.791c1.114-0.369,2.241-0.733,3.378-1.093c-7.638,55.696-32.796,108.415-71.583,149.551
		c-2.19,2.323-2.79,5.727-1.524,8.658s4.152,4.83,7.345,4.83h28.299h128H348.3c3.193,0,6.08-1.898,7.345-4.83
		s0.666-6.335-1.524-8.658c-38.788-41.136-63.945-93.854-71.583-149.551c1.137,0.359,2.264,0.724,3.378,1.093
		c6.111,2.021,11.226,6.563,14.405,12.791c19.251,37.722,57.447,61.156,99.681,61.156c30.772,0,59.462-12.226,80.785-34.425
		C502.097,367.389,513.15,338.196,511.908,307.378z M469.246,378.493c-18.277,19.029-42.869,29.509-69.245,29.509
		c-36.19,0-68.925-20.09-85.43-52.429c-5.105-10.003-13.498-17.357-23.632-20.709c-5.029-1.663-10.282-3.243-15.614-4.698
		c-2.531-0.69-5.238-0.096-7.248,1.589c-2.009,1.686-3.065,4.249-2.825,6.861c2.97,32.333,11.313,63.654,24.796,93.093
		c10.608,23.161,24.187,44.72,40.478,64.293h-10.526h-128h-10.526c16.292-19.573,29.87-41.132,40.478-64.293
		c13.483-29.438,21.826-60.759,24.796-93.093c0.24-2.612-0.815-5.175-2.825-6.861c-2.01-1.686-4.718-2.278-7.248-1.589
		c-5.332,1.455-10.585,3.036-15.614,4.698c-10.134,3.352-18.527,10.706-23.632,20.709c-16.504,32.339-49.239,52.429-85.43,52.429
		c-26.376,0-50.968-10.479-69.245-29.509c-18.267-19.018-27.74-44.044-26.674-70.471c1.963-48.719,41.609-89.067,90.257-91.858
		c38.036-2.179,73.8,18.348,91.11,52.302c5.085,9.975,13.448,17.309,23.548,20.651c5.05,1.671,10.324,3.259,15.674,4.719
		c2.531,0.69,5.242,0.096,7.252-1.593c2.01-1.688,3.063-4.256,2.819-6.869c-2.046-21.915-6.643-43.645-13.663-64.587
		c-3.36-10.024-10.584-18.264-20.342-23.199c-32.529-16.454-52.736-49.249-52.736-85.586c0-26.376,10.48-50.968,29.509-69.246
		c19.019-18.267,44.051-27.741,70.473-26.674c48.718,1.965,89.066,41.611,91.856,90.258c2.186,38.112-18.405,73.906-52.458,91.189
		c-9.845,4.997-17.124,13.297-20.497,23.373c-6.998,20.904-11.582,42.596-13.625,64.473c-0.244,2.613,0.81,5.181,2.819,6.869
		s4.721,2.283,7.252,1.593c5.345-1.459,10.615-3.045,15.663-4.716c10.105-3.343,18.474-10.682,23.564-20.663
		c17.312-33.948,53.067-54.472,91.105-52.293c48.648,2.791,88.294,43.14,90.257,91.858
		C496.986,334.448,487.513,359.476,469.246,378.493z"/>
	<path d="M319.891,108.173c0.244,4.255,3.771,7.542,7.979,7.542c0.154,0,0.31-0.005,0.465-0.014
		c4.411-0.253,7.782-4.034,7.529-8.445c-2.325-40.524-35.939-73.55-76.526-75.187c-1.104-0.045-2.227-0.067-3.337-0.067
		c-4.418,0-8,3.582-8,8c0,4.418,3.582,8,8,8c0.892,0,1.791,0.018,2.692,0.054C291.151,49.365,318.032,75.772,319.891,108.173z"/>
	<path d="M403.462,232.069c-1.104-0.045-2.227-0.067-3.337-0.067c-4.418,0-8,3.582-8,8c0,4.418,3.582,8,8,8
		c0.892,0,1.791,0.018,2.691,0.054c32.458,1.31,59.34,27.716,61.199,60.117c0.244,4.255,3.771,7.542,7.979,7.542
		c0.154,0,0.31-0.005,0.465-0.014c4.411-0.253,7.782-4.034,7.529-8.445C477.664,266.732,444.048,233.706,403.462,232.069z"/>
	<path d="M111.999,232.002L111.999,232.002c-4.418,0-8,3.581-8,7.999c0,4.418,3.581,8,8,8.001
		c24.118,0.001,45.937,13.412,56.942,34.999c1.413,2.772,4.221,4.368,7.133,4.368c1.223,0,2.463-0.281,3.627-0.874
		c3.936-2.007,5.5-6.825,3.493-10.761C169.443,248.761,142.163,232.004,111.999,232.002z"/>
	<path d="M261.02,424.62c-4.077,1.703-6.001,6.389-4.298,10.465c5.892,14.103,12.851,27.903,20.683,41.019
		c1.498,2.509,4.152,3.899,6.876,3.899c1.396,0,2.81-0.365,4.094-1.133c3.793-2.265,5.032-7.177,2.767-10.97
		c-7.444-12.465-14.057-25.58-19.656-38.983C269.782,424.84,265.097,422.915,261.02,424.62z"/>
</g>
<g>
</g>
<g>
</g>
<g>
</g>
<g>
</g>
<g>
</g>
<g>
</g>
<g>
</g>
<g>
</g>
<g>
</g>
<g>
</g>
<g>
</g>
<g>
</g>
<g>
</g>
<g>
</g>
<g>
</g>
</svg>
