<?xml version="1.0" encoding="iso-8859-1"?>
<!-- Generator: Adobe Illustrator 17.1.0, SVG Export Plug-In . SVG Version: 6.00 Build 0)  -->
<!DOCTYPE svg PUBLIC "-//W3C//DTD SVG 1.1//EN" "http://www.w3.org/Graphics/SVG/1.1/DTD/svg11.dtd">
<svg version="1.1" id="Capa_1" xmlns="http://www.w3.org/2000/svg" xmlns:xlink="http://www.w3.org/1999/xlink" x="0px" y="0px"
	 viewBox="0 0 512 512" style="enable-background:new 0 0 512 512;" xml:space="preserve">
<g>
	<path d="M256,184c-17.645,0-32,14.355-32,32s14.355,32,32,32s32-14.355,32-32S273.645,184,256,184z M256,232
		c-8.822,0-16-7.178-16-16s7.178-16,16-16s16,7.178,16,16S264.822,232,256,232z"/>
	<path d="M248,152c0-17.645-14.355-32-32-32s-32,14.355-32,32s14.355,32,32,32S248,169.645,248,152z M216,168
		c-8.822,0-16-7.178-16-16s7.178-16,16-16s16,7.178,16,16S224.822,168,216,168z"/>
	<path d="M296,120c-17.645,0-32,14.355-32,32s14.355,32,32,32s32-14.355,32-32S313.645,120,296,120z M296,168
		c-8.822,0-16-7.178-16-16s7.178-16,16-16s16,7.178,16,16S304.822,168,296,168z"/>
	<path d="M437.02,74.98C388.667,26.628,324.38,0,256,0S123.333,26.628,74.98,74.98S0,187.62,0,256s26.628,132.667,74.98,181.02
		S187.62,512,256,512s132.667-26.628,181.02-74.98S512,324.38,512,256S485.372,123.333,437.02,74.98z M425.706,425.706
		C380.376,471.036,320.106,496,256,496s-124.376-24.964-169.706-70.294C40.964,380.376,16,320.106,16,256
		S40.964,131.624,86.294,86.294C131.624,40.964,191.894,16,256,16s124.376,24.964,169.706,70.294
		C471.036,131.624,496,191.894,496,256S471.036,380.376,425.706,425.706z"/>
	<path d="M338.958,47.866c-5.431-2.167-11.015-4.142-16.597-5.87c-4.218-1.307-8.701,1.054-10.008,5.275
		c-1.308,4.22,1.054,8.701,5.275,10.008c5.179,1.604,10.361,3.438,15.402,5.448c0.972,0.388,1.975,0.571,2.961,0.571
		c3.178,0,6.184-1.906,7.433-5.038C345.062,54.157,343.062,49.503,338.958,47.866z"/>
	<path d="M177.247,448.576c-40.466-16.566-75.428-46.252-98.443-83.59c-2.318-3.762-7.248-4.933-11.008-2.612
		c-3.761,2.318-4.931,7.247-2.612,11.008c24.779,40.199,62.425,72.162,106.002,90.002c0.992,0.406,2.018,0.598,3.028,0.598
		c3.151,0,6.139-1.875,7.407-4.971C183.294,454.922,181.336,450.25,177.247,448.576z"/>
	<path d="M438.506,126.095c-17.814-24.984-40.128-45.725-66.322-61.646c-3.777-2.295-8.697-1.094-10.992,2.681
		c-2.295,3.776-1.094,8.697,2.681,10.992c24.33,14.787,45.057,34.053,61.605,57.262c1.561,2.189,4.022,3.356,6.521,3.356
		c1.607,0,3.229-0.483,4.638-1.487C440.234,134.688,441.071,129.693,438.506,126.095z"/>
</g>
<g>
</g>
<g>
</g>
<g>
</g>
<g>
</g>
<g>
</g>
<g>
</g>
<g>
</g>
<g>
</g>
<g>
</g>
<g>
</g>
<g>
</g>
<g>
</g>
<g>
</g>
<g>
</g>
<g>
</g>
</svg>
