<?xml version="1.0" encoding="iso-8859-1"?>
<!-- Generator: Adobe Illustrator 17.1.0, SVG Export Plug-In . SVG Version: 6.00 Build 0)  -->
<!DOCTYPE svg PUBLIC "-//W3C//DTD SVG 1.1//EN" "http://www.w3.org/Graphics/SVG/1.1/DTD/svg11.dtd">
<svg version="1.1" id="Capa_1" xmlns="http://www.w3.org/2000/svg" xmlns:xlink="http://www.w3.org/1999/xlink" x="0px" y="0px"
	 viewBox="0 0 512 512" style="enable-background:new 0 0 512 512;" xml:space="preserve">
<g>
	<path d="M456,112H304v-8c0-13.234-10.766-24-24-24V8c0-4.418-3.582-8-8-8s-8,3.582-8,8v72h-16V8c0-4.418-3.582-8-8-8s-8,3.582-8,8
		v72c-13.234,0-24,10.766-24,24v8H56c-13.234,0-24,10.766-24,24s10.766,24,24,24h26.815c-1.752,1.416-3.434,2.914-5.045,4.485
		c-0.235,0.187-0.464,0.386-0.681,0.603c-0.218,0.218-0.417,0.447-0.604,0.682C63.823,178.753,56,196.476,56,216
		s7.823,37.247,20.484,50.23c0.187,0.235,0.386,0.464,0.604,0.682c0.218,0.218,0.446,0.416,0.681,0.603
		C90.752,280.177,108.476,288,128,288c1.421,0,2.829-0.053,4.23-0.134c-7.947,11.826-12.002,25.502-12.174,39.224
		C120.021,327.389,120,327.692,120,328s0.021,0.611,0.055,0.911c0.228,18.133,7.228,36.196,21.033,50.001
		c13.805,13.806,31.869,20.806,50.002,21.033c0.299,0.034,0.602,0.055,0.91,0.055s0.611-0.021,0.91-0.055
		c1.124-0.014,2.247-0.053,3.369-0.119C188.529,411.308,184,425.135,184,440c0,19.524,7.823,37.247,20.484,50.23
		c0.187,0.235,0.386,0.464,0.604,0.682c0.217,0.218,0.446,0.416,0.681,0.603C218.752,504.177,236.476,512,256,512
		s37.248-7.823,50.23-20.485c0.235-0.187,0.464-0.386,0.681-0.603c0.218-0.218,0.417-0.447,0.604-0.682
		C320.177,477.247,328,459.524,328,440c0-14.849-4.52-28.661-12.254-40.136c1.409,0.083,2.825,0.136,4.254,0.136
		c19.524,0,37.248-7.823,50.23-20.485c0.235-0.187,0.464-0.386,0.681-0.603c0.218-0.218,0.417-0.447,0.604-0.682
		C384.177,365.247,392,347.524,392,328c0-14.849-4.52-28.661-12.254-40.136c1.409,0.083,2.825,0.136,4.254,0.136
		c19.524,0,37.248-7.823,50.23-20.485c0.235-0.187,0.464-0.386,0.681-0.603c0.218-0.218,0.417-0.447,0.604-0.682
		C448.177,253.247,456,235.524,456,216s-7.823-37.247-20.484-50.23c-0.187-0.235-0.386-0.464-0.604-0.682
		c-0.217-0.218-0.446-0.416-0.681-0.603c-1.611-1.572-3.293-3.069-5.045-4.485H456c13.234,0,24-10.766,24-24S469.234,112,456,112z
		 M224,104c0-4.411,3.589-8,8-8h48c4.411,0,8,3.589,8,8v8h-64V104z M439.419,208h-16.224c-1.039-5.1-3.056-9.846-5.839-14.042
		l11.477-11.477C434.326,189.81,438.058,198.527,439.419,208z M428.833,249.519l-11.477-11.477c2.783-4.197,4.8-8.943,5.839-14.042
		h16.224C438.058,233.473,434.326,242.19,428.833,249.519z M350.481,260.833l11.477-11.477c4.197,2.783,8.943,4.8,14.042,5.839
		v16.224C366.527,270.058,357.81,266.326,350.481,260.833z M364.833,361.519l-11.477-11.477c2.783-4.197,4.8-8.943,5.839-14.042
		h16.224C374.058,345.473,370.326,354.19,364.833,361.519z M286.481,372.833l11.477-11.477c4.197,2.783,8.943,4.8,14.042,5.839
		v16.224C302.527,382.058,293.81,378.326,286.481,372.833z M300.833,473.519l-11.477-11.477c2.783-4.197,4.8-8.943,5.839-14.042
		h16.224C310.058,457.473,306.326,466.19,300.833,473.519z M200.581,448h16.224c1.039,5.1,3.056,9.846,5.839,14.042l-11.477,11.477
		C205.674,466.19,201.942,457.473,200.581,448z M136.57,336h16.257c1,4.935,2.93,9.718,5.801,14.058l-11.48,11.48
		C141.51,354.031,137.892,345.295,136.57,336z M72.581,224h16.224c1.039,5.1,3.056,9.846,5.839,14.042l-11.477,11.477
		C77.674,242.19,73.942,233.473,72.581,224z M83.167,182.481l11.477,11.477c-2.783,4.197-4.8,8.943-5.839,14.042H72.581
		C73.942,198.527,77.674,189.81,83.167,182.481z M183.419,208h-16.224c-1.039-5.1-3.056-9.846-5.839-14.042l11.477-11.477
		C178.326,189.81,182.058,198.527,183.419,208z M408,216c0,13.233-10.767,24-24,24s-24-10.767-24-24s10.767-24,24-24
		S408,202.767,408,216z M320,352c-13.233,0-24-10.767-24-24s10.767-24,24-24s24,10.767,24,24S333.233,352,320,352z M256,464
		c-13.233,0-24-10.767-24-24s10.767-24,24-24s24,10.767,24,24S269.233,464,256,464z M175.029,344.971
		c-9.357-9.358-9.357-24.583,0-33.941c4.679-4.679,10.825-7.018,16.971-7.018s12.292,2.339,16.971,7.018
		c9.357,9.358,9.357,24.583,0,33.941C199.613,354.328,184.387,354.328,175.029,344.971z M128,240c-13.233,0-24-10.767-24-24
		s10.767-24,24-24s24,10.767,24,24S141.233,240,128,240z M167.195,224h16.224c-1.361,9.473-5.093,18.19-10.587,25.519
		l-11.477-11.477C164.139,233.846,166.156,229.1,167.195,224z M216.827,224c1,4.935,2.93,9.718,5.801,14.058l-11.48,11.48
		c-5.638-7.507-9.257-16.244-10.578-25.538H216.827z M311.43,224c-1.322,9.295-4.94,18.031-10.578,25.538l-11.48-11.48
		c2.871-4.341,4.801-9.123,5.801-14.058H311.43z M297.958,294.644l-11.477-11.477c7.329-5.494,16.047-9.225,25.519-10.587v16.224
		C306.901,289.844,302.154,291.861,297.958,294.644z M264.581,320c1.361-9.473,5.093-18.19,10.587-25.519l11.477,11.477
		c-2.783,4.197-4.8,8.943-5.839,14.042H264.581z M256,368c-1.421,0-2.829,0.053-4.23,0.134c1.565-2.329,2.979-4.729,4.243-7.188
		c1.282,2.481,2.689,4.887,4.241,7.19C258.845,368.054,257.429,368,256,368z M231.173,320c-1-4.935-2.93-9.718-5.801-14.058
		l11.48-11.48c5.638,7.507,9.257,16.244,10.578,25.538H231.173z M256,192.011c6.146,0,12.292,2.339,16.971,7.018
		c9.357,9.358,9.357,24.583,0,33.941c-9.357,9.357-24.584,9.357-33.941,0c-9.357-9.358-9.357-24.583,0-33.941
		C243.708,194.351,249.854,192.011,256,192.011z M255.09,287.945c0.299,0.034,0.602,0.055,0.91,0.055s0.611-0.021,0.91-0.055
		c1.124-0.014,2.247-0.053,3.369-0.119c-1.562,2.314-2.976,4.734-4.266,7.228c-1.271-2.473-2.694-4.885-4.27-7.227
		C252.858,287.892,253.974,287.931,255.09,287.945z M264,271.43v-16.257c4.935-1,9.718-2.93,14.058-5.801l11.48,11.48
		C282.031,266.49,273.295,270.108,264,271.43z M233.942,249.372c4.341,2.871,9.123,4.801,14.058,5.801v16.257
		c-9.295-1.322-18.031-4.94-25.538-10.578L233.942,249.372z M192.908,256.055C192.61,256.021,192.307,256,192,256
		s-0.61,0.021-0.908,0.055c-1.124,0.014-2.248,0.053-3.371,0.119c1.562-2.314,2.976-4.734,4.266-7.228
		c1.271,2.473,2.694,4.885,4.27,7.226C195.141,256.107,194.025,256.069,192.908,256.055z M200,272.57
		c9.295,1.322,18.031,4.94,25.538,10.578l-11.48,11.48c-4.341-2.871-9.123-4.801-14.058-5.801V272.57z M320,256
		c-1.421,0-2.829,0.053-4.23,0.134c1.565-2.329,2.979-4.729,4.243-7.188c1.282,2.481,2.689,4.887,4.241,7.19
		C322.845,256.054,321.429,256,320,256z M278.058,182.628c-4.341-2.871-9.123-4.801-14.058-5.801V160.57
		c9.295,1.322,18.031,4.94,25.538,10.578L278.058,182.628z M248,176.827c-4.935,1-9.718,2.93-14.058,5.801l-11.48-11.48
		c7.507-5.638,16.244-9.257,25.538-10.578V176.827z M184,272.57v16.257c-4.935,1-9.718,2.93-14.058,5.801l-11.48-11.48
		C165.969,277.51,174.705,273.892,184,272.57z M231.173,336h16.257c-1.322,9.295-4.94,18.031-10.578,25.538l-11.48-11.48
		C228.243,345.718,230.173,340.935,231.173,336z M248,384.581v16.224c-5.099,1.039-9.846,3.056-14.042,5.839l-11.477-11.477
		C229.81,389.674,238.527,385.942,248,384.581z M278.042,406.644c-4.197-2.783-8.943-4.8-14.042-5.839v-16.224
		c9.473,1.361,18.19,5.093,25.519,10.587L278.042,406.644z M275.167,361.519c-5.494-7.329-9.225-16.046-10.587-25.519h16.224
		c1.039,5.1,3.056,9.846,5.839,14.042L275.167,361.519z M342.042,294.644c-4.197-2.783-8.943-4.8-14.042-5.839v-16.224
		c9.473,1.361,18.19,5.093,25.519,10.587L342.042,294.644z M339.167,249.519c-5.494-7.329-9.225-16.046-10.587-25.519h16.224
		c1.039,5.1,3.056,9.846,5.839,14.042L339.167,249.519z M376,176.805c-5.099,1.039-9.846,3.056-14.042,5.839l-11.477-11.477
		c7.329-5.494,16.047-9.225,25.519-10.587V176.805z M339.167,182.481l11.477,11.477c-2.783,4.197-4.8,8.943-5.839,14.042h-16.224
		C329.942,198.527,333.674,189.81,339.167,182.481z M295.173,208c-1-4.935-2.93-9.718-5.801-14.058l11.48-11.48
		c5.638,7.507,9.257,16.244,10.578,25.538H295.173z M211.148,182.462l11.48,11.48c-2.871,4.341-4.801,9.123-5.801,14.058H200.57
		C201.892,198.705,205.51,189.969,211.148,182.462z M150.042,182.644c-4.197-2.783-8.943-4.8-14.042-5.839v-16.224
		c9.473,1.361,18.19,5.093,25.519,10.587L150.042,182.644z M120,176.805c-5.099,1.039-9.846,3.056-14.042,5.839l-11.477-11.477
		c7.329-5.494,16.046-9.225,25.519-10.587V176.805z M105.958,249.356c4.197,2.783,8.943,4.8,14.042,5.839v16.224
		c-9.473-1.361-18.19-5.093-25.519-10.587L105.958,249.356z M136,255.195c5.099-1.039,9.846-3.056,14.042-5.839l11.477,11.477
		c-7.329,5.494-16.046,9.225-25.519,10.587V255.195z M147.148,294.462l11.48,11.48c-2.871,4.341-4.801,9.123-5.801,14.058H136.57
		C137.892,310.705,141.51,301.969,147.148,294.462z M169.942,361.372c4.341,2.871,9.123,4.801,14.058,5.801v16.257
		c-9.295-1.322-18.031-4.94-25.538-10.578L169.942,361.372z M200,367.173c4.935-1,9.718-2.93,14.058-5.801l11.48,11.48
		c-7.507,5.638-16.244,9.257-25.538,10.578V367.173z M211.167,406.481l11.477,11.477c-2.783,4.197-4.8,8.943-5.839,14.042h-16.224
		C201.942,422.527,205.674,413.81,211.167,406.481z M233.958,473.356c4.197,2.783,8.943,4.8,14.042,5.839v16.224
		c-9.473-1.361-18.19-5.093-25.519-10.587L233.958,473.356z M264,479.195c5.099-1.039,9.846-3.056,14.042-5.839l11.477,11.477
		c-7.329,5.494-16.047,9.225-25.519,10.587V479.195z M295.195,432c-1.039-5.1-3.056-9.846-5.839-14.042l11.477-11.477
		c5.494,7.329,9.225,16.046,10.587,25.519H295.195z M328,367.195c5.099-1.039,9.846-3.056,14.042-5.839l11.477,11.477
		c-7.329,5.494-16.047,9.225-25.519,10.587V367.195z M359.195,320c-1.039-5.1-3.056-9.846-5.839-14.042l11.477-11.477
		c5.494,7.329,9.225,16.046,10.587,25.519H359.195z M392,255.195c5.099-1.039,9.846-3.056,14.042-5.839l11.477,11.477
		c-7.329,5.494-16.047,9.225-25.519,10.587V255.195z M406.042,182.644c-4.197-2.783-8.943-4.8-14.042-5.839v-16.224
		c9.473,1.361,18.19,5.093,25.519,10.587L406.042,182.644z M333.77,164.485c-0.235,0.187-0.464,0.386-0.681,0.603
		c-0.218,0.218-0.417,0.447-0.604,0.682c-4.964,5.09-9.177,10.91-12.471,17.283c-3.326-6.474-7.685-12.549-13.101-17.965
		c-1.815-1.815-3.707-3.508-5.66-5.088h37.563C337.063,161.416,335.381,162.914,333.77,164.485z M205.088,165.088
		c-5.416,5.416-9.775,11.491-13.101,17.965c-3.295-6.373-7.507-12.193-12.471-17.283c-0.187-0.235-0.386-0.464-0.604-0.682
		c-0.217-0.218-0.446-0.416-0.681-0.603c-1.611-1.572-3.293-3.069-5.045-4.485h37.563
		C208.795,161.581,206.904,163.273,205.088,165.088z M456,144H56c-4.411,0-8-3.589-8-8s3.589-8,8-8h400c4.411,0,8,3.589,8,8
		S460.411,144,456,144z"/>
	<path d="M250.343,229.657c2.047,0,4.095-0.781,5.657-2.343L267.313,216c3.125-3.124,3.125-8.189,0-11.313
		c-3.124-3.124-8.189-3.124-11.313,0L244.687,216c-3.125,3.124-3.125,8.189,0,11.313
		C246.249,228.875,248.296,229.657,250.343,229.657z"/>
	<path d="M376,208v16c0,4.418,3.582,8,8,8s8-3.582,8-8v-16c0-4.418-3.582-8-8-8S376,203.582,376,208z"/>
	<path d="M128,200c-4.418,0-8,3.582-8,8v16c0,4.418,3.582,8,8,8s8-3.582,8-8v-16C136,203.582,132.418,200,128,200z"/>
	<path d="M320,312c-4.418,0-8,3.582-8,8v16c0,4.418,3.582,8,8,8s8-3.582,8-8v-16C328,315.582,324.418,312,320,312z"/>
	<path d="M192,316.687c-3.124-3.124-8.189-3.124-11.313,0c-3.125,3.124-3.125,8.189,0,11.313L192,339.313
		c1.562,1.562,3.609,2.343,5.657,2.343s4.095-0.781,5.657-2.343c3.125-3.124,3.125-8.189,0-11.313L192,316.687z"/>
	<path d="M264,432h-16c-4.418,0-8,3.582-8,8s3.582,8,8,8h16c4.418,0,8-3.582,8-8S268.418,432,264,432z"/>
</g>
<g>
</g>
<g>
</g>
<g>
</g>
<g>
</g>
<g>
</g>
<g>
</g>
<g>
</g>
<g>
</g>
<g>
</g>
<g>
</g>
<g>
</g>
<g>
</g>
<g>
</g>
<g>
</g>
<g>
</g>
</svg>
