<?xml version="1.0" encoding="iso-8859-1"?>
<!-- Generator: Adobe Illustrator 17.1.0, SVG Export Plug-In . SVG Version: 6.00 Build 0)  -->
<!DOCTYPE svg PUBLIC "-//W3C//DTD SVG 1.1//EN" "http://www.w3.org/Graphics/SVG/1.1/DTD/svg11.dtd">
<svg version="1.1" id="Capa_1" xmlns="http://www.w3.org/2000/svg" xmlns:xlink="http://www.w3.org/1999/xlink" x="0px" y="0px"
	 viewBox="0 0 512 512" style="enable-background:new 0 0 512 512;" xml:space="preserve">
<g>
	<path d="M500.161,264.568C502.709,256.688,504,248.465,504,240c0-44.112-35.888-80-80-80s-80,35.888-80,80
		c0,8.262,1.233,16.293,3.661,24h-15.323c2.428-7.708,3.661-15.738,3.661-24c0-44.112-35.888-80-80-80s-80,35.888-80,80
		c0,8.262,1.233,16.293,3.661,24h-15.323c2.428-7.708,3.661-15.738,3.661-24c0-44.112-35.888-80-80-80S8,195.888,8,240
		c0,8.465,1.291,16.688,3.839,24.568C5.031,266.407,0,272.619,0,280v56c0,8.822,7.178,16,16,16h480c8.822,0,16-7.178,16-16v-56
		C512,272.619,506.969,266.407,500.161,264.568z M360,240c0-35.29,28.71-64,64-64s64,28.71,64,64c0,8.351-1.584,16.398-4.671,24
		h-17.713c4.146-7.171,6.384-15.386,6.384-24c0-26.467-21.533-48-48-48s-48,21.533-48,48c0,8.613,2.239,16.828,6.386,24h-17.714
		C361.584,256.399,360,248.352,360,240z M402.847,264C395.929,257.92,392,249.31,392,240c0-17.645,14.355-32,32-32s32,14.355,32,32
		c0,9.312-3.929,17.92-10.847,24H402.847z M192,240c0-35.29,28.71-64,64-64s64,28.71,64,64c0,8.351-1.584,16.398-4.671,24h-17.713
		c4.146-7.171,6.384-15.386,6.384-24c0-26.467-21.533-48-48-48s-48,21.533-48,48c0,8.613,2.239,16.828,6.386,24h-17.714
		C193.584,256.399,192,248.352,192,240z M234.847,264C227.929,257.92,224,249.31,224,240c0-17.645,14.355-32,32-32s32,14.355,32,32
		c0,9.312-3.929,17.92-10.847,24H234.847z M88,176c35.29,0,64,28.71,64,64c0,8.351-1.584,16.398-4.671,24h-17.713
		c4.146-7.171,6.384-15.386,6.384-24c0-26.467-21.533-48-48-48s-48,21.533-48,48c0,8.613,2.239,16.828,6.386,24H28.672
		C25.584,256.399,24,248.352,24,240C24,204.71,52.71,176,88,176z M66.847,264C59.929,257.92,56,249.31,56,240
		c0-17.645,14.355-32,32-32s32,14.355,32,32c0,9.312-3.929,17.92-10.847,24H66.847z M496,336H16v-56h6.839
		c0.224,0.019,0.448,0.046,0.674,0.046c0.272,0,0.544-0.018,0.817-0.046h166.51c0.224,0.019,0.448,0.046,0.674,0.046
		c0.272,0,0.544-0.018,0.817-0.046h166.51c0.224,0.019,0.448,0.046,0.674,0.046c0.272,0,0.544-0.018,0.817-0.046H496l0.01,56
		C496.01,336,496.007,336,496,336z"/>
	<path d="M285.336,296.897C276.216,301.61,266.346,304,256,304c-9.995,0-19.563-2.237-28.438-6.648
		c-3.957-1.966-8.758-0.353-10.725,3.604c-1.966,3.957-0.353,8.758,3.604,10.725c11.108,5.521,23.072,8.32,35.56,8.32
		c12.745,0,25.429-3.073,36.681-8.888c3.925-2.028,5.463-6.855,3.435-10.78C294.087,296.407,289.26,294.87,285.336,296.897z"/>
	<path d="M117.336,296.897C108.216,301.61,98.346,304,88,304c-9.995,0-19.563-2.237-28.438-6.648
		c-3.956-1.966-8.758-0.353-10.725,3.604c-1.966,3.957-0.353,8.758,3.604,10.725C63.549,317.201,75.513,320,88,320
		c12.745,0,25.429-3.073,36.681-8.888c3.925-2.028,5.463-6.855,3.435-10.78C126.087,296.407,121.261,294.87,117.336,296.897z"/>
	<path d="M453.336,296.897C444.216,301.61,434.346,304,424,304c-9.995,0-19.563-2.237-28.438-6.648
		c-3.957-1.966-8.757-0.353-10.725,3.604c-1.966,3.957-0.353,8.758,3.604,10.725c11.108,5.521,23.072,8.32,35.56,8.32
		c12.745,0,25.429-3.073,36.681-8.888c3.925-2.028,5.463-6.855,3.435-10.78C462.087,296.407,457.26,294.87,453.336,296.897z"/>
	<path d="M253.657,226.343c-3.124-3.124-8.189-3.124-11.313,0c-3.125,3.124-3.125,8.189,0,11.313l16,16
		c1.562,1.562,3.609,2.343,5.657,2.343s4.095-0.781,5.657-2.343c3.125-3.124,3.125-8.189,0-11.313L253.657,226.343z"/>
	<path d="M88,224c-4.418,0-8,3.582-8,8v16c0,4.418,3.582,8,8,8s8-3.582,8-8v-16C96,227.582,92.418,224,88,224z"/>
	<path d="M432,232h-16c-4.418,0-8,3.582-8,8s3.582,8,8,8h16c4.418,0,8-3.582,8-8S436.418,232,432,232z"/>
</g>
<g>
</g>
<g>
</g>
<g>
</g>
<g>
</g>
<g>
</g>
<g>
</g>
<g>
</g>
<g>
</g>
<g>
</g>
<g>
</g>
<g>
</g>
<g>
</g>
<g>
</g>
<g>
</g>
<g>
</g>
</svg>
