<?xml version="1.0" encoding="iso-8859-1"?>
<!-- Generator: Adobe Illustrator 17.1.0, SVG Export Plug-In . SVG Version: 6.00 Build 0)  -->
<!DOCTYPE svg PUBLIC "-//W3C//DTD SVG 1.1//EN" "http://www.w3.org/Graphics/SVG/1.1/DTD/svg11.dtd">
<svg version="1.1" id="Capa_1" xmlns="http://www.w3.org/2000/svg" xmlns:xlink="http://www.w3.org/1999/xlink" x="0px" y="0px"
	 viewBox="0 0 512 512" style="enable-background:new 0 0 512 512;" xml:space="preserve">
<g>
	<path d="M446.699,173.531c-2.078-4.596-4.041-8.937-4.838-12.97c-0.844-4.267-0.693-9.162-0.533-14.346
		c0.249-8.04,0.505-16.354-2.789-24.298c-3.358-8.098-9.757-14.091-15.402-19.378c-3.725-3.489-7.243-6.784-9.583-10.278
		c-2.377-3.551-4.099-8.098-5.922-12.911c-2.859-7.549-5.816-15.355-11.951-21.49c-6.136-6.137-13.942-9.094-21.491-11.953
		c-4.813-1.824-9.36-3.546-12.911-5.923c-3.495-2.34-6.79-5.858-10.278-9.584c-5.288-5.646-11.281-12.047-19.38-15.405
		c-7.945-3.295-16.26-3.04-24.301-2.79c-5.183,0.159-10.08,0.312-14.347-0.533c-4.034-0.798-8.375-2.761-12.972-4.839
		C272.918,3.63,264.889,0,256,0c-8.889,0-16.916,3.63-23.999,6.832c-4.596,2.078-8.938,4.041-12.972,4.839
		c-4.267,0.844-9.162,0.691-14.346,0.533c-8.04-0.249-16.353-0.505-24.296,2.789c-8.099,3.357-14.092,9.757-19.379,15.402
		c-3.488,3.726-6.783,7.243-10.277,9.582c-3.55,2.377-8.097,4.1-12.911,5.923c-7.549,2.859-15.355,5.815-21.492,11.951
		c-6.136,6.136-9.093,13.941-11.953,21.49c-1.824,4.813-3.546,9.361-5.923,12.911c-2.34,3.494-5.858,6.79-9.583,10.278
		c-5.646,5.287-12.046,11.28-15.405,19.38c-3.295,7.944-3.039,16.26-2.791,24.301c0.16,5.184,0.311,10.08-0.533,14.348
		c-0.798,4.033-2.761,8.374-4.839,12.97c-3.203,7.084-6.833,15.112-6.833,24.002c0,8.889,3.63,16.917,6.833,24
		c2.078,4.596,4.041,8.938,4.838,12.971c0.844,4.266,0.693,9.162,0.533,14.346c-0.248,8.04-0.505,16.354,2.789,24.297
		c3.358,8.098,9.757,14.091,15.402,19.378c3.725,3.489,7.243,6.784,9.583,10.278c2.377,3.551,4.099,8.098,5.922,12.911
		c2.859,7.549,5.816,15.355,11.951,21.49c2.31,2.31,4.856,4.169,7.537,5.743l-35.688,98.053c-2.804,7.703-1.534,16.212,3.398,22.761
		c4.931,6.549,12.752,10.119,21.016,9.547l51.06-4.052l36.567,35.981c4.558,4.395,10.542,6.765,16.709,6.765
		c1.817,0,3.651-0.206,5.469-0.626c7.987-1.847,14.43-7.549,17.233-15.252l16.093-44.216l16.093,44.216
		c2.804,7.703,9.246,13.405,17.233,15.252c1.815,0.419,3.646,0.625,5.461,0.625c6.173,0,12.171-2.38,16.774-6.82l36.51-35.925
		l51.139,4.058c8.179,0.572,16.004-3.004,20.937-9.553c4.932-6.549,6.202-15.057,3.398-22.761l-35.59-97.783
		c2.85-1.629,5.559-3.562,8-6.003c6.136-6.136,9.093-13.942,11.953-21.491c1.824-4.813,3.546-9.36,5.923-12.911
		c2.339-3.494,5.858-6.79,9.583-10.278c5.646-5.288,12.046-11.281,15.404-19.38c3.295-7.944,3.039-16.259,2.791-24.3
		c-0.16-5.185-0.311-10.081,0.534-14.348c0.798-4.034,2.761-8.376,4.839-12.972c3.202-7.084,6.832-15.112,6.832-24.001
		S449.902,180.614,446.699,173.531z M224.586,490.649c-0.958,2.633-3.073,4.505-5.803,5.136c-2.729,0.629-5.451-0.123-7.41-2.011
		l-39.113-38.486c-1.653-1.627-3.931-2.456-6.244-2.272l-54.621,4.335c-2.791,0.191-5.364-0.978-7.049-3.217
		c-1.685-2.237-2.102-5.031-1.144-7.663l35.321-97.043c4.547,1.725,8.824,3.393,12.197,5.652c3.495,2.34,6.79,5.858,10.278,9.584
		c5.288,5.646,11.281,12.046,19.38,15.404c7.945,3.295,16.26,3.037,24.301,2.791c5.184-0.159,10.08-0.312,14.347,0.533
		c4.034,0.798,8.375,2.761,12.971,4.839c7.083,3.202,15.112,6.832,24.001,6.832c1.163,0,2.31-0.065,3.442-0.18L224.586,490.649z
		 M407.082,454.134c-1.685,2.237-4.25,3.401-6.969,3.223l-54.7-4.341c-2.311-0.193-4.59,0.646-6.244,2.272l-39.056,38.43
		c-2.016,1.944-4.738,2.698-7.467,2.067s-4.845-2.503-5.803-5.136l-22.615-62.134l14.444-39.686
		c0.446-0.201,0.889-0.401,1.328-0.599c4.596-2.078,8.937-4.041,12.97-4.839c4.266-0.844,9.161-0.691,14.345-0.532
		c8.04,0.25,16.354,0.505,24.298-2.789c8.098-3.358,14.09-9.757,19.377-15.402c3.489-3.725,6.784-7.243,10.279-9.583
		c3.251-2.177,7.343-3.805,11.706-5.465l35.25,96.85C409.184,449.103,408.767,451.896,407.082,454.134z M432.12,214.94
		c-2.36,5.22-4.8,10.617-5.955,16.458c-1.197,6.049-1.011,12.097-0.831,17.945c0.205,6.642,0.398,12.915-1.578,17.679
		c-2.036,4.909-6.663,9.242-11.562,13.83c-4.22,3.951-8.583,8.038-11.942,13.057c-3.396,5.071-5.528,10.7-7.59,16.144
		c-2.365,6.243-4.599,12.141-8.304,15.845c-3.705,3.704-9.601,5.938-15.844,8.303c-5.444,2.062-11.074,4.193-16.146,7.589
		c-5.019,3.359-9.104,7.723-13.056,11.942c-4.587,4.897-8.919,9.523-13.828,11.56c-4.763,1.975-11.036,1.782-17.675,1.576
		c-5.849-0.182-11.896-0.367-17.944,0.829c-5.84,1.155-11.237,3.596-16.456,5.955c-1.468,0.664-2.916,1.317-4.344,1.93
		c-0.05,0.022-0.102,0.042-0.151,0.065c-4.507,1.925-8.816,3.416-12.913,3.416c-5.44,0-11.255-2.629-17.41-5.411
		c-5.219-2.359-10.616-4.8-16.457-5.955c-3.844-0.761-7.687-0.963-11.478-0.963c-2.176,0-4.335,0.066-6.467,0.133
		c-6.643,0.202-12.915,0.398-17.678-1.578c-4.91-2.036-9.244-6.663-13.832-11.563c-3.951-4.219-8.037-8.582-13.055-11.941
		c-5.071-3.396-10.7-5.528-16.144-7.59c-6.243-2.365-12.141-4.6-15.845-8.305s-5.938-9.602-8.303-15.845
		c-2.062-5.443-4.194-11.073-7.589-16.145c-3.359-5.019-7.722-9.104-11.941-13.056c-4.898-4.587-9.524-8.92-11.56-13.829
		c-1.975-4.763-1.781-11.034-1.576-17.674c0.181-5.849,0.367-11.896-0.829-17.945c-1.156-5.841-3.596-11.237-5.956-16.457
		c-2.783-6.155-5.412-11.969-5.412-17.408c0-5.44,2.629-11.255,5.412-17.41c2.36-5.219,4.8-10.615,5.956-16.456
		c1.196-6.05,1.01-12.098,0.83-17.946c-0.205-6.642-0.398-12.914,1.578-17.679c2.036-4.909,6.664-9.243,11.563-13.83
		c4.219-3.951,8.582-8.037,11.941-13.055c3.396-5.072,5.528-10.701,7.591-16.146c2.365-6.243,4.599-12.14,8.304-15.844
		c3.705-3.705,9.602-5.938,15.846-8.304c5.443-2.062,11.072-4.193,16.144-7.589c5.018-3.359,9.104-7.722,13.055-11.94
		c4.587-4.898,8.92-9.525,13.829-11.561c4.763-1.976,11.036-1.781,17.674-1.576c5.848,0.179,11.896,0.367,17.944-0.83
		c5.842-1.155,11.239-3.596,16.459-5.955C244.747,18.628,250.561,16,256,16c5.44,0,11.254,2.629,17.409,5.412
		c5.22,2.359,10.617,4.8,16.458,5.955c6.05,1.197,12.097,1.01,17.946,0.83c6.642-0.207,12.915-0.398,17.678,1.577
		c4.91,2.036,9.243,6.663,13.831,11.563c3.951,4.22,8.037,8.582,13.056,11.942c5.072,3.396,10.701,5.528,16.144,7.59
		c6.243,2.365,12.14,4.599,15.845,8.305c3.705,3.704,5.938,9.601,8.302,15.844c2.062,5.444,4.194,11.073,7.589,16.145
		c3.359,5.019,7.722,9.104,11.941,13.056c4.898,4.587,9.524,8.92,11.56,13.829c1.975,4.763,1.781,11.034,1.576,17.675
		c-0.181,5.849-0.368,11.896,0.829,17.945c1.155,5.841,3.595,11.237,5.955,16.456c2.783,6.155,5.412,11.969,5.412,17.408
		C437.531,202.972,434.903,208.785,432.12,214.94z"/>
	<path d="M134.957,197.531c0-66.743,54.3-121.043,121.043-121.043c18.579,0,36.401,4.096,52.971,12.175
		c3.971,1.934,8.761,0.285,10.697-3.686c1.936-3.972,0.286-8.761-3.685-10.697C297.211,65.129,277.03,60.488,256,60.488
		c-75.566,0-137.043,61.478-137.043,137.043c0,31.06,10.68,61.484,30.071,85.669c1.58,1.971,3.902,2.995,6.246,2.995
		c1.756,0,3.523-0.575,5-1.759c3.447-2.764,4.001-7.799,1.237-11.246C144.139,251.525,134.957,225.363,134.957,197.531z"/>
	<path d="M368.594,133.933c-3.973,1.934-5.625,6.722-3.691,10.694c8.056,16.551,12.141,34.351,12.141,52.904
		c0,66.743-54.299,121.043-121.042,121.043c-27.828,0-53.987-9.18-75.652-26.548c-3.447-2.764-8.482-2.209-11.246,1.238
		s-2.209,8.482,1.238,11.246c24.184,19.387,54.604,30.063,85.66,30.063c75.565,0,137.042-61.478,137.042-137.043
		c0-21.001-4.628-41.156-13.755-59.906C377.354,133.652,372.567,131.998,368.594,133.933z"/>
	<path d="M336.037,106.726c3.79,3.343,7.41,6.962,10.76,10.758c1.582,1.791,3.786,2.706,6.001,2.706c1.881,0,3.77-0.659,5.291-2.002
		c3.313-2.924,3.628-7.979,0.704-11.292c-3.79-4.293-7.885-8.388-12.172-12.17c-3.313-2.921-8.369-2.605-11.292,0.708
		S332.723,103.803,336.037,106.726z"/>
	<path d="M256.676,141.01c17.824,0,32.326,10.884,32.326,24.261c0,4.418,3.582,8,8,8s8-3.582,8-8
		c0-19.929-17.474-36.513-40.326-39.699v-8.692c0-4.418-3.582-8-8-8s-8,3.582-8,8v8.692c-22.852,3.186-40.326,19.77-40.326,39.699
		c0,22.2,21.679,40.261,48.326,40.261c17.824,0,32.326,10.884,32.326,24.261s-14.501,24.261-32.326,24.261
		c-17.825,0-32.326-10.884-32.326-24.261c0-4.418-3.582-8-8-8s-8,3.582-8,8c0,19.929,17.475,36.513,40.326,39.699v8.693
		c0,4.418,3.582,8,8,8s8-3.582,8-8v-8.693c22.852-3.186,40.326-19.77,40.326-39.699c0-22.2-21.679-40.261-48.326-40.261
		c-17.825,0-32.326-10.884-32.326-24.261S238.851,141.01,256.676,141.01z"/>
</g>
<g>
</g>
<g>
</g>
<g>
</g>
<g>
</g>
<g>
</g>
<g>
</g>
<g>
</g>
<g>
</g>
<g>
</g>
<g>
</g>
<g>
</g>
<g>
</g>
<g>
</g>
<g>
</g>
<g>
</g>
</svg>
