<?xml version="1.0" encoding="iso-8859-1"?>
<!-- Generator: Adobe Illustrator 17.1.0, SVG Export Plug-In . SVG Version: 6.00 Build 0)  -->
<!DOCTYPE svg PUBLIC "-//W3C//DTD SVG 1.1//EN" "http://www.w3.org/Graphics/SVG/1.1/DTD/svg11.dtd">
<svg version="1.1" id="Capa_1" xmlns="http://www.w3.org/2000/svg" xmlns:xlink="http://www.w3.org/1999/xlink" x="0px" y="0px"
	 viewBox="0 0 512 512" style="enable-background:new 0 0 512 512;" xml:space="preserve">
<g>
	<path d="M416,0H96C73.944,0,56,17.701,56,39.458V472v15.985C56,501.228,66.773,512,80.015,512h15.971
		C109.227,512,120,501.228,120,487.985V480h272v7.985C392,501.228,402.773,512,416.015,512h15.971
		C445.227,512,456,501.228,456,487.985V472V39.458C456,17.701,438.056,0,416,0z M72,39.458C72,26.523,82.767,16,96,16h320
		c13.233,0,24,10.523,24,23.458V464H72V39.458z M104,487.985c0,4.419-3.595,8.015-8.015,8.015H80.015
		c-4.419,0-8.015-3.596-8.015-8.015V480h32V487.985z M431.985,496h-15.971c-4.419,0-8.015-3.596-8.015-8.015V480h32v7.985
		C440,492.404,436.405,496,431.985,496z"/>
	<path d="M400,432c4.418,0,8-3.582,8-8V56c0-4.418-3.582-8-8-8H112c-4.418,0-8,3.582-8,8v17.376C94.689,76.679,88,85.571,88,96v16
		c0,13.233,10.766,24,24,24s24-10.767,24-24V96c0-10.429-6.689-19.321-16-22.624V64h272v96.805c-18.236,3.717-32,19.878-32,39.195
		v80c0,19.317,13.764,35.479,32,39.195V416H120v-9.376c9.311-3.302,16-12.195,16-22.624v-16c0-10.429-6.689-19.321-16-22.624V160
		c0-4.418-3.582-8-8-8s-8,3.582-8,8v185.376c-9.311,3.302-16,12.195-16,22.624v16c0,10.429,6.689,19.321,16,22.624V424
		c0,4.418,3.582,8,8,8H400z M120,112c0,4.411-3.589,8-8,8s-8-3.589-8-8V96c0-4.411,3.589-8,8-8s8,3.589,8,8V112z M376,280v-80
		c0-10.429,6.689-19.321,16-22.624v125.248C382.689,299.321,376,290.429,376,280z M104,368c0-4.411,3.589-8,8-8s8,3.589,8,8v16
		c0,4.411-3.589,8-8,8s-8-3.589-8-8V368z"/>
	<path d="M320,240c0-35.29-28.71-64-64-64s-64,28.71-64,64s28.71,64,64,64S320,275.29,320,240z M208,240c0-26.468,21.533-48,48-48
		s48,21.532,48,48s-21.533,48-48,48S208,266.468,208,240z"/>
	<path d="M288,240c0-4.418-3.582-8-8-8s-8,3.582-8,8c0,8.822-7.178,16-16,16s-16-7.178-16-16s7.178-16,16-16c4.418,0,8-3.582,8-8
		s-3.582-8-8-8c-17.645,0-32,14.355-32,32s14.355,32,32,32S288,257.645,288,240z"/>
</g>
<g>
</g>
<g>
</g>
<g>
</g>
<g>
</g>
<g>
</g>
<g>
</g>
<g>
</g>
<g>
</g>
<g>
</g>
<g>
</g>
<g>
</g>
<g>
</g>
<g>
</g>
<g>
</g>
<g>
</g>
</svg>
