<?xml version="1.0" encoding="iso-8859-1"?>
<!-- Generator: Adobe Illustrator 17.1.0, SVG Export Plug-In . SVG Version: 6.00 Build 0)  -->
<!DOCTYPE svg PUBLIC "-//W3C//DTD SVG 1.1//EN" "http://www.w3.org/Graphics/SVG/1.1/DTD/svg11.dtd">
<svg version="1.1" id="Capa_1" xmlns="http://www.w3.org/2000/svg" xmlns:xlink="http://www.w3.org/1999/xlink" x="0px" y="0px"
	 viewBox="0 0 512 512" style="enable-background:new 0 0 512 512;" xml:space="preserve">
<g>
	<path d="M508.706,249.53C426.102,189.455,322.544,85.897,262.47,3.295C260.964,1.225,258.56,0,256,0s-4.964,1.225-6.47,3.295
		C189.456,85.897,85.898,189.455,3.294,249.53C1.225,251.035,0,253.44,0,256s1.225,4.965,3.294,6.47
		c82.604,60.076,186.161,163.633,246.236,246.235c1.505,2.07,3.91,3.295,6.47,3.295s4.964-1.225,6.47-3.295
		c60.075-82.603,163.632-186.16,246.236-246.235c2.07-1.505,3.294-3.91,3.294-6.47S510.775,251.035,508.706,249.53z M256,490.539
		C196.51,411.246,100.754,315.49,21.461,256C100.754,196.51,196.51,100.754,256,21.461C315.49,100.754,411.246,196.51,490.539,256
		C411.246,315.49,315.49,411.246,256,490.539z"/>
	<path d="M106.628,205.875c-17.425,15.799-34.637,30.569-51.158,43.899c-3.439,2.775-3.977,7.811-1.203,11.25
		c1.581,1.959,3.896,2.977,6.231,2.977c1.764,0,3.54-0.58,5.019-1.774c16.759-13.523,34.207-28.494,51.858-44.499
		c3.273-2.968,3.521-8.027,0.553-11.3C114.96,203.154,109.901,202.906,106.628,205.875z"/>
	<path d="M262.226,55.47c-2.774-3.438-7.811-3.977-11.25-1.202c-3.438,2.774-3.977,7.811-1.202,11.25
		c27.573,34.17,60.977,70.952,96.602,106.367c1.561,1.552,3.601,2.326,5.64,2.326c2.055,0,4.11-0.787,5.673-2.359
		c3.115-3.134,3.1-8.199-0.033-11.314C322.438,125.525,289.438,89.194,262.226,55.47z"/>
</g>
<g>
</g>
<g>
</g>
<g>
</g>
<g>
</g>
<g>
</g>
<g>
</g>
<g>
</g>
<g>
</g>
<g>
</g>
<g>
</g>
<g>
</g>
<g>
</g>
<g>
</g>
<g>
</g>
<g>
</g>
</svg>
