<?xml version="1.0" encoding="iso-8859-1"?>
<!-- Generator: Adobe Illustrator 17.1.0, SVG Export Plug-In . SVG Version: 6.00 Build 0)  -->
<!DOCTYPE svg PUBLIC "-//W3C//DTD SVG 1.1//EN" "http://www.w3.org/Graphics/SVG/1.1/DTD/svg11.dtd">
<svg version="1.1" id="Capa_1" xmlns="http://www.w3.org/2000/svg" xmlns:xlink="http://www.w3.org/1999/xlink" x="0px" y="0px"
	 viewBox="0 0 512 512" style="enable-background:new 0 0 512 512;" xml:space="preserve">
<g>
	<path d="M424,296h-14.916l4.562-20.529c1.059-4.763-0.085-9.677-3.138-13.482c-0.892-1.112-1.924-2.067-3.042-2.888
		c1.388-5.319,0.018-11.216-4.142-15.376l-16.971-16.97c-6.239-6.238-16.389-6.236-22.627,0l-0.558,0.558l-1.554-6.852
		c-1.951-8.604-10.539-14.018-19.143-12.065l-13.295,3.016c-4.612-15.874-11.004-33.106-17.774-51.316
		c-13.354-35.916-27.118-72.957-29.138-104.425C285.578,54.693,288,51.631,288,48V10c0-5.514-4.486-10-10-10h-44
		c-5.514,0-10,4.486-10,10v38c0,3.631,2.422,6.693,5.737,7.67c-2.021,31.468-15.784,68.509-29.138,104.425
		c-6.311,16.973-12.303,33.105-16.824,48.074c-0.434,0.062-0.869,0.128-1.304,0.227l-23.405,5.309
		c-4.16,0.942-7.708,3.456-9.99,7.078c-0.161,0.256-0.297,0.522-0.443,0.785c-6.191-3.97-14.538-3.26-19.947,2.149l-16.971,16.97
		c-4.462,4.462-5.714,10.919-3.794,16.521c-2.479,1.012-4.699,2.625-6.429,4.782c-3.053,3.806-4.197,8.72-3.138,13.482L102.916,296
		H88c-17.645,0-32,14.355-32,32c0,4.418,3.582,8,8,8s8-3.582,8-8c0-8.822,7.178-16,16-16h18.472l37.719,169.735
		c0.813,3.66,4.06,6.265,7.81,6.265h5.832l2.549,11.471C162.021,506.848,168.443,512,176,512h160
		c7.557,0,13.979-5.152,15.619-12.529L354.168,488H360c3.75,0,6.996-2.604,7.81-6.265L405.528,312H424c8.822,0,16,7.178,16,16
		c0,4.418,3.582,8,8,8s8-3.582,8-8C456,310.355,441.645,296,424,296z M375.039,238.069l16.971,16.97
		c-0.302,0.302-0.565,0.626-0.809,0.961h-32.324c-0.244-0.334-0.507-0.659-0.809-0.961L375.039,238.069z M346.01,224l3.784,16.686
		l-3.039,3.039c-3.364,3.364-4.897,7.864-4.633,12.275h-9.68c1.361-5.303-0.013-11.17-4.157-15.314l-4.009-4.009l-1.671-7.369
		L346.01,224z M287.03,256l-4-4L300,235.03L316.971,252l-4,4H287.03z M229.201,128h53.599c1.81,5.324,3.698,10.663,5.625,16h-9.895
		c-3.385,0-6.404,2.131-7.538,5.32C268.722,155.708,262.696,160,256,160s-12.722-4.292-14.993-10.68
		c-1.134-3.189-4.152-5.32-7.538-5.32h-9.895C225.503,138.663,227.391,133.324,229.201,128z M266.253,56
		c1.055,17.728,5.438,36.658,11.362,56h-43.231c5.924-19.342,10.307-38.272,11.362-56H266.253z M240,16h32v24h-32V16z
		 M215.596,165.671c0.702-1.887,1.404-3.778,2.107-5.671h10.688c5.645,9.758,16.129,16,27.61,16s21.965-6.242,27.61-16h10.688
		c0.702,1.892,1.405,3.783,2.106,5.67c6.675,17.955,12.976,34.939,17.427,50.273c-1.886,1.24-3.513,2.868-4.755,4.839
		c-0.161,0.256-0.297,0.522-0.443,0.785c-6.191-3.97-14.538-3.26-19.947,2.149l-16.971,16.97
		c-4.144,4.145-5.518,10.011-4.157,15.314h-19.602c0.263-4.412-1.27-8.912-4.633-12.275l-16.971-16.97
		c-6.239-6.238-16.389-6.236-22.627,0l-0.558,0.558l-1.554-6.852c-0.531-2.341-1.566-4.434-2.946-6.219
		C203.086,199.356,209.166,182.964,215.596,165.671z M198.877,256c-0.244-0.334-0.507-0.659-0.809-0.961l16.971-16.97l16.971,16.97
		c-0.302,0.302-0.565,0.626-0.809,0.961H198.877z M186.01,224l3.784,16.686l-3.039,3.039c-3.364,3.364-4.897,7.864-4.633,12.275
		h-9.68c1.361-5.303-0.013-11.17-4.157-15.314l-4.009-4.009l-1.671-7.369L186.01,224z M140,235.03L156.971,252l-4,4H127.03l-4-4
		L140,235.03z M353.583,472h-5.679c-0.029,0-0.057,0-0.086,0h-19.819c-4.418,0-8,3.582-8,8s3.582,8,8,8h9.779L336,496H176l-1.778-8
		h121.777c4.418,0,8-3.582,8-8s-3.582-8-8-8H158.417l-44.444-200h284.054L353.583,472z"/>
	<path d="M369.844,288.19c-4.314-0.959-8.587,1.761-9.545,6.074l-3.555,15.997c-0.958,4.313,1.761,8.586,6.074,9.545
		c0.584,0.13,1.168,0.192,1.743,0.192c3.667,0,6.974-2.538,7.802-6.267l3.555-15.997
		C376.876,293.423,374.157,289.149,369.844,288.19z"/>
	<path d="M359.178,336.188c-4.316-0.962-8.586,1.762-9.545,6.074l-23.112,104.003c-0.958,4.313,1.761,8.586,6.074,9.545
		c0.584,0.13,1.168,0.192,1.743,0.192c3.667,0,6.974-2.538,7.802-6.267l23.112-104.003
		C366.21,341.42,363.491,337.146,359.178,336.188z"/>
</g>
<g>
</g>
<g>
</g>
<g>
</g>
<g>
</g>
<g>
</g>
<g>
</g>
<g>
</g>
<g>
</g>
<g>
</g>
<g>
</g>
<g>
</g>
<g>
</g>
<g>
</g>
<g>
</g>
<g>
</g>
</svg>
