<?xml version="1.0" encoding="iso-8859-1"?>
<!-- Generator: Adobe Illustrator 17.1.0, SVG Export Plug-In . SVG Version: 6.00 Build 0)  -->
<!DOCTYPE svg PUBLIC "-//W3C//DTD SVG 1.1//EN" "http://www.w3.org/Graphics/SVG/1.1/DTD/svg11.dtd">
<svg version="1.1" id="Capa_1" xmlns="http://www.w3.org/2000/svg" xmlns:xlink="http://www.w3.org/1999/xlink" x="0px" y="0px"
	 viewBox="0 0 512 512" style="enable-background:new 0 0 512 512;" xml:space="preserve">
<g>
	<path d="M437.02,74.98C388.667,26.628,324.38,0,256,0S123.333,26.628,74.98,74.98S0,187.62,0,256s26.628,132.667,74.98,181.02
		S187.62,512,256,512s132.667-26.628,181.02-74.98S512,324.38,512,256S485.372,123.333,437.02,74.98z M467.829,369.062
		l-41.73-24.093c12.809-24.39,20.521-51.852,21.721-80.969h48.033C494.643,301.221,485.006,336.979,467.829,369.062z M248,447.821
		v48.033c-37.221-1.211-72.979-10.847-105.062-28.024l24.093-41.73C191.42,438.908,218.882,446.621,248,447.821z M264,447.821
		c29.118-1.2,56.58-8.913,80.969-21.721l24.093,41.73c-32.083,17.177-67.841,26.813-105.062,28.024V447.821z M256,432
		c-97.047,0-176-78.953-176-176S158.953,80,256,80s176,78.953,176,176S353.047,432,256,432z M16.146,264h48.033
		c1.2,29.118,8.913,56.58,21.721,80.969l-41.73,24.093C26.994,336.979,17.357,301.221,16.146,264z M44.171,142.938l41.73,24.093
		C73.092,191.42,65.379,218.882,64.179,248H16.146C17.357,210.779,26.994,175.021,44.171,142.938z M264,64.179V16.146
		c37.221,1.211,72.979,10.847,105.062,28.024L344.969,85.9C320.58,73.092,293.118,65.379,264,64.179z M248,64.179
		c-29.118,1.2-56.58,8.913-80.969,21.721l-24.093-41.73C175.021,26.994,210.779,17.357,248,16.146V64.179z M447.821,248
		c-1.2-29.118-8.913-56.58-21.721-80.969l41.73-24.093c17.177,32.083,26.813,67.841,28.024,105.062H447.821z M459.796,129.101
		l-41.714,24.083c-15.168-23.827-35.44-44.098-59.266-59.266l24.083-41.714c15.337,9.591,29.699,20.983,42.806,34.09
		C438.813,99.401,450.205,113.764,459.796,129.101z M86.294,86.294c13.107-13.107,27.47-24.5,42.806-34.09l24.083,41.714
		c-23.827,15.168-44.098,35.44-59.266,59.266l-41.714-24.083C61.795,113.764,73.187,99.401,86.294,86.294z M52.204,382.899
		l41.714-24.083c15.168,23.827,35.44,44.098,59.266,59.266l-24.083,41.714c-15.337-9.591-29.699-20.983-42.806-34.09
		C73.187,412.599,61.795,398.236,52.204,382.899z M425.706,425.706c-13.107,13.107-27.47,24.5-42.806,34.09l-24.083-41.714
		c23.827-15.168,44.098-35.44,59.266-59.266l41.714,24.083C450.205,398.236,438.813,412.599,425.706,425.706z"/>
	<path d="M362.101,158.641c1.578,1.719,3.733,2.59,5.895,2.59c1.933,0,3.872-0.697,5.408-2.107
		c3.255-2.988,3.471-8.049,0.483-11.303c-3.086-3.361-6.354-6.629-9.714-9.713c-3.254-2.987-8.315-2.771-11.303,0.484
		c-2.988,3.255-2.771,8.315,0.484,11.303C356.379,152.671,359.322,155.614,362.101,158.641z"/>
	<path d="M112,256c0-79.402,64.598-144,144-144c23.799,0,47.377,5.925,68.187,17.134c3.89,2.095,8.742,0.641,10.837-3.25
		c2.095-3.89,0.64-8.742-3.25-10.837C308.641,102.586,282.439,96,256,96c-88.224,0-160,71.776-160,160
		c0,36.744,12.766,72.633,35.947,101.056c1.582,1.939,3.883,2.944,6.205,2.944c1.777,0,3.566-0.59,5.051-1.801
		c3.424-2.792,3.936-7.832,1.144-11.256C123.487,321.368,112,289.07,112,256z"/>
	<path d="M396.937,180.196c-2.096-3.89-6.948-5.343-10.838-3.247c-3.889,2.096-5.343,6.948-3.247,10.838
		C394.07,208.602,400,232.19,400,256c0,79.402-64.598,144-144,144c-33.071,0-65.37-11.488-90.946-32.349
		c-3.423-2.792-8.463-2.281-11.256,1.144c-2.792,3.424-2.281,8.463,1.144,11.256C183.365,403.233,219.254,416,256,416
		c88.224,0,160-71.776,160-160C416,229.549,409.408,203.336,396.937,180.196z"/>
	<path d="M316.398,331.09c14.183,0,27.406-5.635,37.233-15.866c9.823-10.227,14.917-23.68,14.345-37.881
		c-1.057-26.204-22.384-47.906-48.553-49.407c-17.376-0.997-33.886,6.829-44.159,20.414c0.348-1.167,0.715-2.33,1.102-3.486
		c0.462-1.379,1.516-2.545,2.968-3.282c18.306-9.291,29.375-28.534,28.2-49.023c-1.501-26.169-23.203-47.496-49.407-48.553
		c-14.21-0.563-27.655,4.522-37.881,14.344c-10.232,9.828-15.867,23.051-15.867,37.234c0,19.547,10.863,37.185,28.349,46.03
		c1.41,0.713,2.437,1.852,2.891,3.207c0.392,1.17,0.765,2.347,1.117,3.529c-10.273-13.583-26.77-21.412-44.159-20.414
		c-26.17,1.501-47.497,23.203-48.553,49.407c-0.572,14.201,4.522,27.654,14.345,37.881c9.827,10.231,23.05,15.866,37.233,15.866
		c16.411,0,31.499-7.674,41.147-20.497c-4.859,16.299-13.511,31.435-25.283,43.919c-2.19,2.323-2.79,5.726-1.524,8.658
		c1.265,2.932,4.152,4.83,7.345,4.83h77.426c3.193,0,6.08-1.898,7.345-4.83c1.265-2.932,0.666-6.335-1.524-8.658
		c-11.771-12.484-20.423-27.62-25.283-43.919C284.899,323.416,299.987,331.09,316.398,331.09z M220.379,195.583
		c0-9.787,3.889-18.912,10.95-25.694c6.698-6.434,15.406-9.927,24.663-9.927c0.495,0,0.993,0.01,1.491,0.03
		c18.074,0.729,33.042,15.436,34.078,33.482c0.811,14.144-6.83,27.426-19.468,33.84c-5.223,2.651-9.094,7.08-10.899,12.471
		c-2.382,7.118-4.123,14.443-5.193,21.854c-1.074-7.427-2.82-14.771-5.21-21.903c-1.8-5.37-5.649-9.773-10.839-12.399
		C227.879,221.229,220.379,209.063,220.379,195.583z M277.853,352h-43.706c11.466-16.193,19.019-35,21.853-54.636
		C258.834,317,266.387,335.807,277.853,352z M272.112,284.648c-2.192-0.725-4.475-1.412-6.785-2.042
		c-0.694-0.189-1.401-0.282-2.104-0.282c-1.859,0-3.685,0.648-5.143,1.872c-0.891,0.747-1.594,1.667-2.08,2.687
		c-0.486-1.02-1.189-1.94-2.08-2.687c-2.009-1.686-4.718-2.279-7.247-1.59c-2.31,0.63-4.593,1.317-6.786,2.042
		c-5.418,1.792-9.89,5.693-12.59,10.984c-6.125,12.001-18.27,19.457-31.695,19.457c-9.787,0-18.912-3.889-25.694-10.95
		c-6.777-7.056-10.292-16.344-9.896-26.153c0.728-18.074,15.435-33.043,33.482-34.078c14.112-0.816,27.386,6.809,33.81,19.41
		c2.691,5.279,7.15,9.172,12.555,10.961c2.194,0.726,4.485,1.416,6.81,2.051c2.532,0.689,5.243,0.096,7.253-1.592
		c0.89-0.748,1.593-1.668,2.078-2.689c0.486,1.021,1.188,1.941,2.079,2.689c2.01,1.688,4.719,2.284,7.252,1.592
		c2.326-0.635,4.615-1.324,6.806-2.049c5.407-1.789,9.868-5.684,12.562-10.966c6.424-12.598,19.693-20.213,33.809-19.406
		c18.046,1.035,32.753,16.004,33.482,34.078c0.396,9.809-3.12,19.097-9.897,26.153c-6.782,7.061-15.907,10.949-25.693,10.949
		c-13.425,0-25.57-7.456-31.695-19.457C282.004,290.343,277.532,286.441,272.112,284.648z"/>
</g>
<g>
</g>
<g>
</g>
<g>
</g>
<g>
</g>
<g>
</g>
<g>
</g>
<g>
</g>
<g>
</g>
<g>
</g>
<g>
</g>
<g>
</g>
<g>
</g>
<g>
</g>
<g>
</g>
<g>
</g>
</svg>
