<?xml version="1.0" encoding="iso-8859-1"?>
<!-- Generator: Adobe Illustrator 17.1.0, SVG Export Plug-In . SVG Version: 6.00 Build 0)  -->
<!DOCTYPE svg PUBLIC "-//W3C//DTD SVG 1.1//EN" "http://www.w3.org/Graphics/SVG/1.1/DTD/svg11.dtd">
<svg version="1.1" id="Capa_1" xmlns="http://www.w3.org/2000/svg" xmlns:xlink="http://www.w3.org/1999/xlink" x="0px" y="0px"
	 viewBox="0 0 512 512" style="enable-background:new 0 0 512 512;" xml:space="preserve">
<g>
	<path d="M434.038,162.235C386.36,145.317,323.131,136,256,136s-130.36,9.317-178.038,26.235C27.688,180.075,0,204.852,0,232v48
		c0,27.149,27.688,51.926,77.962,69.765C125.64,366.683,188.869,376,256,376s130.36-9.317,178.038-26.235
		C484.313,331.926,512,307.149,512,280v-48C512,204.852,484.313,180.075,434.038,162.235z M83.313,177.314
		C129.317,160.99,190.645,152,256,152s126.683,8.99,172.687,25.314C471.465,192.493,496,212.426,496,232
		c0,10.507-7.079,21.117-20.245,31.041c-0.348,0.219-0.678,0.461-0.987,0.729c-7.808,5.734-17.656,11.23-29.358,16.334
		c-0.438,0.15-0.861,0.332-1.261,0.552c-4.85,2.08-10.005,4.095-15.462,6.031C382.684,303.01,321.355,312,256,312
		s-126.684-8.99-172.687-25.313c-5.457-1.936-10.612-3.951-15.462-6.031c-0.4-0.22-0.823-0.401-1.261-0.552
		c-11.702-5.105-21.55-10.6-29.358-16.334c-0.309-0.268-0.639-0.51-0.987-0.729C23.079,253.117,16,242.507,16,232
		C16,212.426,40.535,192.493,83.313,177.314z M472,313.736c-4.694,3.221-10.04,6.358-16,9.387v-30.244
		c5.76-2.662,11.089-5.438,16-8.312V313.736z M120,313.822v31.582c-5.474-1.305-10.807-2.696-16-4.165v-31.405
		C109.206,311.24,114.541,312.571,120,313.822z M136,317.198c5.242,1.014,10.579,1.959,16,2.835v31.802
		c-5.429-0.905-10.766-1.881-16-2.928V317.198z M168,322.383c5.268,0.699,10.603,1.336,16,1.907v31.919
		c-5.401-0.586-10.739-1.235-16-1.953V322.383z M200,325.781c5.285,0.426,10.623,0.787,16,1.092v31.978
		c-5.382-0.311-10.717-0.685-16-1.121V325.781z M232,327.596c5.301,0.178,10.637,0.295,16,0.354v31.999
		c-5.365-0.06-10.702-0.177-16-0.358V327.596z M264,327.95c5.363-0.059,10.699-0.177,16-0.354v31.995
		c-5.298,0.181-10.635,0.298-16,0.358V327.95z M296,326.873c5.377-0.304,10.715-0.666,16-1.092v31.949
		c-5.283,0.436-10.618,0.809-16,1.121V326.873z M328,324.29c5.397-0.571,10.732-1.208,16-1.907v31.873
		c-5.261,0.717-10.599,1.366-16,1.952V324.29z M360,320.033c5.421-0.876,10.758-1.821,16-2.835v31.709
		c-5.234,1.048-10.571,2.024-16,2.929V320.033z M392,313.822c5.459-1.251,10.794-2.581,16-3.988v31.405
		c-5.193,1.469-10.526,2.86-16,4.165V313.822z M40,284.567c4.911,2.874,10.24,5.65,16,8.312v30.244
		c-5.96-3.029-11.306-6.166-16-9.387V284.567z M16,280v-13.583c2.404,2.456,5.075,4.865,8,7.225v25.912
		C18.754,293.123,16,286.542,16,280z M72,330.389v-30.822c1.955,0.742,3.933,1.478,5.962,2.198
		c3.272,1.161,6.623,2.282,10.038,3.371v31.168c-1.578-0.531-3.143-1.07-4.687-1.617C79.385,333.293,75.615,331.858,72,330.389z
		 M428.687,334.687c-1.544,0.548-3.109,1.086-4.687,1.617v-31.168c3.414-1.089,6.766-2.21,10.038-3.371
		c2.029-0.72,4.007-1.455,5.962-2.198v30.822C436.385,331.858,432.615,333.293,428.687,334.687z M496,280
		c0,6.542-2.754,13.123-8,19.554v-25.912c2.925-2.36,5.596-4.769,8-7.225V280z"/>
	<path d="M58.03,262.18c1.452,1.112,3.163,1.65,4.861,1.65c2.403,0,4.78-1.078,6.355-3.133c2.688-3.507,2.024-8.528-1.482-11.217
		C62.397,245.367,56,238.996,56,232c0-12.899,20.664-26.959,55.274-37.608C149.819,182.531,201.217,176,256,176
		c70.048,0,136.362,11.245,173.063,29.347c3.962,1.956,8.759,0.327,10.713-3.636s0.327-8.76-3.636-10.714
		C396.788,171.588,329.445,160,256,160c-104.711,0-216,25.234-216,72C40,242.855,46.066,253.01,58.03,262.18z"/>
	<path d="M456,232c0,12.9-20.664,26.959-55.274,37.608C362.181,281.469,310.783,288,256,288c-64.964,0-126.531-9.55-164.691-25.545
		c-4.075-1.708-8.763,0.211-10.471,4.285c-1.708,4.075,0.21,8.763,4.285,10.471C125.739,294.235,188.021,304,256,304
		c104.711,0,216-25.234,216-72c0-7.709-3.111-15.144-9.247-22.1c-2.923-3.314-7.979-3.63-11.292-0.707
		c-3.313,2.923-3.63,7.978-0.707,11.291C454.235,224.431,456,228.305,456,232z"/>
	<path d="M191.798,246.019c-0.814-3.555-3.997-6.206-7.798-6.206c-4.418,0-8,3.582-8,8c0,11.674,15.614,16.48,27.359,19.08
		c12.227,2.707,27.849,4.36,44.641,4.76v0.098c0,4.418,3.582,8,8,8s8-3.582,8-8v-0.098c16.791-0.4,32.414-2.053,44.641-4.76
		c11.745-2.6,27.359-7.406,27.359-19.08s-15.614-16.48-27.359-19.08c-14.15-3.133-32.845-4.857-52.641-4.857
		c-31.496,0-52.448-4.433-60.86-7.938C203.552,212.433,224.504,208,256,208c37.246,0,59.747,6.199,64.202,9.731
		c0.814,3.555,3.997,6.206,7.798,6.206c4.418,0,8-3.582,8-8c0-11.674-15.614-16.48-27.359-19.08
		c-12.227-2.707-27.849-4.36-44.641-4.76V192c0-4.418-3.582-8-8-8s-8,3.582-8,8v0.098c-16.791,0.4-32.414,2.053-44.641,4.76
		c-11.745,2.6-27.359,7.406-27.359,19.08s15.614,16.48,27.359,19.08c14.15,3.133,32.845,4.857,52.641,4.857
		c31.496,0,52.448,4.433,60.86,7.938c-8.412,3.505-29.364,7.938-60.86,7.938C218.754,255.75,196.253,249.551,191.798,246.019z"/>
</g>
<g>
</g>
<g>
</g>
<g>
</g>
<g>
</g>
<g>
</g>
<g>
</g>
<g>
</g>
<g>
</g>
<g>
</g>
<g>
</g>
<g>
</g>
<g>
</g>
<g>
</g>
<g>
</g>
<g>
</g>
</svg>
