<?xml version="1.0" encoding="iso-8859-1"?>
<!-- Generator: Adobe Illustrator 17.1.0, SVG Export Plug-In . SVG Version: 6.00 Build 0)  -->
<!DOCTYPE svg PUBLIC "-//W3C//DTD SVG 1.1//EN" "http://www.w3.org/Graphics/SVG/1.1/DTD/svg11.dtd">
<svg version="1.1" id="Capa_1" xmlns="http://www.w3.org/2000/svg" xmlns:xlink="http://www.w3.org/1999/xlink" x="0px" y="0px"
	 viewBox="0 0 512 512" style="enable-background:new 0 0 512 512;" xml:space="preserve">
<g>
	<path d="M496,112H16c-8.822,0-16,7.178-16,16v256c0,8.822,7.178,16,16,16h480c8.822,0,16-7.178,16-16V128
		C512,119.178,504.822,112,496,112z M496,384H16V128h480V384z"/>
	<path d="M40,320c22.056,0,40,17.944,40,40c0,4.418,3.582,8,8,8h336c4.418,0,8-3.582,8-8c0-22.056,17.944-40,40-40
		c4.418,0,8-3.582,8-8V200c0-4.418-3.582-8-8-8c-22.056,0-40-17.944-40-40c0-4.418-3.582-8-8-8H88c-4.418,0-8,3.582-8,8
		c0,22.056-17.944,40-40,40c-4.418,0-8,3.582-8,8v112C32,316.418,35.582,320,40,320z M48,207.431
		c24.489-3.519,43.912-22.941,47.43-47.431h321.14c3.518,24.489,22.941,43.912,47.43,47.431v97.139
		c-24.489,3.519-43.912,22.941-47.43,47.431H95.43c-3.518-24.489-22.941-43.912-47.43-47.431V207.431z"/>
	<path d="M128,288c17.645,0,32-14.355,32-32c0-4.418-3.582-8-8-8s-8,3.582-8,8c0,8.822-7.178,16-16,16s-16-7.178-16-16
		s7.178-16,16-16c4.418,0,8-3.582,8-8s-3.582-8-8-8c-17.645,0-32,14.355-32,32S110.355,288,128,288z"/>
	<path d="M384,288c17.645,0,32-14.355,32-32c0-4.418-3.582-8-8-8s-8,3.582-8,8c0,8.822-7.178,16-16,16s-16-7.178-16-16
		s7.178-16,16-16c4.418,0,8-3.582,8-8s-3.582-8-8-8c-17.645,0-32,14.355-32,32S366.355,288,384,288z"/>
	<path d="M256,312c-17.645,0-32-10.767-32-24c0-4.418-3.582-8-8-8s-8,3.582-8,8c0,19.784,17.329,36.25,40,39.434V336
		c0,4.418,3.582,8,8,8s8-3.582,8-8v-8.566c22.671-3.184,40-19.65,40-39.434c0-22.056-21.533-40-48-40c-17.645,0-32-10.767-32-24
		s14.355-24,32-24s32,10.767,32,24c0,4.418,3.582,8,8,8s8-3.582,8-8c0-19.784-17.329-36.249-40-39.434V176c0-4.418-3.582-8-8-8
		s-8,3.582-8,8v8.566c-22.671,3.184-40,19.65-40,39.434c0,22.056,21.533,40,48,40c17.645,0,32,10.767,32,24S273.645,312,256,312z"/>
</g>
<g>
</g>
<g>
</g>
<g>
</g>
<g>
</g>
<g>
</g>
<g>
</g>
<g>
</g>
<g>
</g>
<g>
</g>
<g>
</g>
<g>
</g>
<g>
</g>
<g>
</g>
<g>
</g>
<g>
</g>
</svg>
