<?xml version="1.0" encoding="iso-8859-1"?>
<!-- Generator: Adobe Illustrator 17.1.0, SVG Export Plug-In . SVG Version: 6.00 Build 0)  -->
<!DOCTYPE svg PUBLIC "-//W3C//DTD SVG 1.1//EN" "http://www.w3.org/Graphics/SVG/1.1/DTD/svg11.dtd">
<svg version="1.1" id="Capa_1" xmlns="http://www.w3.org/2000/svg" xmlns:xlink="http://www.w3.org/1999/xlink" x="0px" y="0px"
	 viewBox="0 0 511.049 511.049" style="enable-background:new 0 0 511.049 511.049;" xml:space="preserve">
<g>
	<path d="M508.706,412.455l-34.037-34.037c-0.002-0.002-0.003-0.003-0.005-0.005s-0.003-0.003-0.005-0.005L98.594,2.343
		c-3.124-3.124-8.189-3.124-11.313,0C30.997,58.626,0,133.459,0,213.056c0,79.597,30.997,154.43,87.28,210.713
		c56.284,56.284,131.116,87.28,210.713,87.28c79.597,0,154.43-30.996,210.713-87.28C511.831,420.645,511.83,415.579,508.706,412.455
		z M297.993,495.049c-75.323,0-146.138-29.333-199.399-82.594C45.333,359.194,16,288.379,16,213.056
		c0-72.652,27.286-141.107,77.015-193.664l22.746,22.746c-4.82,5.135-9.439,10.469-13.774,15.939
		c-2.745,3.462-2.162,8.494,1.3,11.239c1.47,1.166,3.223,1.731,4.964,1.731c2.359,0,4.696-1.039,6.275-3.031
		c3.956-4.991,8.169-9.859,12.558-14.555l330.508,330.508c-36.299,33.975-81.372,55.085-130.863,61.177
		c-4.385,0.54-7.502,4.532-6.962,8.917c0.499,4.053,3.947,7.023,7.93,7.023c0.326,0,0.656-0.02,0.988-0.061
		c53.067-6.532,101.376-29.22,140.227-65.739l22.747,22.747C439.1,467.764,370.646,495.049,297.993,495.049z"/>
	<path d="M295.785,446.897c-61.625-0.579-119.565-24.9-163.149-68.483c-31.471-31.471-53.206-70.953-62.855-114.178
		c-9.395-42.085-7.042-85.868,6.807-126.616c1.421-4.183-0.817-8.727-5-10.149c-4.183-1.421-8.727,0.817-10.149,5
		C46.644,176,44.129,222.769,54.164,267.722c10.313,46.194,33.535,88.382,67.158,122.005
		c46.566,46.566,108.471,72.551,174.313,73.169c0.026,0,0.051,0,0.077,0c4.383,0,7.957-3.532,7.998-7.925
		C303.75,450.554,300.203,446.938,295.785,446.897z"/>
	<path d="M78.897,110.172c1.166,0.595,2.408,0.877,3.633,0.877c2.91,0,5.716-1.593,7.131-4.362c2.677-5.24,5.592-10.445,8.664-15.47
		c2.305-3.77,1.118-8.694-2.652-10.999c-3.771-2.305-8.694-1.118-10.999,2.652c-3.285,5.372-6.401,10.937-9.263,16.539
		C73.402,103.343,74.962,108.162,78.897,110.172z"/>
	<path d="M191.726,230.88c6.411,0,12.438-2.497,16.97-7.03c8.055-8.055,8.158-28.18,7.998-34.155
		c-0.114-4.25-3.532-7.668-7.782-7.783c-0.246-0.005-6.094-0.154-12.815,0.522c-10.52,1.059-17.301,3.434-21.342,7.475
		c-9.356,9.357-9.356,24.583,0,33.941C179.288,228.383,185.315,230.88,191.726,230.88z M186.056,201.234
		c1.55-1.406,7.65-2.64,14.449-3.128c-0.485,6.784-1.718,12.874-3.131,14.438c-1.51,1.506-3.515,2.335-5.648,2.335
		c-2.137,0-4.146-0.833-5.657-2.343C182.95,209.417,182.95,204.342,186.056,201.234z"/>
	<path d="M135.744,174.811c6.411,0,12.438-2.497,16.971-7.03c8.055-8.055,8.158-28.179,7.997-34.155
		c-0.114-4.25-3.532-7.669-7.783-7.783c-0.244-0.006-6.095-0.153-12.814,0.522c-10.52,1.059-17.3,3.434-21.341,7.475
		c-4.533,4.533-7.03,10.56-7.03,16.971s2.497,12.438,7.029,16.97C123.306,172.314,129.333,174.811,135.744,174.811z
		 M130.075,145.165c1.549-1.406,7.646-2.639,14.442-3.127c-0.489,6.79-1.72,12.881-3.124,14.438
		c-1.51,1.506-3.516,2.335-5.649,2.335c-2.137,0-4.146-0.832-5.657-2.344c-1.511-1.511-2.343-3.52-2.343-5.656
		C127.744,148.674,128.576,146.665,130.075,145.165z"/>
	<path d="M247.707,286.937c6.146,0,12.292-2.339,16.971-7.018v0c8.055-8.055,8.158-28.18,7.997-34.156
		c-0.114-4.25-3.533-7.668-7.783-7.782c-0.245-0.006-6.094-0.154-12.814,0.523c-10.519,1.059-17.3,3.434-21.341,7.475
		c-9.357,9.357-9.357,24.583,0,33.941C235.416,284.598,241.562,286.937,247.707,286.937z M242.038,257.303
		c1.549-1.406,7.646-2.639,14.442-3.128c-0.488,6.79-1.719,12.881-3.124,14.438c-3.12,3.112-8.19,3.108-11.306-0.007
		C238.932,265.486,238.931,260.41,242.038,257.303z"/>
	<path d="M303.689,343.006c6.146,0,12.292-2.34,16.97-7.018c8.055-8.055,8.158-28.18,7.997-34.156
		c-0.114-4.25-3.533-7.668-7.782-7.782c-0.246-0.005-6.095-0.154-12.815,0.522c-10.519,1.059-17.3,3.434-21.341,7.475
		c-4.533,4.533-7.03,10.56-7.03,16.971s2.497,12.438,7.03,16.97C291.397,340.666,297.543,343.006,303.689,343.006z M298.02,313.372
		c1.549-1.406,7.646-2.639,14.442-3.128c-0.488,6.791-1.719,12.882-3.124,14.438c-3.12,3.111-8.19,3.109-11.306-0.008
		c-1.511-1.511-2.343-3.52-2.343-5.656C295.689,316.88,296.521,314.871,298.02,313.372z"/>
	<path d="M102.737,296.019c4.679,4.679,10.825,7.019,16.97,7.019c6.146,0,12.292-2.34,16.971-7.018
		c8.055-8.055,8.158-28.18,7.997-34.156c-0.114-4.25-3.533-7.668-7.783-7.782c-0.245-0.007-6.094-0.154-12.814,0.523
		c-10.519,1.059-17.3,3.434-21.341,7.475C93.379,271.436,93.379,286.662,102.737,296.019z M114.038,273.404
		c1.549-1.406,7.646-2.639,14.442-3.128c-0.488,6.79-1.719,12.881-3.124,14.437c-3.119,3.111-8.189,3.11-11.306-0.007
		C110.931,281.587,110.931,276.512,114.038,273.404z"/>
	<path d="M192.892,310.081c-0.245-0.006-6.094-0.154-12.814,0.523c-10.519,1.059-17.3,3.434-21.341,7.475
		c-9.357,9.357-9.357,24.583,0,33.94c4.679,4.679,10.825,7.019,16.97,7.019c6.146,0,12.292-2.34,16.971-7.018
		c8.055-8.055,8.158-28.18,7.997-34.156C200.561,313.614,197.142,310.195,192.892,310.081z M181.356,340.713
		c-3.12,3.111-8.189,3.11-11.306-0.007c-3.119-3.119-3.119-8.194-0.012-11.302c1.549-1.406,7.646-2.639,14.442-3.128
		C183.992,333.066,182.761,339.158,181.356,340.713z"/>
	<path d="M248.892,366.081c-0.244-0.005-6.094-0.154-12.814,0.523c-10.519,1.059-17.3,3.434-21.341,7.475
		c-9.357,9.357-9.357,24.583,0,33.94c4.679,4.679,10.825,7.019,16.97,7.019c6.146,0,12.292-2.34,16.971-7.018
		c8.055-8.055,8.158-28.18,7.997-34.156C256.561,369.614,253.142,366.195,248.892,366.081z M237.356,396.713
		c-3.12,3.111-8.189,3.11-11.306-0.007c-3.119-3.119-3.119-8.194-0.012-11.302c1.549-1.406,7.646-2.639,14.442-3.128
		C239.992,389.066,238.761,395.158,237.356,396.713z"/>
	<path d="M359.671,399.075c6.146,0,12.292-2.34,16.97-7.019h0c8.054-8.055,8.157-28.18,7.997-34.155
		c-0.114-4.25-3.532-7.668-7.782-7.783c-0.247-0.007-6.096-0.154-12.815,0.522c-10.519,1.059-17.3,3.434-21.341,7.475
		c-9.358,9.357-9.358,24.583,0,33.941C347.379,396.735,353.525,399.075,359.671,399.075z M354.002,369.44
		c1.55-1.406,7.65-2.64,14.449-3.128c-0.485,6.784-1.718,12.875-3.131,14.439c-1.51,1.506-3.516,2.335-5.649,2.335
		c-2.137,0-4.146-0.833-5.657-2.343C350.895,377.623,350.895,372.548,354.002,369.44z"/>
	<path d="M128.107,238.595c6.146,0,12.292-2.339,16.971-7.018v0c8.055-8.055,8.158-28.18,7.997-34.156
		c-0.114-4.25-3.533-7.668-7.783-7.782c-0.245-0.006-6.094-0.154-12.814,0.523c-10.519,1.059-17.3,3.434-21.341,7.474
		c-4.533,4.533-7.03,10.56-7.03,16.971s2.497,12.438,7.03,16.971C115.816,236.256,121.962,238.595,128.107,238.595z
		 M122.438,208.961c1.549-1.406,7.646-2.639,14.442-3.128c-0.488,6.79-1.719,12.881-3.124,14.438
		c-3.12,3.112-8.189,3.108-11.306-0.007c-1.511-1.511-2.343-3.52-2.343-5.657C120.107,212.47,120.939,210.461,122.438,208.961z"/>
	<path d="M167.137,287.577c4.679,4.678,10.825,7.018,16.97,7.018c6.146,0,12.292-2.339,16.971-7.018v0
		c8.055-8.055,8.158-28.18,7.997-34.156c-0.114-4.25-3.533-7.668-7.783-7.782c-0.244-0.007-6.094-0.154-12.814,0.523
		c-10.519,1.059-17.3,3.434-21.341,7.474c-4.533,4.533-7.03,10.56-7.03,16.971S162.604,283.044,167.137,287.577z M178.438,264.961
		c1.549-1.406,7.646-2.639,14.442-3.128c-0.488,6.79-1.719,12.881-3.124,14.438c-3.12,3.112-8.189,3.108-11.306-0.007
		c-1.511-1.511-2.343-3.52-2.343-5.657C176.107,268.47,176.939,266.461,178.438,264.961z"/>
	<path d="M223.137,343.577c4.679,4.678,10.825,7.018,16.97,7.018c6.146,0,12.292-2.339,16.971-7.018v0
		c8.055-8.055,8.158-28.18,7.997-34.156c-0.114-4.25-3.533-7.668-7.783-7.782c-0.245-0.006-6.094-0.154-12.814,0.523
		c-10.519,1.059-17.3,3.434-21.341,7.474c-4.533,4.533-7.03,10.56-7.03,16.971S218.604,339.044,223.137,343.577z M234.438,320.961
		c1.549-1.406,7.646-2.639,14.442-3.128c-0.488,6.79-1.719,12.881-3.124,14.438c-3.12,3.112-8.189,3.108-11.306-0.007
		c-1.511-1.511-2.343-3.52-2.343-5.657C232.107,324.47,232.939,322.461,234.438,320.961z"/>
	<path d="M321.075,365.421c-0.114-4.25-3.533-7.668-7.783-7.782c-0.245-0.007-6.094-0.154-12.814,0.523
		c-10.519,1.059-17.3,3.434-21.341,7.474c-4.533,4.533-7.03,10.56-7.03,16.971s2.497,12.438,7.03,16.971
		c4.679,4.678,10.825,7.018,16.97,7.018c6.146,0,12.292-2.339,16.971-7.018v0C321.133,391.522,321.236,371.397,321.075,365.421z
		 M301.757,388.271c-3.12,3.112-8.189,3.108-11.306-0.007c-1.511-1.511-2.343-3.52-2.343-5.657c0-2.137,0.832-4.146,2.331-5.645
		c1.549-1.406,7.646-2.639,14.442-3.128C304.392,380.623,303.161,386.715,301.757,388.271z"/>
</g>
<g>
</g>
<g>
</g>
<g>
</g>
<g>
</g>
<g>
</g>
<g>
</g>
<g>
</g>
<g>
</g>
<g>
</g>
<g>
</g>
<g>
</g>
<g>
</g>
<g>
</g>
<g>
</g>
<g>
</g>
</svg>
