<?xml version="1.0" encoding="iso-8859-1"?>
<!-- Generator: Adobe Illustrator 17.1.0, SVG Export Plug-In . SVG Version: 6.00 Build 0)  -->
<!DOCTYPE svg PUBLIC "-//W3C//DTD SVG 1.1//EN" "http://www.w3.org/Graphics/SVG/1.1/DTD/svg11.dtd">
<svg version="1.1" id="Capa_1" xmlns="http://www.w3.org/2000/svg" xmlns:xlink="http://www.w3.org/1999/xlink" x="0px" y="0px"
	 viewBox="0 0 512 512" style="enable-background:new 0 0 512 512;" xml:space="preserve">
<path d="M512,144c0-26.468-21.533-48-48-48s-48,21.532-48,48c0,13.922,5.962,26.472,15.462,35.248l-86.386,132.459l-61.451-128.489
	C295.937,174.52,304,160.188,304,144c0-26.468-21.533-48-48-48s-48,21.532-48,48c0,16.188,8.063,30.52,20.376,39.218
	l-61.451,128.489L80.539,179.248C90.038,170.472,96,157.922,96,144c0-26.468-21.533-48-48-48S0,117.532,0,144
	c0,23.741,17.329,43.499,40,47.321v130.056c-9.311,3.303-16,12.195-16,22.624v48c0,13.233,10.767,24,24,24h416
	c13.233,0,24-10.767,24-24v-48c0-10.429-6.689-19.321-16-22.624V191.321C494.671,187.499,512,167.741,512,144z M464,112
	c17.645,0,32,14.355,32,32c0,17.627-14.327,31.971-31.949,31.999c-0.017,0-0.034-0.003-0.051-0.003s-0.034,0.003-0.051,0.003
	C446.327,175.971,432,161.627,432,144C432,126.355,446.355,112,464,112z M456,191.321V320h-24c-4.418,0-8,3.582-8,8
	c0,0.002,0,0.003,0,0.005c-0.003,8.82-7.179,15.995-16,15.995c-8.822,0-16-7.178-16-16s7.178-16,16-16c4.418,0,8-3.582,8-8
	s-3.582-8-8-8c-14.884,0-27.426,10.214-30.987,24h-18.245l86.084-131.996C448.37,189.541,452.106,190.664,456,191.321z M256,112
	c17.645,0,32,14.355,32,32c0,12.533-7.246,23.4-17.766,28.648c-0.148,0.06-0.298,0.116-0.444,0.186
	c-0.147,0.07-0.284,0.152-0.425,0.23C265.295,174.943,260.77,176,256,176s-9.295-1.057-13.365-2.936
	c-0.141-0.078-0.278-0.16-0.425-0.23c-0.146-0.07-0.296-0.125-0.444-0.186C231.246,167.4,224,156.533,224,144
	C224,126.355,238.355,112,256,112z M256,192c4.578,0,9.002-0.658,13.199-1.86L331.306,320h-43.304l-0.001,0L288,320
	c-4.418,0-8,3.582-8,8c0,13.233-10.767,24-24,24c-13.229,0-23.993-10.76-24-23.987c0-0.004,0.001-0.009,0.001-0.013
	S232,327.991,232,327.987C232.007,314.76,242.771,304,256,304c4.225,0,8.375,1.11,12.002,3.211c3.823,2.215,8.718,0.91,10.932-2.913
	s0.91-8.718-2.914-10.933C269.96,289.855,263.038,288,256,288c-19.317,0-35.479,13.765-39.195,32h-36.111l62.107-129.86
	C246.998,191.342,251.422,192,256,192z M153.232,320h-25.23l-0.001,0L128,320c-4.418,0-8,3.582-8,8c0,8.822-7.178,16-16,16
	s-16-7.178-16-16s7.178-16,16-16c4.418,0,8-3.582,8-8s-3.582-8-8-8c-14.884,0-27.426,10.214-30.987,24H56V191.321
	c3.894-0.656,7.63-1.78,11.148-3.317L153.232,320z M16,144c0-17.645,14.355-32,32-32s32,14.355,32,32
	c0,17.627-14.327,31.971-31.949,31.999c-0.017,0-0.034-0.003-0.051-0.003s-0.034,0.003-0.051,0.003
	C30.327,175.971,16,161.627,16,144z M472,392c0,4.411-3.589,8-8,8H48c-4.411,0-8-3.589-8-8v-48c0-4.411,3.589-8,8-8h25.013
	c3.561,13.786,16.104,24,30.987,24s27.426-10.214,30.987-24h32.972c0.012,0,0.024,0.002,0.036,0.002
	c0.009,0,0.019-0.002,0.028-0.002h48.782c3.716,18.235,19.878,32,39.195,32s35.479-13.765,39.195-32h48.782
	c0.009,0,0.019,0.002,0.028,0.002c0.012,0,0.024-0.002,0.036-0.002h32.972c3.561,13.786,16.104,24,30.987,24
	s27.426-10.214,30.987-24H464c4.411,0,8,3.589,8,8V392z"/>
<g>
</g>
<g>
</g>
<g>
</g>
<g>
</g>
<g>
</g>
<g>
</g>
<g>
</g>
<g>
</g>
<g>
</g>
<g>
</g>
<g>
</g>
<g>
</g>
<g>
</g>
<g>
</g>
<g>
</g>
</svg>
