<?xml version="1.0" encoding="iso-8859-1"?>
<!-- Generator: Adobe Illustrator 17.1.0, SVG Export Plug-In . SVG Version: 6.00 Build 0)  -->
<!DOCTYPE svg PUBLIC "-//W3C//DTD SVG 1.1//EN" "http://www.w3.org/Graphics/SVG/1.1/DTD/svg11.dtd">
<svg version="1.1" id="Capa_1" xmlns="http://www.w3.org/2000/svg" xmlns:xlink="http://www.w3.org/1999/xlink" x="0px" y="0px"
	 viewBox="0 0 512 512" style="enable-background:new 0 0 512 512;" xml:space="preserve">
<g>
	<path d="M334.312,259.471c-54.879-79.912-49.74-117.509-43.234-165.109c2.281-16.685,4.639-33.938,4.639-54.362
		c0-21.713-17.391-39.44-38.975-39.987C256.59,0.004,256.437,0,256.283,0h-0.566c-0.154,0-0.307,0.004-0.459,0.013
		C233.674,0.56,216.283,18.287,216.283,40c0,20.424,2.358,37.677,4.639,54.362c6.506,47.6,11.646,85.197-43.234,165.109
		c-21.854,31.823-30.138,73.735-23.955,121.205c4.802,36.87,18.631,77.544,37.94,111.594c6.901,12.17,19.746,19.73,33.52,19.73
		h61.613c13.773,0,26.617-7.56,33.52-19.73c19.31-34.049,33.138-74.724,37.94-111.594
		C364.45,333.207,356.166,291.294,334.312,259.471z M238.012,168h35.976c1.451,7.604,3.536,15.561,6.42,24h-48.815
		C234.476,183.561,236.561,175.604,238.012,168z M256,16.001c13.104,0.152,23.717,10.859,23.717,23.999
		c0,19.336-2.283,36.041-4.492,52.196c-2.725,19.933-5.297,38.76-3.463,59.804h-31.525c1.835-21.044-0.738-39.872-3.463-59.804
		c-2.208-16.155-4.492-32.86-4.492-52.196C232.283,26.861,242.896,16.154,256,16.001z M342.401,378.61
		c-4.545,34.897-17.665,73.448-35.993,105.767C302.342,491.546,294.832,496,286.807,496h-61.613
		c-8.025,0-15.536-4.454-19.602-11.623c-18.328-32.319-31.447-70.87-35.993-105.768c-5.666-43.496,1.693-81.561,21.279-110.081
		c15.774-22.97,26.857-42.818,34.51-60.529h61.224c7.653,17.71,18.736,37.559,34.51,60.529
		C340.708,297.049,348.066,335.114,342.401,378.61z"/>
	<path d="M309.274,303.959c1.142,0,2.301-0.246,3.403-0.764c3.997-1.882,5.712-6.648,3.83-10.646
		c-2.463-5.231-5.348-10.266-8.573-14.962c-2.502-3.642-7.482-4.567-11.124-2.066c-3.642,2.501-4.567,7.481-2.066,11.124
		c2.738,3.987,5.19,8.267,7.287,12.721C303.395,302.261,306.272,303.959,309.274,303.959z"/>
	<path d="M317.557,320.091c-4.37,0.651-7.385,4.722-6.733,9.092c2.034,13.651,1.982,28.89-0.154,45.293
		c-1.966,15.098-5.712,30.9-11.132,46.967c-1.412,4.187,0.837,8.725,5.023,10.137c0.848,0.286,1.71,0.422,2.558,0.422
		c3.338,0,6.453-2.106,7.579-5.445c5.753-17.056,9.736-33.883,11.838-50.015c2.328-17.874,2.366-34.601,0.113-49.718
		C325.997,322.455,321.927,319.441,317.557,320.091z"/>
</g>
<g>
</g>
<g>
</g>
<g>
</g>
<g>
</g>
<g>
</g>
<g>
</g>
<g>
</g>
<g>
</g>
<g>
</g>
<g>
</g>
<g>
</g>
<g>
</g>
<g>
</g>
<g>
</g>
<g>
</g>
</svg>
