<?xml version="1.0" encoding="iso-8859-1"?>
<!-- Generator: Adobe Illustrator 17.1.0, SVG Export Plug-In . SVG Version: 6.00 Build 0)  -->
<!DOCTYPE svg PUBLIC "-//W3C//DTD SVG 1.1//EN" "http://www.w3.org/Graphics/SVG/1.1/DTD/svg11.dtd">
<svg version="1.1" id="Capa_1" xmlns="http://www.w3.org/2000/svg" xmlns:xlink="http://www.w3.org/1999/xlink" x="0px" y="0px"
	 viewBox="0 0 512 512" style="enable-background:new 0 0 512 512;" xml:space="preserve">
<g>
	<path d="M408,0H104C90.766,0,80,10.766,80,24v464c0,13.234,10.766,24,24,24h304c13.234,0,24-10.766,24-24V24
		C432,10.766,421.234,0,408,0z M416,488c0,4.411-3.589,8-8,8H104c-4.411,0-8-3.589-8-8V24c0-4.411,3.589-8,8-8h304
		c4.411,0,8,3.589,8,8V488z"/>
	<path d="M216.124,397.936c5.109,0,10.101-0.673,14.895-1.991c-4.199,8.223-9.512,15.864-15.771,22.619
		c-2.161,2.333-2.735,5.725-1.462,8.639c1.273,2.914,4.151,4.798,7.331,4.798h70.205c3.18,0,6.058-1.884,7.331-4.798
		c1.273-2.915,0.699-6.306-1.462-8.639c-6.217-6.712-11.505-14.302-15.693-22.471c4.62,1.22,9.415,1.843,14.308,1.843
		c31.086,0,56.377-25.488,56.377-56.817c0-62.794-88.491-113.924-92.258-116.07c-2.455-1.398-5.465-1.398-7.92,0
		c-3.767,2.146-92.258,53.276-92.258,116.07C159.746,372.448,185.037,397.936,216.124,397.936z M255.971,241.343
		c7.168,4.452,23,14.861,38.739,29.078c18.919,17.089,41.471,43.227,41.471,70.698c0,22.506-18.113,40.817-40.377,40.817
		c-8.868,0-17.294-2.874-24.367-8.31c-2.738-2.105-6.517-2.215-9.372-0.274c-2.856,1.941-4.145,5.495-3.195,8.815
		c3.442,12.044,8.842,23.511,15.882,33.833h-37.065c7.143-10.472,12.595-22.119,16.031-34.36c0.938-3.342-0.385-6.907-3.276-8.827
		c-2.892-1.921-6.691-1.757-9.407,0.404c-7.168,5.704-15.783,8.718-24.911,8.718c-22.264,0-40.377-18.31-40.377-40.817
		C175.746,294.394,239.304,251.726,255.971,241.343z"/>
	<path d="M120.02,48c4.418,0,8-3.582,8-8s-3.582-8-8-8h-0.01c-4.418,0-7.995,3.582-7.995,8S115.602,48,120.02,48z"/>
	<path d="M392.02,48c4.418,0,8-3.582,8-8s-3.582-8-8-8h-0.01c-4.418,0-7.995,3.582-7.995,8S387.602,48,392.02,48z"/>
	<path d="M392.02,464h-0.01c-4.418,0-7.995,3.582-7.995,8s3.586,8,8.005,8s8-3.582,8-8S396.438,464,392.02,464z"/>
	<path d="M120.02,464h-0.01c-4.418,0-7.995,3.582-7.995,8s3.586,8,8.005,8s8-3.582,8-8S124.438,464,120.02,464z"/>
	<path d="M200,64h-16c-4.418,0-8,3.582-8,8s3.582,8,8,8h16c4.418,0,8-3.582,8-8S204.418,64,200,64z"/>
	<path d="M328,64h-96c-4.418,0-8,3.582-8,8s3.582,8,8,8h96c4.418,0,8-3.582,8-8S332.418,64,328,64z"/>
	<path d="M407.155,124.422C405.8,121.712,403.03,120,400,120V80c0-4.418-3.582-8-8-8c-17.645,0-32-14.355-32-32c0-4.418-3.582-8-8-8
		H160c-4.418,0-8,3.582-8,8c0,17.645-14.355,32-32,32c-4.418,0-8,3.582-8,8v40c-3.03,0-5.8,1.712-7.155,4.422
		c-1.355,2.71-1.063,5.953,0.755,8.378L126,160l-20.4,27.2c-1.818,2.424-2.111,5.667-0.755,8.378C106.2,198.288,108.97,200,112,200
		v232c0,4.418,3.582,8,8,8c17.645,0,32,14.355,32,32c0,4.418,3.582,8,8,8h192c4.418,0,8-3.582,8-8c0-17.645,14.355-32,32-32
		c4.418,0,8-3.582,8-8V200c3.03,0,5.8-1.712,7.155-4.422c1.355-2.71,1.063-5.953-0.755-8.378L386,160l20.4-27.2
		C408.218,130.376,408.511,127.133,407.155,124.422z M128,87.333C148.07,83.952,163.952,68.07,167.333,48h177.333
		C348.048,68.07,363.93,83.952,384,87.333V120H128V87.333z M142.4,155.2L128,136h256l-14.4,19.2c-2.133,2.844-2.133,6.756,0,9.6
		L384,184H128l14.4-19.2C144.533,161.956,144.533,158.044,142.4,155.2z M384,424.667c-20.07,3.381-35.952,19.263-39.333,39.333
		H167.333c-3.381-20.07-19.263-35.952-39.333-39.333V200h256V424.667z"/>
	<path d="M328,168h16c4.418,0,8-3.582,8-8s-3.582-8-8-8h-16c-4.418,0-8,3.582-8,8S323.582,168,328,168z"/>
	<path d="M168,168h128c4.418,0,8-3.582,8-8s-3.582-8-8-8H168c-4.418,0-8,3.582-8,8S163.582,168,168,168z"/>
</g>
<g>
</g>
<g>
</g>
<g>
</g>
<g>
</g>
<g>
</g>
<g>
</g>
<g>
</g>
<g>
</g>
<g>
</g>
<g>
</g>
<g>
</g>
<g>
</g>
<g>
</g>
<g>
</g>
<g>
</g>
</svg>
