<?xml version="1.0" encoding="iso-8859-1"?>
<!-- Generator: Adobe Illustrator 17.1.0, SVG Export Plug-In . SVG Version: 6.00 Build 0)  -->
<!DOCTYPE svg PUBLIC "-//W3C//DTD SVG 1.1//EN" "http://www.w3.org/Graphics/SVG/1.1/DTD/svg11.dtd">
<svg version="1.1" id="Capa_1" xmlns="http://www.w3.org/2000/svg" xmlns:xlink="http://www.w3.org/1999/xlink" x="0px" y="0px"
	 viewBox="0 0 512 512" style="enable-background:new 0 0 512 512;" xml:space="preserve">
<g>
	<path d="M128,196.022c18.542,0,32-8.421,32-20.022c0-4.418-3.582-8-8-8c-4.257,0-7.738,3.325-7.986,7.521
		c-1.116,1.461-6.764,4.502-16.014,4.502c-8.328,0-13.736-2.465-15.546-4.022c1.81-1.558,7.219-4.022,15.546-4.022
		c4.418,0,8-3.582,8-8s-3.582-8-8-8c-18.542,0-32,8.421-32,20.022S109.458,196.022,128,196.022z"/>
	<path d="M408,168c-4.257,0-7.738,3.325-7.986,7.521c-1.116,1.461-6.764,4.502-16.014,4.502c-8.328,0-13.736-2.465-15.546-4.022
		c1.81-1.558,7.219-4.022,15.546-4.022c4.418,0,8-3.582,8-8s-3.582-8-8-8c-18.542,0-32,8.421-32,20.022s13.458,20.022,32,20.022
		s32-8.421,32-20.022C416,171.582,412.418,168,408,168z"/>
	<path d="M504,100H8c-4.418,0-8,3.582-8,8v136v160c0,4.418,3.582,8,8,8h496c4.418,0,8-3.582,8-8V244V108
		C512,103.582,508.418,100,504,100z M496,236H312v-8h112c4.418,0,8-3.582,8-8c0-1.015,2.243-4.059,9.176-6.992
		c7.985-3.378,19.22-5.315,30.824-5.315c4.418,0,8-3.582,8-8v-47.385c0-4.418-3.582-8-8-8c-11.604,0-22.839-1.938-30.824-5.315
		C434.243,136.059,432,133.015,432,132c0-4.418-3.582-8-8-8H312v-8h184V236z M296,396h-80V252h80V396z M216,236v-15.961
		c0-0.013,0.002-0.026,0.002-0.039S216,219.974,216,219.961v-87.923c0-0.013,0.002-0.026,0.002-0.039S216,131.974,216,131.961V116
		h80v120H216z M200,212H94.076C88.047,200.154,68.695,193.353,48,191.961v-31.916c10.873-0.72,20.981-2.9,29.058-6.317
		c9.782-4.139,14.625-9.214,16.946-13.728H200V212z M312,140h105.924c6.029,11.846,25.381,18.647,46.076,20.039v31.916
		c-10.873,0.72-20.981,2.9-29.058,6.317c-9.782,4.139-14.625,9.214-16.946,13.728H312V140z M16,116h184v8H88c-4.418,0-8,3.582-8,8
		c0,1.015-2.243,4.059-9.176,6.992c-7.985,3.378-19.22,5.315-30.824,5.315c-4.418,0-8,3.582-8,8v47.385c0,4.418,3.582,8,8,8
		c11.604,0,22.839,1.938,30.824,5.315C77.757,215.941,80,218.985,80,220c0,4.418,3.582,8,8,8h112v8H16V116z M16,380h160
		c4.418,0,8-3.582,8-8s-3.582-8-8-8H16v-16h160c4.418,0,8-3.582,8-8s-3.582-8-8-8H16v-16h160c4.418,0,8-3.582,8-8s-3.582-8-8-8H16
		v-16h160c4.418,0,8-3.582,8-8s-3.582-8-8-8H16v-16h184v144H16V380z M312,396v-16h136c4.418,0,8-3.582,8-8s-3.582-8-8-8H312v-16h136
		c4.418,0,8-3.582,8-8s-3.582-8-8-8H312v-16h136c4.418,0,8-3.582,8-8s-3.582-8-8-8H312v-16h136c4.418,0,8-3.582,8-8s-3.582-8-8-8
		H312v-16h184v16h-16c-4.418,0-8,3.582-8,8s3.582,8,8,8h16v16h-16c-4.418,0-8,3.582-8,8s3.582,8,8,8h16v16h-16c-4.418,0-8,3.582-8,8
		s3.582,8,8,8h16v16h-16c-4.418,0-8,3.582-8,8s3.582,8,8,8h16v16H312z"/>
</g>
<g>
</g>
<g>
</g>
<g>
</g>
<g>
</g>
<g>
</g>
<g>
</g>
<g>
</g>
<g>
</g>
<g>
</g>
<g>
</g>
<g>
</g>
<g>
</g>
<g>
</g>
<g>
</g>
<g>
</g>
</svg>
