<?xml version="1.0" encoding="iso-8859-1"?>
<!-- Generator: Adobe Illustrator 17.1.0, SVG Export Plug-In . SVG Version: 6.00 Build 0)  -->
<!DOCTYPE svg PUBLIC "-//W3C//DTD SVG 1.1//EN" "http://www.w3.org/Graphics/SVG/1.1/DTD/svg11.dtd">
<svg version="1.1" id="Capa_1" xmlns="http://www.w3.org/2000/svg" xmlns:xlink="http://www.w3.org/1999/xlink" x="0px" y="0px"
	 viewBox="0 0 511.957 511.957" style="enable-background:new 0 0 511.957 511.957;" xml:space="preserve">
<g>
	<path d="M506.698,428.655l-227.14-369.76c-5.883-9.577-14.477-15.069-23.58-15.069c-9.102,0-17.696,5.493-23.579,15.069
		L5.261,428.655c-5.955,9.694-6.902,19.668-2.597,27.365c4.305,7.697,13.299,12.111,24.676,12.111h457.278
		c11.377,0,20.371-4.414,24.676-12.11C513.599,448.324,512.652,438.35,506.698,428.655z M495.329,448.21
		c-1.373,2.455-5.377,3.921-10.711,3.921H27.34c-5.334,0-9.338-1.466-10.712-3.921c-1.373-2.455-0.526-6.634,2.266-11.179
		L246.033,67.27c2.906-4.73,6.531-7.444,9.946-7.444c3.415,0,7.04,2.713,9.946,7.444l227.139,369.76
		C495.856,441.575,496.703,445.754,495.329,448.21z"/>
	<path d="M255.979,372.067c-17.655,0-32.019,14.364-32.019,32.019s14.364,32.019,32.019,32.019s32.019-14.364,32.019-32.019
		S273.634,372.067,255.979,372.067z M255.979,420.105c-8.833,0-16.019-7.186-16.019-16.019s7.186-16.019,16.019-16.019
		c8.833,0,16.019,7.186,16.019,16.019S264.812,420.105,255.979,420.105z"/>
	<path d="M175.915,372.067c-17.655,0-32.019,14.364-32.019,32.019s14.364,32.019,32.019,32.019s32.019-14.364,32.019-32.019
		S193.571,372.067,175.915,372.067z M175.915,420.105c-8.833,0-16.019-7.186-16.019-16.019s7.186-16.019,16.019-16.019
		s16.019,7.186,16.019,16.019S184.748,420.105,175.915,420.105z"/>
	<path d="M336.042,372.067c-17.655,0-32.019,14.364-32.019,32.019s14.364,32.019,32.019,32.019s32.019-14.364,32.019-32.019
		S353.698,372.067,336.042,372.067z M352.061,404.086c0,1.435-0.207,2.819-0.563,4.143L331.9,388.63
		c1.324-0.355,2.708-0.563,4.143-0.563C344.875,388.067,352.061,395.253,352.061,404.086z M320.023,404.086
		c0-1.435,0.207-2.819,0.563-4.143l19.599,19.599c-1.324,0.355-2.708,0.563-4.142,0.563
		C327.209,420.105,320.023,412.919,320.023,404.086z"/>
	<path d="M223.96,275.985c0,17.655,14.364,32.019,32.019,32.019s32.019-14.364,32.019-32.019s-14.364-32.019-32.019-32.019
		S223.96,258.33,223.96,275.985z M271.998,275.985c0,8.833-7.186,16.019-16.019,16.019c-8.833,0-16.019-7.186-16.019-16.019
		s7.186-16.019,16.019-16.019C264.812,259.966,271.998,267.152,271.998,275.985z"/>
	<path d="M255.979,179.903c17.655,0,32.019-14.364,32.019-32.019s-14.364-32.019-32.019-32.019s-32.019,14.364-32.019,32.019
		S238.324,179.903,255.979,179.903z M255.979,131.865c8.833,0,16.019,7.186,16.019,16.019s-7.186,16.019-16.019,16.019
		c-8.833,0-16.019-7.186-16.019-16.019S247.146,131.865,255.979,131.865z"/>
	<path d="M175.915,308.004c17.655,0,32.019-14.364,32.019-32.019s-14.364-32.019-32.019-32.019s-32.019,14.364-32.019,32.019
		S158.26,308.004,175.915,308.004z M175.915,259.966c8.833,0,16.019,7.186,16.019,16.019s-7.186,16.019-16.019,16.019
		s-16.019-7.186-16.019-16.019S167.082,259.966,175.915,259.966z"/>
	<path d="M304.023,275.985c0,17.655,14.364,32.019,32.019,32.019s32.019-14.364,32.019-32.019s-14.363-32.019-32.019-32.019
		S304.023,258.33,304.023,275.985z M336.042,292.004c-5.918,0-11.084-3.234-13.857-8.019h27.714
		C347.126,288.77,341.96,292.004,336.042,292.004z M336.042,259.966c5.917,0,11.083,3.234,13.857,8.019h-27.714
		C324.959,263.2,330.125,259.966,336.042,259.966z"/>
	<path d="M416.105,372.067c-17.655,0-32.019,14.364-32.019,32.019s14.364,32.019,32.019,32.019s32.019-14.364,32.019-32.019
		S433.761,372.067,416.105,372.067z M416.105,420.105c-8.833,0-16.019-7.186-16.019-16.019s7.186-16.019,16.019-16.019
		s16.019,7.186,16.019,16.019S424.938,420.105,416.105,420.105z"/>
	<path d="M95.852,372.067c-17.655,0-32.019,14.364-32.019,32.019s14.363,32.019,32.019,32.019s32.019-14.364,32.019-32.019
		S113.507,372.067,95.852,372.067z M95.852,388.067c5.918,0,11.084,3.234,13.857,8.019H81.995
		C84.769,391.301,89.934,388.067,95.852,388.067z M95.852,420.105c-5.917,0-11.083-3.234-13.857-8.019h27.714
		C106.936,416.872,101.77,420.105,95.852,420.105z"/>
	<path d="M328.03,340.036c0-17.655-14.364-32.019-32.019-32.019s-32.019,14.364-32.019,32.019s14.364,32.019,32.019,32.019
		S328.03,357.691,328.03,340.036z M296.011,356.055c-8.833,0-16.019-7.186-16.019-16.019s7.186-16.019,16.019-16.019
		s16.019,7.186,16.019,16.019S304.844,356.055,296.011,356.055z"/>
	<path d="M247.966,340.036c0-17.655-14.364-32.019-32.019-32.019s-32.019,14.364-32.019,32.019s14.364,32.019,32.019,32.019
		S247.966,357.691,247.966,340.036z M215.947,324.017c1.435,0,2.819,0.207,4.143,0.563l-19.599,19.599
		c-0.355-1.324-0.563-2.708-0.563-4.143C199.928,331.203,207.114,324.017,215.947,324.017z M215.947,356.055
		c-1.435,0-2.819-0.207-4.143-0.563l19.599-19.599c0.355,1.324,0.563,2.708,0.563,4.143
		C231.966,348.869,224.78,356.055,215.947,356.055z"/>
	<path d="M263.992,211.935c0,17.655,14.364,32.019,32.019,32.019s32.019-14.364,32.019-32.019s-14.364-32.019-32.019-32.019
		S263.992,194.279,263.992,211.935z M296.011,195.915c8.833,0,16.019,7.186,16.019,16.019s-7.186,16.019-16.019,16.019
		s-16.019-7.186-16.019-16.019S287.178,195.915,296.011,195.915z"/>
	<path d="M215.947,243.954c17.655,0,32.019-14.364,32.019-32.019s-14.364-32.019-32.019-32.019s-32.019,14.364-32.019,32.019
		S198.292,243.954,215.947,243.954z M231.966,211.935c0,5.918-3.234,11.084-8.019,13.857v-27.715
		C228.732,200.851,231.966,206.017,231.966,211.935z M207.947,198.077v27.715c-4.785-2.774-8.019-7.94-8.019-13.857
		S203.162,200.851,207.947,198.077z"/>
	<path d="M408.093,340.036c0-17.655-14.364-32.019-32.019-32.019s-32.019,14.364-32.019,32.019s14.364,32.019,32.019,32.019
		S408.093,357.691,408.093,340.036z M376.074,356.055c-8.833,0-16.019-7.186-16.019-16.019s7.186-16.019,16.019-16.019
		s16.019,7.186,16.019,16.019S384.907,356.055,376.074,356.055z"/>
	<path d="M167.903,340.036c0-17.655-14.364-32.019-32.019-32.019s-32.019,14.364-32.019,32.019s14.364,32.019,32.019,32.019
		S167.903,357.691,167.903,340.036z M135.884,356.055c-8.833,0-16.019-7.186-16.019-16.019s7.186-16.019,16.019-16.019
		s16.019,7.186,16.019,16.019S144.717,356.055,135.884,356.055z"/>
</g>
<g>
</g>
<g>
</g>
<g>
</g>
<g>
</g>
<g>
</g>
<g>
</g>
<g>
</g>
<g>
</g>
<g>
</g>
<g>
</g>
<g>
</g>
<g>
</g>
<g>
</g>
<g>
</g>
<g>
</g>
</svg>
