<?xml version="1.0" encoding="iso-8859-1"?>
<!-- Generator: Adobe Illustrator 17.1.0, SVG Export Plug-In . SVG Version: 6.00 Build 0)  -->
<!DOCTYPE svg PUBLIC "-//W3C//DTD SVG 1.1//EN" "http://www.w3.org/Graphics/SVG/1.1/DTD/svg11.dtd">
<svg version="1.1" id="Capa_1" xmlns="http://www.w3.org/2000/svg" xmlns:xlink="http://www.w3.org/1999/xlink" x="0px" y="0px"
	 viewBox="0 0 512 512" style="enable-background:new 0 0 512 512;" xml:space="preserve">
<path d="M437.02,74.98C388.667,26.628,324.38,0,256,0C187.62,0,123.333,26.628,74.981,74.98S0,187.62,0,256
	s26.629,132.667,74.981,181.02S187.62,512,256,512c68.38,0,132.667-26.628,181.02-74.98S512,324.38,512,256
	S485.372,123.333,437.02,74.98z M467.829,369.062l-13.874-8.01c15.793-29.669,24.69-62.686,25.889-97.052h16.01
	C494.643,301.221,485.007,336.979,467.829,369.062z M154.567,447.73c0.138-0.196,0.28-0.387,0.402-0.598
	c0.144-0.25,0.272-0.504,0.387-0.762l75.585-130.346c0.332-0.572,0.575-1.169,0.752-1.776L248,297.941v165.897
	c-22.424-0.844-44.332-5.231-65.231-13.094c-4.136-1.556-8.749,0.536-10.305,4.671s0.536,8.749,4.671,10.305
	c22.705,8.542,46.508,13.274,70.865,14.126v16.007c-37.229-1.211-72.994-10.852-105.082-28.035L154.567,447.73z M71.978,353.007
	C57.516,325.6,49.364,295.128,48.169,264h165.89l-16.838,16.838c-0.414,0.154-0.823,0.336-1.219,0.564L71.978,353.007z M16.146,264
	h16.001c1.21,33.937,10.103,67.175,25.956,97.018l-13.932,8.044C26.994,336.979,17.357,301.221,16.146,264z M44.171,142.938
	l13.874,8.01C42.252,180.618,33.354,213.634,32.156,248h-16.01C17.357,210.779,26.993,175.021,44.171,142.938z M325.282,120H312
	c-4.418,0-8,3.582-8,8v24.002c0,1.215,0.285,2.397,0.802,3.47l-23.73,41.101c-0.155,0.269-0.289,0.544-0.41,0.822L264,214.059
	V48.164c23.81,0.895,46.997,5.774,69.034,14.565c4.103,1.636,8.757-0.363,10.395-4.466c1.637-4.104-0.363-8.758-4.466-10.395
	c-23.93-9.546-49.112-14.811-74.963-15.713V16.146c37.221,1.211,72.979,10.847,105.062,28.025L325.282,120z M248,32.156
	c-34.366,1.198-67.383,10.096-97.052,25.889l-8.01-13.874C175.021,26.994,210.779,17.357,248,16.146V32.156z M248,48.169v177.974
	L159.027,72.037C185.781,57.877,215.973,49.386,248,48.169z M234.144,234.144L80.058,145.182
	c16.589-26.244,38.88-48.536,65.125-65.125L234.144,234.144z M226.143,248H48.169c1.218-32.027,9.708-62.219,23.868-88.973
	L226.143,248z M142.627,335.431l5.657,5.657c1.5,1.5,3.535,2.343,5.657,2.343s4.157-0.843,5.657-2.343l183.431-183.431
	c2.288-2.288,2.973-5.729,1.734-8.718c-1.239-2.99-4.156-4.938-7.392-4.938L320,144.001V136h56v56h-8l0-17.372
	c0-3.236-1.949-6.153-4.938-7.391c-2.99-1.239-6.431-0.553-8.718,1.734L170.912,352.402c-3.125,3.124-3.125,8.189,0,11.313
	l5.657,5.657l-11.314,11.314l-33.941-33.941L142.627,335.431z M384,208c4.418,0,8-3.582,8-8v-13.282l48.015-27.721
	c14.449,27.372,22.615,57.912,23.813,89.003H297.941l16.509-16.509l42.077-24.293c1.052,0.509,2.227,0.802,3.473,0.802H384z
	 M187.882,358.059l0.447-0.447l-0.328,0.566L187.882,358.059z M264,479.844c34.366-1.198,67.383-10.096,97.052-25.889l8.01,13.874
	C336.98,485.006,301.221,494.643,264,495.854V479.844z M264,463.831V285.856l88.974,154.106
	C326.219,454.123,296.027,462.614,264,463.831z M277.856,277.856l154.086,88.961c-16.589,26.244-38.88,48.535-65.124,65.124
	L277.856,277.856z M285.856,264h177.975c-1.218,32.027-9.708,62.219-23.868,88.973L285.856,264z M479.844,248
	c-1.213-33.894-10.128-67.204-25.965-97.008l13.95-8.054c17.177,32.083,26.813,67.841,28.024,105.062H479.844z M459.796,129.101
	L392,168.243V128c0-4.418-3.582-8-8-8h-40.243l23.103-40.016c20.751,13.091,38.883,29.579,53.921,49.069
	c1.576,2.042,3.945,3.113,6.34,3.113c1.706,0,3.426-0.544,4.881-1.667c3.498-2.699,4.146-7.723,1.447-11.221
	c-16.317-21.147-36.021-39.011-58.585-53.158l8.035-13.917c15.337,9.591,29.699,20.983,42.806,34.09
	C438.813,99.401,450.205,113.764,459.796,129.101z M86.294,86.294c13.107-13.107,27.47-24.5,42.806-34.09l8.006,13.866
	c-14.144,8.892-27.394,19.433-39.499,31.537c-12.104,12.104-22.645,25.354-31.537,39.499l-13.867-8.006
	C61.795,113.764,73.187,99.402,86.294,86.294z M52.204,382.899l20.693-11.947c0.006-0.003,0.011-0.005,0.017-0.009
	c0.007-0.004,0.013-0.009,0.021-0.013l39.215-22.641c0.295,1.507,1.025,2.945,2.193,4.113l45.255,45.255
	c1.197,1.197,2.679,1.931,4.228,2.211l-18.654,32.168c-19.264-12.142-36.313-27.259-50.746-45.038
	c-2.785-3.431-7.823-3.955-11.253-1.169c-3.43,2.785-3.954,7.823-1.169,11.253c15.663,19.294,34.19,35.675,55.138,48.802
	l-8.06,13.899c-15.33-9.588-29.686-20.977-42.788-34.078C73.187,412.598,61.795,398.236,52.204,382.899z M425.706,425.706
	c-13.107,13.107-27.469,24.5-42.806,34.09l-8.006-13.866c14.144-8.892,27.394-19.433,39.499-31.537
	c12.104-12.104,22.645-25.354,31.537-39.499l13.866,8.006C450.205,398.236,438.813,412.599,425.706,425.706z"/>
<g>
</g>
<g>
</g>
<g>
</g>
<g>
</g>
<g>
</g>
<g>
</g>
<g>
</g>
<g>
</g>
<g>
</g>
<g>
</g>
<g>
</g>
<g>
</g>
<g>
</g>
<g>
</g>
<g>
</g>
</svg>
