<?xml version="1.0" encoding="iso-8859-1"?>
<!-- Generator: Adobe Illustrator 17.1.0, SVG Export Plug-In . SVG Version: 6.00 Build 0)  -->
<!DOCTYPE svg PUBLIC "-//W3C//DTD SVG 1.1//EN" "http://www.w3.org/Graphics/SVG/1.1/DTD/svg11.dtd">
<svg version="1.1" id="Capa_1" xmlns="http://www.w3.org/2000/svg" xmlns:xlink="http://www.w3.org/1999/xlink" x="0px" y="0px"
	 viewBox="0 0 512 512" style="enable-background:new 0 0 512 512;" xml:space="preserve">
<g>
	<path d="M472,76H40C17.944,76,0,93.944,0,116v96c0,22.056,17.944,40,40,40h24.179C68.389,354.172,152.812,436,256,436
		s187.611-81.828,191.821-184H472c22.056,0,40-17.944,40-40v-96C512,93.944,494.056,76,472,76z M77.979,172H64c-4.411,0-8-3.589-8-8
		s3.589-8,8-8h21.32C82.624,161.225,80.176,166.565,77.979,172z M256,420c-97.047,0-176-78.953-176-176
		c0-31.016,8.148-61.337,23.568-88h91.51C182.969,168.112,176,183.653,176,200c0,37.495,35.888,68,80,68c15.105,0,32,8.553,32,20
		s-16.895,20-32,20s-32-8.553-32-20c0-13.233-10.767-24-24-24s-24,10.767-24,24c0,15.745,6.484,31.089,18.257,43.207
		c9.971,10.262,23.388,17.86,38.259,21.755C234.809,363.823,244.467,372,256,372s21.191-8.177,23.484-19.038
		c14.871-3.895,28.288-11.494,38.259-21.755C329.516,319.089,336,303.745,336,288c0-37.495-35.888-68-80-68
		c-15.105,0-32-8.553-32-20s16.895-20,32-20c14.537,0,27.995,6.931,31.309,16.132C287.768,197.399,288,198.7,288,200
		c0,13.233,10.767,24,24,24s24-10.767,24-24c0-6.854-1.189-13.633-3.536-20.149c-3.203-8.889-8.443-16.959-15.323-23.851h91.291
		C423.852,182.663,432,212.984,432,244C432,341.047,353.047,420,256,420z M289.99,156c13.29,6.674,23.003,17.011,27.421,29.273
		C319.129,190.044,320,194.999,320,200c0,4.411-3.589,8-8,8s-8-3.589-8-8c0-3.162-0.554-6.294-1.642-9.301
		C296.696,174.979,277.633,164,256,164c-26.467,0-48,16.149-48,36s21.533,36,48,36c35.29,0,64,23.327,64,52
		c0,23.865-20.815,45.144-49.494,50.596c-3.774,0.718-6.506,4.017-6.506,7.859V348c0,4.411-3.589,8-8,8s-8-3.589-8-8v-1.545
		c0-3.842-2.731-7.142-6.506-7.859C212.815,333.144,192,311.865,192,288c0-4.411,3.589-8,8-8s8,3.589,8,8c0,19.851,21.533,36,48,36
		s48-16.149,48-36s-21.533-36-48-36c-35.29,0-64-23.327-64-52c0-17.771,11.485-34.491,30.092-44H289.99z M426.68,156H448
		c4.411,0,8,3.589,8,8s-3.589,8-8,8h-13.979C431.824,166.565,429.376,161.225,426.68,156z M496,212c0,13.234-10.766,24-24,24
		h-24.172c-0.678-16.36-3.428-32.483-8.149-48H448c13.234,0,24-10.766,24-24s-10.766-24-24-24H64c-13.234,0-24,10.766-24,24
		s10.766,24,24,24h8.321c-4.721,15.517-7.471,31.64-8.149,48H40c-13.234,0-24-10.766-24-24v-96c0-13.234,10.766-24,24-24h432
		c13.234,0,24,10.766,24,24V212z"/>
	<path d="M309.055,377.914C292.177,384.606,274.327,388,256,388c-79.402,0-144-64.598-144-144c0-21.182,4.49-41.581,13.346-60.63
		c1.863-4.006,0.125-8.764-3.882-10.627c-4.008-1.864-8.764-0.125-10.627,3.882C100.992,197.802,96,220.471,96,244
		c0,88.224,71.776,160,160,160c20.355,0,40.189-3.772,58.953-11.213c4.107-1.628,6.117-6.278,4.488-10.385
		C317.812,378.293,313.161,376.282,309.055,377.914z"/>
	<path d="M390.526,172.724c-4.006,1.863-5.744,6.621-3.88,10.627C395.507,202.406,400,222.811,400,244
		c0,46.526-22.667,90.425-60.636,117.431c-3.601,2.561-4.443,7.556-1.882,11.156c1.561,2.194,4.024,3.364,6.526,3.364
		c1.604,0,3.224-0.481,4.63-1.481C390.818,344.468,416,295.694,416,244c0-23.537-4.995-46.212-14.847-67.396
		C399.291,172.598,394.533,170.861,390.526,172.724z"/>
</g>
<g>
</g>
<g>
</g>
<g>
</g>
<g>
</g>
<g>
</g>
<g>
</g>
<g>
</g>
<g>
</g>
<g>
</g>
<g>
</g>
<g>
</g>
<g>
</g>
<g>
</g>
<g>
</g>
<g>
</g>
</svg>
