<?xml version="1.0" encoding="iso-8859-1"?>
<!-- Generator: Adobe Illustrator 17.1.0, SVG Export Plug-In . SVG Version: 6.00 Build 0)  -->
<!DOCTYPE svg PUBLIC "-//W3C//DTD SVG 1.1//EN" "http://www.w3.org/Graphics/SVG/1.1/DTD/svg11.dtd">
<svg version="1.1" id="Capa_1" xmlns="http://www.w3.org/2000/svg" xmlns:xlink="http://www.w3.org/1999/xlink" x="0px" y="0px"
	 viewBox="0 0 512 512" style="enable-background:new 0 0 512 512;" xml:space="preserve">
<g>
	<path d="M256,292c-4.418,0-8,3.582-8,8s3.582,8,8,8c8.822,0,16,7.178,16,16s-7.178,16-16,16s-16-7.178-16-16c0-4.418-3.582-8-8-8
		s-8,3.582-8,8c0,17.645,14.355,32,32,32s32-14.355,32-32S273.645,292,256,292z"/>
	<path d="M224,244c22.056,0,40-21.533,40-48c0-17.645,10.766-32,24-32s24,14.355,24,32s-10.766,32-24,32c-4.418,0-8,3.582-8,8
		s3.582,8,8,8c19.784,0,36.25-17.329,39.434-40H336c4.418,0,8-3.582,8-8s-3.582-8-8-8h-8.566c-3.184-22.671-19.65-40-39.434-40
		c-22.056,0-40,21.533-40,48c0,17.645-10.766,32-24,32s-24-14.355-24-32s10.766-32,24-32c4.418,0,8-3.582,8-8s-3.582-8-8-8
		c-19.784,0-36.25,17.329-39.434,40H176c-4.418,0-8,3.582-8,8s3.582,8,8,8h8.566C187.75,226.671,204.216,244,224,244z"/>
	<path d="M472,60H40C17.944,60,0,77.944,0,100v48c0,22.056,17.944,40,40,40h48c4.418,0,8-3.582,8-8s-3.582-8-8-8H40
		c-13.234,0-24-10.766-24-24v-48c0-13.234,10.766-24,24-24h432c13.234,0,24,10.766,24,24v48c0,13.234-10.766,24-24,24h-48
		c-4.418,0-8,3.582-8,8s3.582,8,8,8h48c22.056,0,40-17.944,40-40v-48C512,77.944,494.056,60,472,60z"/>
	<path d="M440,132c4.418,0,8-3.582,8-8s-3.582-8-8-8H72c-4.418,0-8,3.582-8,8s3.582,8,8,8h40v304c0,8.822,7.178,16,16,16h256
		c8.822,0,16-7.178,16-16V132H440z M160,132h192v224.57c-24.489,3.518-43.912,22.941-47.43,47.43h-97.14
		c-3.518-24.489-22.941-43.912-47.43-47.43V132z M384,436H128V132h16v232c0,4.418,3.582,8,8,8c22.056,0,40,17.944,40,40
		c0,4.418,3.582,8,8,8h112c4.418,0,8-3.582,8-8c0-22.056,17.944-40,40-40c4.418,0,8-3.582,8-8V132h16V436z"/>
</g>
<g>
</g>
<g>
</g>
<g>
</g>
<g>
</g>
<g>
</g>
<g>
</g>
<g>
</g>
<g>
</g>
<g>
</g>
<g>
</g>
<g>
</g>
<g>
</g>
<g>
</g>
<g>
</g>
<g>
</g>
</svg>
