<?xml version="1.0" encoding="iso-8859-1"?>
<!-- Generator: Adobe Illustrator 17.1.0, SVG Export Plug-In . SVG Version: 6.00 Build 0)  -->
<!DOCTYPE svg PUBLIC "-//W3C//DTD SVG 1.1//EN" "http://www.w3.org/Graphics/SVG/1.1/DTD/svg11.dtd">
<svg version="1.1" id="Capa_1" xmlns="http://www.w3.org/2000/svg" xmlns:xlink="http://www.w3.org/1999/xlink" x="0px" y="0px"
	 viewBox="0 0 511.997 511.997" style="enable-background:new 0 0 511.997 511.997;" xml:space="preserve">
<g>
	<path d="M390.735,166.593c-12.678-9.355-27.109-17.063-43.026-23.054c4.438-3.641,8.725-7.516,12.811-11.602
		c17.415-17.415,30.849-38.205,38.848-60.123c7.831-21.455,10.335-43.524,7.242-63.823c-0.527-3.46-3.243-6.176-6.704-6.704
		c-20.299-3.093-42.369-0.589-63.823,7.241c-21.917,8-42.708,21.433-60.123,38.848c-7.429,7.429-14.1,15.441-19.96,23.904
		c-5.836-8.43-12.514-16.451-19.967-23.904c-17.415-17.415-38.205-30.849-60.123-38.848c-21.455-7.83-43.525-10.333-63.823-7.241
		c-3.46,0.527-6.176,3.243-6.704,6.704c-3.093,20.298-0.589,42.368,7.241,63.823c8,21.917,21.433,42.708,38.848,60.123
		c4.086,4.086,8.374,7.961,12.813,11.603c-15.917,5.992-30.347,13.699-43.025,23.053c-37.351,27.559-57.093,68.033-57.093,117.047
		c0,48.573,22.895,105.458,61.244,152.166c18.469,22.496,39.616,41.319,61.152,54.435c23.706,14.437,47.066,21.756,69.434,21.756
		s45.728-7.32,69.434-21.756c21.537-13.116,42.683-31.939,61.152-54.435c38.349-46.708,61.244-103.593,61.244-152.166
		C447.828,234.626,428.086,194.151,390.735,166.593z M287.274,58.69c29.565-29.565,68.965-45.426,104.236-42.304
		c3.118,35.273-12.739,74.671-42.304,104.236c-6.22,6.22-12.939,11.911-19.97,16.926c-12.524-3.461-25.801-5.976-39.733-7.51
		l28.112-28.112c3.125-3.124,3.125-8.189,0-11.313c-3.124-3.124-8.189-3.124-11.313,0l-27.89,27.89
		c-3.068-11.017-7.493-21.841-13.154-32.223C271.429,76.415,278.817,67.148,287.274,58.69z M162.787,120.623
		c-29.565-29.565-45.421-68.963-42.304-104.237c35.276-3.113,74.671,12.739,104.236,42.304
		c20.043,20.043,33.913,44.489,39.695,69.67c-2.786-0.072-5.588-0.117-8.416-0.117c-6.805,0-13.489,0.21-20.045,0.626
		l-38.256-38.256c-3.124-3.124-8.189-3.124-11.313,0c-3.125,3.124-3.125,8.189,0,11.313l28.991,28.991
		c-11.351,1.548-22.242,3.765-32.616,6.631C175.725,132.534,169.006,126.842,162.787,120.623z M375.496,424.066
		c-4.222,0.22-7.58,3.702-7.58,7.979v1.003c-17.543,19.886-36.701,35.686-55.952,46.479v-7.508c0-4.418-3.582-8-8-8s-8,3.582-8,8
		v7.995c0,2.443,1.098,4.627,2.824,6.094c-14.638,6.448-29.127,9.889-42.791,9.889c-13.664,0-28.154-3.442-42.793-9.89
		c1.726-1.467,2.823-3.651,2.823-6.094v-7.995c0-4.418-3.582-8-8-8s-8,3.582-8,8v7.506c-19.251-10.793-38.408-26.594-55.952-46.48
		v-0.999c0-4.276-3.356-7.757-7.577-7.979c-5.924-7.321-11.446-14.887-16.534-22.622c0.078-0.449,0.127-0.907,0.127-1.378v-7.995
		c0-4.418-3.582-8-8-8c-0.857,0-1.681,0.138-2.455,0.387c-5.319-9.497-9.99-19.149-13.945-28.827
		c0.266-0.797,0.417-1.648,0.417-2.534v-1.999c0-3.325-2.029-6.175-4.916-7.382c-7.165-20.604-11.025-41.065-11.025-60.077
		c0-0.792,0.018-1.577,0.03-2.364c0.55,3.882,3.877,6.871,7.911,6.871c4.418,0,8-3.582,8-8v-7.995c0-4.418-3.582-8-8-8
		c-3.195,0-5.945,1.878-7.227,4.586c3.567-37.027,20.621-67.684,49.878-89.271c7.127-5.258,14.889-9.944,23.218-14.056
		c0.138,0.162,0.278,0.323,0.429,0.474c1.49,1.49,3.55,2.34,5.65,2.34c2.11,0,4.17-0.85,5.66-2.34c1.49-1.49,2.34-3.55,2.34-5.66
		c0-0.327-0.028-0.652-0.068-0.976c10.144-3.949,20.989-7.136,32.451-9.541c-0.264,0.794-0.412,1.64-0.412,2.523v7.995
		c0,4.418,3.582,8,8,8s8-3.582,8-8v-7.995c0-1.894-0.662-3.632-1.762-5.002c13.152-1.966,27.013-2.974,41.48-2.985
		c-4.302,0.133-7.75,3.653-7.75,7.987v7.995c0,4.418,3.582,8,8,8s8-3.582,8-8v-7.995c0-4.334-3.448-7.854-7.75-7.987
		c14.467,0.011,28.328,1.019,41.48,2.985c-1.1,1.37-1.762,3.108-1.762,5.003v7.995c0,4.418,3.582,8,8,8s8-3.582,8-8v-7.995
		c0-0.883-0.148-1.729-0.412-2.523c11.46,2.405,22.303,5.59,32.445,9.538c-0.041,0.325-0.069,0.651-0.069,0.979
		c0,2.11,0.86,4.17,2.35,5.66c1.49,1.49,3.55,2.34,5.65,2.34c2.11,0,4.17-0.85,5.66-2.34c0.151-0.151,0.291-0.312,0.429-0.475
		c8.329,4.112,16.092,8.798,23.219,14.056c29.259,21.588,46.314,52.248,49.879,89.278c-1.28-2.712-4.032-4.593-7.23-4.593
		c-4.418,0-8,3.582-8,8v7.995c0,4.418,3.582,8,8,8c4.04,0,7.372-2.998,7.914-6.889c0.012,0.793,0.03,1.583,0.03,2.381
		c0,19.012-3.86,39.472-11.025,60.076c-2.889,1.207-4.919,4.057-4.919,7.383v1.999c0,0.888,0.151,1.74,0.418,2.538
		c-3.955,9.677-8.626,19.329-13.944,28.824c-0.775-0.25-1.599-0.388-2.457-0.388c-4.418,0-8,3.582-8,8v7.995
		c0,0.472,0.049,0.932,0.127,1.382C386.94,409.182,381.419,416.746,375.496,424.066z"/>
	<path d="M279.981,184.206c-4.418,0-8,3.582-8,8v7.995c0,4.418,3.582,8,8,8s8-3.582,8-8v-7.995
		C287.981,187.787,284.399,184.206,279.981,184.206z"/>
	<path d="M232.013,184.206c-4.418,0-8,3.582-8,8v7.995c0,4.418,3.582,8,8,8s8-3.582,8-8v-7.995
		C240.013,187.787,236.431,184.206,232.013,184.206z"/>
	<path d="M184.045,184.206c-4.418,0-8,3.582-8,8v7.995c0,4.418,3.582,8,8,8s8-3.582,8-8v-7.995
		C192.045,187.787,188.464,184.206,184.045,184.206z"/>
	<path d="M327.949,184.206c-4.418,0-8,3.582-8,8v7.995c0,4.418,3.582,8,8,8s8-3.582,8-8v-7.995
		C335.949,187.787,332.367,184.206,327.949,184.206z"/>
	<path d="M375.916,184.206c-4.418,0-8,3.582-8,8v7.995c0,4.418,3.582,8,8,8s8-3.582,8-8v-7.995
		C383.916,187.787,380.335,184.206,375.916,184.206z"/>
	<path d="M136.077,184.206c-4.418,0-8,3.582-8,8v7.995c0,4.418,3.582,8,8,8s8-3.582,8-8v-7.995
		C144.077,187.787,140.496,184.206,136.077,184.206z"/>
	<path d="M279.981,264.152c-4.418,0-8,3.582-8,8v7.995c0,4.418,3.582,8,8,8s8-3.582,8-8v-7.995
		C287.981,267.734,284.399,264.152,279.981,264.152z"/>
	<path d="M232.013,264.152c-4.418,0-8,3.582-8,8v7.995c0,4.418,3.582,8,8,8s8-3.582,8-8v-7.995
		C240.013,267.734,236.431,264.152,232.013,264.152z"/>
	<path d="M184.045,264.152c-4.418,0-8,3.582-8,8v7.995c0,4.418,3.582,8,8,8s8-3.582,8-8v-7.995
		C192.045,267.734,188.464,264.152,184.045,264.152z"/>
	<path d="M327.949,264.152c-4.418,0-8,3.582-8,8v7.995c0,4.418,3.582,8,8,8s8-3.582,8-8v-7.995
		C335.949,267.734,332.367,264.152,327.949,264.152z"/>
	<path d="M375.916,264.152c-4.418,0-8,3.582-8,8v7.995c0,4.418,3.582,8,8,8s8-3.582,8-8v-7.995
		C383.916,267.734,380.335,264.152,375.916,264.152z"/>
	<path d="M136.077,264.152c-4.418,0-8,3.582-8,8v7.995c0,4.418,3.582,8,8,8s8-3.582,8-8v-7.995
		C144.077,267.734,140.496,264.152,136.077,264.152z"/>
	<path d="M279.981,344.099c-4.418,0-8,3.582-8,8v7.995c0,4.418,3.582,8,8,8s8-3.582,8-8v-7.995
		C287.981,347.68,284.399,344.099,279.981,344.099z"/>
	<path d="M232.013,344.099c-4.418,0-8,3.582-8,8v7.995c0,4.418,3.582,8,8,8s8-3.582,8-8v-7.995
		C240.013,347.68,236.431,344.099,232.013,344.099z"/>
	<path d="M184.045,344.099c-4.418,0-8,3.582-8,8v7.995c0,4.418,3.582,8,8,8s8-3.582,8-8v-7.995
		C192.045,347.68,188.464,344.099,184.045,344.099z"/>
	<path d="M327.949,344.099c-4.418,0-8,3.582-8,8v7.995c0,4.418,3.582,8,8,8s8-3.582,8-8v-7.995
		C335.949,347.68,332.367,344.099,327.949,344.099z"/>
	<path d="M375.916,344.099c-4.418,0-8,3.582-8,8v7.995c0,4.418,3.582,8,8,8s8-3.582,8-8v-7.995
		C383.916,347.68,380.335,344.099,375.916,344.099z"/>
	<path d="M136.077,344.099c-4.418,0-8,3.582-8,8v7.995c0,4.418,3.582,8,8,8s8-3.582,8-8v-7.995
		C144.077,347.68,140.496,344.099,136.077,344.099z"/>
	<path d="M279.981,424.045c-4.418,0-8,3.582-8,8v7.995c0,4.418,3.582,8,8,8s8-3.582,8-8v-7.995
		C287.981,427.627,284.399,424.045,279.981,424.045z"/>
	<path d="M232.013,424.045c-4.418,0-8,3.582-8,8v7.995c0,4.418,3.582,8,8,8s8-3.582,8-8v-7.995
		C240.013,427.627,236.431,424.045,232.013,424.045z"/>
	<path d="M184.045,424.045c-4.418,0-8,3.582-8,8v7.995c0,4.418,3.582,8,8,8s8-3.582,8-8v-7.995
		C192.045,427.627,188.464,424.045,184.045,424.045z"/>
	<path d="M327.949,424.045c-4.418,0-8,3.582-8,8v7.995c0,4.418,3.582,8,8,8s8-3.582,8-8v-7.995
		C335.949,427.627,332.367,424.045,327.949,424.045z"/>
	<path d="M303.965,224.179c-4.418,0-8,3.582-8,8v7.995c0,4.418,3.582,8,8,8s8-3.582,8-8v-7.995
		C311.965,227.761,308.383,224.179,303.965,224.179z"/>
	<path d="M255.997,224.179c-4.418,0-8,3.582-8,8v7.995c0,4.418,3.582,8,8,8s8-3.582,8-8v-7.995
		C263.997,227.761,260.415,224.179,255.997,224.179z"/>
	<path d="M208.029,224.179c-4.418,0-8,3.582-8,8v7.995c0,4.418,3.582,8,8,8s8-3.582,8-8v-7.995
		C216.029,227.761,212.448,224.179,208.029,224.179z"/>
	<path d="M351.932,224.179c-4.418,0-8,3.582-8,8v7.995c0,4.418,3.582,8,8,8s8-3.582,8-8v-7.995
		C359.932,227.761,356.351,224.179,351.932,224.179z"/>
	<path d="M399.9,248.174c4.418,0,8-3.582,8-8v-7.995c0-4.418-3.582-8-8-8s-8,3.582-8,8v7.995
		C391.9,244.592,395.482,248.174,399.9,248.174z"/>
	<path d="M160.061,224.179c-4.418,0-8,3.582-8,8v7.995c0,4.418,3.582,8,8,8s8-3.582,8-8v-7.995
		C168.061,227.761,164.48,224.179,160.061,224.179z"/>
	<path d="M112.094,224.179c-4.418,0-8,3.582-8,8v7.995c0,4.418,3.582,8,8,8s8-3.582,8-8v-7.995
		C120.094,227.761,116.512,224.179,112.094,224.179z"/>
	<path d="M303.965,304.126c-4.418,0-8,3.582-8,8v7.995c0,4.418,3.582,8,8,8s8-3.582,8-8v-7.995
		C311.965,307.707,308.383,304.126,303.965,304.126z"/>
	<path d="M255.997,304.126c-4.418,0-8,3.582-8,8v7.995c0,4.418,3.582,8,8,8s8-3.582,8-8v-7.995
		C263.997,307.707,260.415,304.126,255.997,304.126z"/>
	<path d="M208.029,304.126c-4.418,0-8,3.582-8,8v7.995c0,4.418,3.582,8,8,8s8-3.582,8-8v-7.995
		C216.029,307.707,212.448,304.126,208.029,304.126z"/>
	<path d="M351.932,304.126c-4.418,0-8,3.582-8,8v7.995c0,4.418,3.582,8,8,8s8-3.582,8-8v-7.995
		C359.932,307.707,356.351,304.126,351.932,304.126z"/>
	<path d="M399.9,328.12c4.418,0,8-3.582,8-8v-7.995c0-4.418-3.582-8-8-8s-8,3.582-8,8v7.995
		C391.9,324.539,395.482,328.12,399.9,328.12z"/>
	<path d="M160.061,304.126c-4.418,0-8,3.582-8,8v7.995c0,4.418,3.582,8,8,8s8-3.582,8-8v-7.995
		C168.061,307.707,164.48,304.126,160.061,304.126z"/>
	<path d="M112.094,304.126c-4.418,0-8,3.582-8,8v7.995c0,4.418,3.582,8,8,8s8-3.582,8-8v-7.995
		C120.094,307.707,116.512,304.126,112.094,304.126z"/>
	<path d="M303.965,384.072c-4.418,0-8,3.582-8,8v7.995c0,4.418,3.582,8,8,8s8-3.582,8-8v-7.995
		C311.965,387.653,308.383,384.072,303.965,384.072z"/>
	<path d="M255.997,384.072c-4.418,0-8,3.582-8,8v7.995c0,4.418,3.582,8,8,8s8-3.582,8-8v-7.995
		C263.997,387.653,260.415,384.072,255.997,384.072z"/>
	<path d="M208.029,384.072c-4.418,0-8,3.582-8,8v7.995c0,4.418,3.582,8,8,8s8-3.582,8-8v-7.995
		C216.029,387.653,212.448,384.072,208.029,384.072z"/>
	<path d="M351.932,384.072c-4.418,0-8,3.582-8,8v7.995c0,4.418,3.582,8,8,8s8-3.582,8-8v-7.995
		C359.932,387.653,356.351,384.072,351.932,384.072z"/>
	<path d="M160.061,384.072c-4.418,0-8,3.582-8,8v7.995c0,4.418,3.582,8,8,8s8-3.582,8-8v-7.995
		C168.061,387.653,164.48,384.072,160.061,384.072z"/>
	<path d="M255.997,464.018c-4.418,0-8,3.582-8,8v7.995c0,4.418,3.582,8,8,8s8-3.582,8-8v-7.995
		C263.997,467.6,260.415,464.018,255.997,464.018z"/>
</g>
<g>
</g>
<g>
</g>
<g>
</g>
<g>
</g>
<g>
</g>
<g>
</g>
<g>
</g>
<g>
</g>
<g>
</g>
<g>
</g>
<g>
</g>
<g>
</g>
<g>
</g>
<g>
</g>
<g>
</g>
</svg>
