<?xml version="1.0" encoding="iso-8859-1"?>
<!-- Generator: Adobe Illustrator 17.1.0, SVG Export Plug-In . SVG Version: 6.00 Build 0)  -->
<!DOCTYPE svg PUBLIC "-//W3C//DTD SVG 1.1//EN" "http://www.w3.org/Graphics/SVG/1.1/DTD/svg11.dtd">
<svg version="1.1" id="Capa_1" xmlns="http://www.w3.org/2000/svg" xmlns:xlink="http://www.w3.org/1999/xlink" x="0px" y="0px"
	 viewBox="0 0 512 512" style="enable-background:new 0 0 512 512;" xml:space="preserve">
<g>
	<path d="M88,232h272c4.418,0,8-3.582,8-8v-96c0-4.418-3.582-8-8-8H88c-4.418,0-8,3.582-8,8v96C80,228.418,83.582,232,88,232z
		 M96,136h256v80H96V136z"/>
	<path d="M88,264h8c4.418,0,8-3.582,8-8s-3.582-8-8-8h-8c-4.418,0-8,3.582-8,8S83.582,264,88,264z"/>
	<path d="M136,248h-8c-4.418,0-8,3.582-8,8s3.582,8,8,8h8c4.418,0,8-3.582,8-8S140.418,248,136,248z"/>
	<path d="M176,248h-8c-4.418,0-8,3.582-8,8s3.582,8,8,8h8c4.418,0,8-3.582,8-8S180.418,248,176,248z"/>
	<path d="M360,248h-8c-4.418,0-8,3.582-8,8s3.582,8,8,8h8c4.418,0,8-3.582,8-8S364.418,248,360,248z"/>
	<path d="M272,248h-40c-4.418,0-8,3.582-8,8s3.582,8,8,8h40c4.418,0,8-3.582,8-8S276.418,248,272,248z"/>
	<path d="M360,320h-72c-4.418,0-8,3.582-8,8s3.582,8,8,8h72c4.418,0,8-3.582,8-8S364.418,320,360,320z"/>
	<path d="M184,144c-4.418,0-8,3.582-8,8v48c0,4.418,3.582,8,8,8s8-3.582,8-8v-48C192,147.582,188.418,144,184,144z"/>
	<path d="M264,144c-4.418,0-8,3.582-8,8v48c0,4.418,3.582,8,8,8s8-3.582,8-8v-48C272,147.582,268.418,144,264,144z"/>
	<path d="M167.544,162.643c0.051-0.144,0.099-0.289,0.141-0.437c0.035-0.122,0.065-0.244,0.094-0.367
		c0.029-0.125,0.058-0.25,0.081-0.377c0.028-0.149,0.049-0.298,0.068-0.447c0.013-0.106,0.027-0.212,0.036-0.319
		c0.015-0.169,0.022-0.338,0.026-0.506c0.001-0.063,0.01-0.125,0.01-0.189c0-0.035-0.005-0.069-0.005-0.104
		c-0.002-0.164-0.012-0.328-0.025-0.491c-0.008-0.109-0.014-0.217-0.027-0.324c-0.016-0.136-0.039-0.271-0.062-0.405
		c-0.022-0.131-0.042-0.263-0.071-0.392c-0.023-0.105-0.053-0.208-0.08-0.312c-0.04-0.151-0.078-0.303-0.127-0.45
		c-0.028-0.087-0.063-0.171-0.094-0.257c-0.057-0.156-0.113-0.312-0.179-0.463c-0.04-0.091-0.086-0.178-0.129-0.268
		c-0.067-0.139-0.132-0.278-0.207-0.412c-0.061-0.111-0.131-0.217-0.197-0.324c-0.066-0.106-0.129-0.215-0.2-0.318
		c-0.087-0.128-0.183-0.249-0.278-0.372c-0.06-0.078-0.117-0.157-0.18-0.233c-0.106-0.127-0.22-0.247-0.334-0.368
		c-0.063-0.066-0.123-0.135-0.188-0.2c-0.11-0.109-0.228-0.211-0.345-0.314c-0.081-0.071-0.16-0.144-0.244-0.212
		c-0.102-0.082-0.209-0.158-0.316-0.236c-0.112-0.082-0.223-0.164-0.339-0.24c-0.089-0.058-0.181-0.111-0.272-0.165
		c-0.143-0.086-0.287-0.169-0.436-0.246c-0.03-0.015-0.057-0.034-0.087-0.049c-0.055-0.028-0.112-0.047-0.168-0.074
		c-0.155-0.073-0.311-0.143-0.471-0.207c-0.099-0.039-0.198-0.074-0.297-0.109c-0.143-0.05-0.287-0.098-0.435-0.14
		c-0.123-0.036-0.247-0.066-0.371-0.095c-0.124-0.029-0.248-0.057-0.374-0.08c-0.15-0.028-0.3-0.05-0.451-0.069
		c-0.105-0.013-0.209-0.027-0.315-0.036c-0.171-0.015-0.341-0.022-0.511-0.026C160.123,152.008,160.063,152,160,152h-32
		c-4.418,0-8,3.582-8,8v8c0,4.418,3.582,8,8,8s8-3.582,8-8h11.056l-10.211,20.422c-1.976,3.952-0.375,8.757,3.578,10.733
		c1.148,0.574,2.369,0.847,3.571,0.847c2.935,0,5.76-1.621,7.162-4.424l16-32c0.028-0.055,0.047-0.112,0.074-0.168
		c0.073-0.155,0.143-0.311,0.207-0.472C167.475,162.84,167.509,162.741,167.544,162.643z"/>
	<path d="M247.544,162.643c0.051-0.144,0.099-0.289,0.141-0.437c0.035-0.122,0.065-0.244,0.094-0.367
		c0.029-0.125,0.058-0.25,0.081-0.377c0.028-0.149,0.049-0.298,0.068-0.447c0.013-0.106,0.027-0.212,0.036-0.319
		c0.015-0.169,0.022-0.338,0.026-0.506c0.001-0.063,0.01-0.125,0.01-0.189c0-0.035-0.005-0.069-0.005-0.104
		c-0.002-0.164-0.012-0.328-0.025-0.491c-0.008-0.109-0.014-0.217-0.027-0.324c-0.016-0.136-0.039-0.271-0.062-0.405
		c-0.022-0.131-0.042-0.263-0.071-0.392c-0.023-0.105-0.053-0.208-0.08-0.312c-0.04-0.151-0.078-0.303-0.127-0.45
		c-0.028-0.087-0.063-0.171-0.094-0.257c-0.057-0.156-0.113-0.312-0.179-0.463c-0.04-0.091-0.086-0.178-0.129-0.268
		c-0.067-0.139-0.132-0.278-0.207-0.412c-0.061-0.111-0.131-0.217-0.197-0.324c-0.066-0.106-0.129-0.215-0.2-0.318
		c-0.087-0.128-0.183-0.249-0.278-0.372c-0.06-0.078-0.117-0.157-0.18-0.233c-0.106-0.127-0.22-0.247-0.334-0.368
		c-0.063-0.066-0.123-0.135-0.188-0.2c-0.11-0.109-0.228-0.211-0.345-0.314c-0.081-0.071-0.16-0.144-0.244-0.212
		c-0.102-0.082-0.209-0.158-0.316-0.236c-0.112-0.082-0.223-0.164-0.339-0.24c-0.089-0.058-0.181-0.111-0.272-0.165
		c-0.143-0.086-0.287-0.169-0.436-0.246c-0.03-0.015-0.057-0.034-0.087-0.049c-0.055-0.028-0.113-0.048-0.168-0.074
		c-0.155-0.073-0.311-0.143-0.471-0.206c-0.099-0.039-0.198-0.074-0.298-0.109c-0.143-0.05-0.287-0.098-0.433-0.14
		c-0.124-0.036-0.247-0.066-0.372-0.096c-0.123-0.029-0.247-0.057-0.372-0.08c-0.151-0.028-0.301-0.05-0.452-0.069
		c-0.104-0.013-0.208-0.026-0.314-0.036c-0.171-0.015-0.341-0.022-0.512-0.026C240.123,152.008,240.063,152,240,152h-32
		c-4.418,0-8,3.582-8,8v8c0,4.418,3.582,8,8,8s8-3.582,8-8h11.056l-10.211,20.422c-1.976,3.952-0.375,8.757,3.578,10.733
		c1.148,0.574,2.369,0.847,3.571,0.847c2.935,0,5.76-1.621,7.162-4.424l16-32c0.028-0.055,0.047-0.112,0.074-0.168
		c0.073-0.155,0.143-0.311,0.207-0.472C247.475,162.84,247.509,162.741,247.544,162.643z"/>
	<path d="M327.544,162.643c0.051-0.144,0.099-0.289,0.141-0.437c0.035-0.122,0.065-0.244,0.094-0.367
		c0.029-0.125,0.058-0.25,0.081-0.377c0.028-0.149,0.049-0.298,0.068-0.447c0.013-0.106,0.027-0.212,0.036-0.319
		c0.015-0.169,0.022-0.338,0.026-0.506c0.001-0.063,0.01-0.125,0.01-0.189c0-0.035-0.005-0.069-0.005-0.104
		c-0.002-0.164-0.012-0.328-0.025-0.491c-0.008-0.109-0.014-0.217-0.027-0.324c-0.016-0.136-0.039-0.271-0.062-0.405
		c-0.022-0.131-0.042-0.263-0.071-0.392c-0.023-0.105-0.053-0.208-0.08-0.312c-0.04-0.151-0.078-0.303-0.127-0.45
		c-0.028-0.087-0.063-0.171-0.094-0.257c-0.057-0.156-0.113-0.312-0.179-0.463c-0.04-0.091-0.086-0.178-0.129-0.268
		c-0.067-0.139-0.132-0.278-0.207-0.412c-0.061-0.111-0.131-0.217-0.197-0.324c-0.066-0.106-0.129-0.215-0.2-0.318
		c-0.087-0.128-0.183-0.249-0.278-0.372c-0.06-0.078-0.117-0.157-0.18-0.233c-0.106-0.127-0.22-0.247-0.334-0.368
		c-0.063-0.066-0.123-0.135-0.188-0.2c-0.11-0.109-0.228-0.211-0.345-0.314c-0.081-0.071-0.16-0.144-0.244-0.212
		c-0.102-0.082-0.209-0.158-0.316-0.236c-0.112-0.082-0.223-0.164-0.339-0.24c-0.089-0.058-0.181-0.111-0.272-0.165
		c-0.143-0.086-0.287-0.169-0.436-0.246c-0.03-0.015-0.057-0.034-0.087-0.049c-0.055-0.028-0.112-0.047-0.168-0.074
		c-0.155-0.073-0.311-0.143-0.471-0.207c-0.098-0.039-0.197-0.074-0.296-0.108c-0.144-0.05-0.289-0.098-0.436-0.141
		c-0.123-0.035-0.245-0.066-0.369-0.095c-0.124-0.029-0.249-0.057-0.375-0.081c-0.15-0.028-0.299-0.049-0.449-0.069
		c-0.105-0.013-0.21-0.027-0.316-0.036c-0.171-0.015-0.34-0.022-0.511-0.026C320.123,152.008,320.063,152,320,152h-32
		c-4.418,0-8,3.582-8,8v8c0,4.418,3.582,8,8,8s8-3.582,8-8h11.056l-10.211,20.422c-1.976,3.952-0.375,8.757,3.578,10.733
		c1.148,0.574,2.369,0.847,3.571,0.847c2.935,0,5.76-1.621,7.162-4.424l16-32c0.028-0.055,0.047-0.112,0.074-0.168
		c0.073-0.155,0.143-0.311,0.207-0.472C327.475,162.84,327.509,162.741,327.544,162.643z"/>
	<path d="M112,32h-8c-4.418,0-8,3.582-8,8s3.582,8,8,8h8c4.418,0,8-3.582,8-8S116.418,32,112,32z"/>
	<path d="M208,32h-64c-4.418,0-8,3.582-8,8s3.582,8,8,8h64c4.418,0,8-3.582,8-8S212.418,32,208,32z"/>
	<path d="M208,56h-64c-4.418,0-8,3.582-8,8s3.582,8,8,8h64c4.418,0,8-3.582,8-8S212.418,56,208,56z"/>
	<path d="M112,56h-8c-4.418,0-8,3.582-8,8s3.582,8,8,8h8c4.418,0,8-3.582,8-8S116.418,56,112,56z"/>
	<path d="M248,32h-8c-4.418,0-8,3.582-8,8s3.582,8,8,8h8c4.418,0,8-3.582,8-8S252.418,32,248,32z"/>
	<path d="M344,32h-64c-4.418,0-8,3.582-8,8s3.582,8,8,8h64c4.418,0,8-3.582,8-8S348.418,32,344,32z"/>
	<path d="M344,56h-64c-4.418,0-8,3.582-8,8s3.582,8,8,8h64c4.418,0,8-3.582,8-8S348.418,56,344,56z"/>
	<path d="M248,56h-8c-4.418,0-8,3.582-8,8s3.582,8,8,8h8c4.418,0,8-3.582,8-8S252.418,56,248,56z"/>
	<path d="M464,144c0-13.234-10.766-24-24-24s-24,10.766-24,24c0,10.429,6.689,19.322,16,22.624v73.39
		c0,4.404-3.583,7.986-7.986,7.986H400V120c0-11.818-6.445-22.153-16-27.695V24c0-13.234-10.766-24-24-24H88
		C74.766,0,64,10.766,64,24v68.305C54.445,97.847,48,108.182,48,120v368c0,13.234,10.766,24,24,24h304c13.234,0,24-10.766,24-24V264
		h24.014C437.24,264,448,253.24,448,240.014v-73.39C457.311,163.322,464,154.429,464,144z M352,456c0,4.411-3.589,8-8,8H104
		c-4.411,0-8-3.589-8-8v-40c0-4.411,3.589-8,8-8h240c4.411,0,8,3.589,8,8V456z M344,392H104c-13.233,0-24,10.767-24,24v32H64v-72
		h320v72h-16v-32C368,402.767,357.233,392,344,392z M64,296h320v64H64V296z M80,24c0-4.411,3.589-8,8-8h272c4.411,0,8,3.589,8,8v64
		H80V24z M80,104h288c8.822,0,16,7.178,16,16v160H64V120C64,111.178,71.178,104,80,104z M376,496H72c-4.411,0-8-3.589-8-8v-24
		h17.376c3.302,9.311,12.195,16,22.624,16h240c10.429,0,19.321-6.689,22.624-16H384v24C384,492.411,380.411,496,376,496z M440,152
		c-4.411,0-8-3.589-8-8s3.589-8,8-8s8,3.589,8,8S444.411,152,440,152z"/>
	<path d="M263.786,329.805c0.079-0.344,0.144-0.691,0.178-1.042c0.001-0.007,0-0.014,0.001-0.022
		c0.031-0.339,0.034-0.678,0.022-1.018c-0.003-0.084-0.006-0.167-0.012-0.25c-0.023-0.345-0.061-0.689-0.128-1.029
		c-0.002-0.009-0.004-0.017-0.006-0.025c-0.067-0.336-0.163-0.666-0.274-0.993c-0.022-0.066-0.044-0.131-0.069-0.196
		c-0.242-0.656-0.573-1.284-0.992-1.871c-0.048-0.067-0.096-0.133-0.146-0.198c-0.216-0.283-0.445-0.559-0.704-0.818l-16-16
		c-3.124-3.124-8.189-3.124-11.313,0c-3.125,3.124-3.125,8.189,0,11.313l2.343,2.343H208c-4.418,0-8,3.582-8,8s3.582,8,8,8h28.687
		l-2.343,2.343c-3.125,3.124-3.125,8.189,0,11.313c1.562,1.562,3.609,2.343,5.657,2.343s4.095-0.781,5.657-2.343l16-16
		c0.159-0.159,0.304-0.326,0.447-0.494c0.025-0.03,0.054-0.056,0.078-0.087c0.228-0.277,0.428-0.567,0.613-0.865
		c0.038-0.061,0.074-0.124,0.11-0.187c0.18-0.309,0.344-0.624,0.479-0.949c0.002-0.005,0.005-0.009,0.007-0.014
		c0.001-0.001,0.001-0.003,0.001-0.004c0.139-0.337,0.249-0.683,0.34-1.034C263.752,329.951,263.769,329.878,263.786,329.805z"/>
</g>
<g>
</g>
<g>
</g>
<g>
</g>
<g>
</g>
<g>
</g>
<g>
</g>
<g>
</g>
<g>
</g>
<g>
</g>
<g>
</g>
<g>
</g>
<g>
</g>
<g>
</g>
<g>
</g>
<g>
</g>
</svg>
