<?xml version="1.0" encoding="iso-8859-1"?>
<!-- Generator: Adobe Illustrator 17.1.0, SVG Export Plug-In . SVG Version: 6.00 Build 0)  -->
<!DOCTYPE svg PUBLIC "-//W3C//DTD SVG 1.1//EN" "http://www.w3.org/Graphics/SVG/1.1/DTD/svg11.dtd">
<svg version="1.1" id="Capa_1" xmlns="http://www.w3.org/2000/svg" xmlns:xlink="http://www.w3.org/1999/xlink" x="0px" y="0px"
	 viewBox="0 0 511.949 511.949" style="enable-background:new 0 0 511.949 511.949;" xml:space="preserve">
<g>
	<path d="M279.038,231.575c0,0-0.001-0.002-0.002-0.002s-0.001-0.001-0.002-0.002l-62.376-62.376
		c-0.003-0.003-0.005-0.006-0.008-0.008s-0.006-0.005-0.008-0.008L95.263,47.8c-10.826-10.826-25.23-16.644-40.532-16.433
		c-15.306,0.229-29.525,6.504-40.038,17.667c-20.575,21.849-19.398,57.541,2.625,79.563l182.344,182.344
		c0.001,0.001,0.001,0.002,0.002,0.002s0.001,0.001,0.002,0.002l150.794,150.794l0,0l0,0l11.804,11.804
		c4.694,4.693,10.86,7.04,17.025,7.04c6.166,0,12.332-2.347,17.026-7.04l45.32-45.32c4.548-4.548,7.052-10.594,7.052-17.025
		s-2.504-12.478-7.052-17.026L279.038,231.575z M332.226,420.259c0.271-0.035,0.426-0.017,0.426-0.017v1.062L216.636,305.288
		l5.701-5.701l26.25,26.25c2.075,2.075,4.838,3.218,7.778,3.218c2.941,0,5.704-1.144,7.778-3.218l29.785-29.785
		c2.076-2.075,3.219-4.838,3.219-7.779c0-2.939-1.143-5.701-3.218-7.778l-26.25-26.25l5.7-5.701l117.845,117.845
		c-0.489,0.479-0.929,1.022-1.294,1.639c-0.066,0.112-6.902,11.188-17.867,12.143c-1.011,0.088-2.052,0.15-3.105,0.216
		c-9.033,0.557-25.847,1.593-28.215,22.911C339.327,416.037,334.553,419.963,332.226,420.259z M154.249,242.901l5.701-5.7
		l51.072,51.072l-5.701,5.701L154.249,242.901z M262.065,237.23l-5.7,5.701l-51.072-51.073l5.7-5.7L262.065,237.23z
		 M250.704,259.897c0.002,0.002,0.003,0.003,0.005,0.005s0.003,0.003,0.005,0.005l28.366,28.366l-22.715,22.715l-28.368-28.368
		c-0.001-0.001-0.002-0.003-0.003-0.004s-0.003-0.002-0.004-0.003l-96.426-96.426l22.715-22.715L250.704,259.897z M26.342,60.004
		c7.521-7.985,17.688-12.473,28.629-12.637c0.208-0.004,0.415-0.005,0.622-0.005c10.714,0,20.764,4.159,28.357,11.753
		l115.729,115.729l-5.7,5.7l-31.923-31.923c-4.288-4.285-11.265-4.286-15.555,0.001l-29.788,29.788
		c-4.287,4.288-4.287,11.266,0.001,15.556l31.922,31.922l-5.701,5.7L28.632,117.284C12.663,101.316,11.636,75.62,26.342,60.004z
		 M430.324,416.912l-45.32,45.32c-3.15,3.15-8.274,3.15-11.424,0l-6.147-6.147l28.372-28.372c3.125-3.125,3.125-8.19,0-11.314
		c-3.124-3.123-8.189-3.123-11.313,0l-28.372,28.373l-12.51-12.51c5.486-3.925,11.317-11.718,13.037-27.196
		c0.806-7.26,3.076-8.079,13.297-8.709c1.189-0.073,2.364-0.146,3.507-0.246c16.035-1.394,26.037-13.777,29.188-18.308
		l10.225,10.225l-5.686,5.686c-3.125,3.125-3.125,8.189,0,11.314c1.562,1.562,3.609,2.343,5.657,2.343s4.095-0.781,5.657-2.343
		l5.686-5.686l6.147,6.147c1.526,1.526,2.366,3.555,2.366,5.713C432.69,413.358,431.85,415.386,430.324,416.912z"/>
	<path d="M477.375,289.987c-50.402-41.812-50.402-41.812-68.208-85.294c-13.621-33.263-11.633-65.939,5.908-97.123
		c2.166-3.851,0.8-8.729-3.051-10.895c-3.85-2.164-8.728-0.8-10.895,3.051c-36.555,64.985-13.104,136.928,66.031,202.575
		c21.717,18.015,31.451,39.051,28.15,60.834c-3.357,22.152-19.761,40.132-33.491,45.803c-4.083,1.688-6.027,6.365-4.34,10.448
		c1.274,3.085,4.255,4.948,7.397,4.948c1.018,0,2.052-0.195,3.051-0.607c17.666-7.297,38.721-28.62,43.202-58.194
		C514.049,346.265,510.563,317.518,477.375,289.987z"/>
	<path d="M432.171,207.898c1.251,0,2.521-0.295,3.705-0.915c3.914-2.05,5.425-6.885,3.375-10.799
		c-14.028-26.78-6.018-58.955,23.808-95.63c19.326-23.766,9.199-54.346,8.759-55.636c-1.428-4.182-5.972-6.413-10.156-4.985
		c-4.182,1.428-6.414,5.975-4.986,10.155c0.079,0.232,7.766,23.405-6.03,40.37c-17.058,20.976-27.834,41.314-32.029,60.45
		c-4.139,18.883-1.965,36.613,6.46,52.699C426.507,206.338,429.29,207.898,432.171,207.898z"/>
</g>
<g>
</g>
<g>
</g>
<g>
</g>
<g>
</g>
<g>
</g>
<g>
</g>
<g>
</g>
<g>
</g>
<g>
</g>
<g>
</g>
<g>
</g>
<g>
</g>
<g>
</g>
<g>
</g>
<g>
</g>
</svg>
