<?xml version="1.0" encoding="iso-8859-1"?>
<!-- Generator: Adobe Illustrator 17.1.0, SVG Export Plug-In . SVG Version: 6.00 Build 0)  -->
<!DOCTYPE svg PUBLIC "-//W3C//DTD SVG 1.1//EN" "http://www.w3.org/Graphics/SVG/1.1/DTD/svg11.dtd">
<svg version="1.1" id="Capa_1" xmlns="http://www.w3.org/2000/svg" xmlns:xlink="http://www.w3.org/1999/xlink" x="0px" y="0px"
	 viewBox="0 0 512 512" style="enable-background:new 0 0 512 512;" xml:space="preserve">
<g>
	<path d="M458.433,177.339c-19.632-30.293-46.932-61.046-81.141-91.404C319.324,34.491,260.495,1.348,259.907,1.019
		c-2.427-1.358-5.387-1.358-7.813,0c-0.588,0.329-59.417,33.473-117.385,84.916c-34.209,30.358-61.509,61.111-81.141,91.404
		c-24.903,38.427-37.531,76.295-37.531,112.552C16.036,363.839,76.69,424,151.242,424c22.642,0,44.335-5.431,63.821-15.859
		c-12.658,33.402-31.943,64.313-56.514,90.371c-2.19,2.323-2.79,5.727-1.524,8.658s4.152,4.83,7.345,4.83h184.599
		c3.193,0,6.08-1.898,7.345-4.83s0.666-6.335-1.524-8.658c-24.354-25.829-43.533-56.458-56.196-89.544
		C317.685,418.852,338.816,424,360.758,424c74.553,0,135.206-60.161,135.206-134.109
		C495.964,253.634,483.337,215.766,458.433,177.339z M360.758,408c-26.242,0-51.164-8.345-72.07-24.133
		c-2.751-2.077-6.523-2.158-9.362-0.202c-2.838,1.956-4.104,5.511-3.141,8.821c10.982,37.751,29.87,73.208,55.028,103.514H182.127
		c25.457-30.661,44.477-66.569,55.407-104.818c0.952-3.331-0.349-6.896-3.222-8.833c-2.872-1.936-6.666-1.802-9.396,0.332
		C203.725,399.245,178.249,408,151.242,408c-65.73,0-119.206-52.983-119.206-118.109c0-33.079,11.734-67.978,34.878-103.727
		c18.812-29.059,45.122-58.689,78.198-88.07c48.186-42.802,96.984-72.659,110.889-80.849c13.877,8.17,62.501,37.91,110.671,80.657
		c33.131,29.402,59.486,59.056,78.334,88.139c23.196,35.793,34.958,70.733,34.958,103.851C479.964,355.017,426.488,408,360.758,408z
		"/>
	<path d="M261.509,424.255c-4.079,1.699-6.008,6.382-4.31,10.461c5.919,14.211,12.938,28.136,20.861,41.39
		c1.498,2.506,4.152,3.896,6.874,3.896c1.396,0,2.812-0.366,4.098-1.135c3.792-2.267,5.028-7.179,2.761-10.972
		c-7.53-12.595-14.2-25.827-19.823-39.33C270.272,424.486,265.586,422.557,261.509,424.255z"/>
	<path d="M288.581,56.903c-3.633-2.513-8.617-1.604-11.13,2.03c-2.513,3.634-1.604,8.617,2.03,11.13
		c21.435,14.823,53.411,38.759,84.021,68.61c1.556,1.517,3.571,2.272,5.585,2.272c2.081,0,4.16-0.807,5.728-2.415
		c3.084-3.163,3.021-8.228-0.142-11.313C343.266,96.591,310.52,72.075,288.581,56.903z"/>
</g>
<g>
</g>
<g>
</g>
<g>
</g>
<g>
</g>
<g>
</g>
<g>
</g>
<g>
</g>
<g>
</g>
<g>
</g>
<g>
</g>
<g>
</g>
<g>
</g>
<g>
</g>
<g>
</g>
<g>
</g>
</svg>
