<?xml version="1.0" encoding="iso-8859-1"?>
<!-- Generator: Adobe Illustrator 17.1.0, SVG Export Plug-In . SVG Version: 6.00 Build 0)  -->
<!DOCTYPE svg PUBLIC "-//W3C//DTD SVG 1.1//EN" "http://www.w3.org/Graphics/SVG/1.1/DTD/svg11.dtd">
<svg version="1.1" id="Capa_1" xmlns="http://www.w3.org/2000/svg" xmlns:xlink="http://www.w3.org/1999/xlink" x="0px" y="0px"
	 viewBox="0 0 512 512" style="enable-background:new 0 0 512 512;" xml:space="preserve">
<g>
	<path d="M360,40H152c-4.418,0-8,3.582-8,8v416c0,4.418,3.582,8,8,8h208c4.418,0,8-3.582,8-8V48C368,43.582,364.418,40,360,40z
		 M248,248h-88v-88h88V248z M264,160h88v88h-88V160z M160,264h88v88h-88V264z M264,264h60h28v28v60h-88V264z M352,144h-88V56h88V144
		z M248,56v88h-88V56H248z M160,368h88v88h-88V368z M264,456v-88h88v88H264z"/>
	<path d="M196,224c15.439,0,28-12.561,28-28s-12.561-28-28-28s-28,12.561-28,28S180.561,224,196,224z M196,184
		c6.617,0,12,5.383,12,12s-5.383,12-12,12s-12-5.383-12-12S189.383,184,196,184z"/>
	<path d="M212,392c-15.439,0-28,12.561-28,28s12.561,28,28,28s28-12.561,28-28S227.439,392,212,392z M212,432
		c-6.617,0-12-5.383-12-12s5.383-12,12-12s12,5.383,12,12S218.617,432,212,432z"/>
	<path d="M296,292c-15.439,0-28,12.561-28,28s12.561,28,28,28s28-12.561,28-28c15.439,0,28-12.561,28-28s-12.561-28-28-28
		S296,276.561,296,292z M308,320c0,6.617-5.383,12-12,12s-12-5.383-12-12s5.383-12,12-12c2.406,0,4.645,0.719,6.526,1.943
		c1.07,1.279,2.252,2.461,3.531,3.531C307.281,315.355,308,317.594,308,320z M324,280c6.617,0,12,5.383,12,12s-5.383,12-12,12
		c-2.406,0-4.645-0.719-6.526-1.943c-1.07-1.279-2.252-2.461-3.531-3.531C312.719,296.645,312,294.406,312,292
		C312,285.383,317.383,280,324,280z"/>
	<path d="M375.997,0H136.003C118.356,0,104,14.356,104,32.003v447.994C104,497.644,118.356,512,136.003,512h239.994
		C393.644,512,408,497.644,408,479.997V32.003C408,14.356,393.644,0,375.997,0z M392,479.997c0,8.824-7.179,16.003-16.003,16.003
		H136.003c-8.824,0-16.003-7.179-16.003-16.003V32.003C120,23.179,127.179,16,136.003,16h239.994C384.821,16,392,23.179,392,32.003
		V479.997z"/>
</g>
<g>
</g>
<g>
</g>
<g>
</g>
<g>
</g>
<g>
</g>
<g>
</g>
<g>
</g>
<g>
</g>
<g>
</g>
<g>
</g>
<g>
</g>
<g>
</g>
<g>
</g>
<g>
</g>
<g>
</g>
</svg>
