<?xml version="1.0" encoding="iso-8859-1"?>
<!-- Generator: Adobe Illustrator 17.1.0, SVG Export Plug-In . SVG Version: 6.00 Build 0)  -->
<!DOCTYPE svg PUBLIC "-//W3C//DTD SVG 1.1//EN" "http://www.w3.org/Graphics/SVG/1.1/DTD/svg11.dtd">
<svg version="1.1" id="Capa_1" xmlns="http://www.w3.org/2000/svg" xmlns:xlink="http://www.w3.org/1999/xlink" x="0px" y="0px"
	 viewBox="0 0 512 512" style="enable-background:new 0 0 512 512;" xml:space="preserve">
<g>
	<path d="M408,200c0-51.51-12.465-111.513-40.418-194.553C366.486,2.192,363.435,0,360,0H152c-3.435,0-6.486,2.192-7.582,5.447
		C116.465,88.487,104,148.49,104,200c0,81.13,63.891,147.615,144,151.79V456c0,22.056-17.944,40-40,40h-24c-4.418,0-8,3.582-8,8
		s3.582,8,8,8h144c4.418,0,8-3.582,8-8s-3.582-8-8-8h-24c-22.056,0-40-17.944-40-40V351.79C344.109,347.615,408,281.13,408,200z
		 M123.813,232H328c4.418,0,8-3.582,8-8s-3.582-8-8-8H120.946c-0.618-5.25-0.946-10.587-0.946-16
		c0-48.581,11.665-105.503,37.759-184h196.481C380.335,94.497,392,151.419,392,200c0,5.413-0.328,10.75-0.946,16H360
		c-4.418,0-8,3.582-8,8s3.582,8,8,8h28.188C373.758,291.599,319.971,336,256,336S138.242,291.599,123.813,232z M264.862,496h-17.723
		c3.404-3.332,6.39-7.088,8.862-11.19C258.471,488.912,261.457,492.668,264.862,496z"/>
	<path d="M248,280c-4.418,0-8,3.582-8,8c0,4.411-3.589,8-8,8s-8-3.589-8-8s3.589-8,8-8c4.418,0,8-3.582,8-8s-3.582-8-8-8
		c-13.234,0-24,10.767-24,24s10.766,24,24,24s24-10.767,24-24C256,283.582,252.418,280,248,280z"/>
	<path d="M320,296c13.234,0,24-10.767,24-24c0-4.418-3.582-8-8-8s-8,3.582-8,8c0,4.411-3.589,8-8,8s-8-3.589-8-8s3.589-8,8-8
		c4.418,0,8-3.582,8-8s-3.582-8-8-8c-13.234,0-24,10.767-24,24S306.766,296,320,296z"/>
	<path d="M184,256c-2.1,0-4.17,0.85-5.66,2.34c-1.49,1.49-2.34,3.56-2.34,5.66c0,2.1,0.85,4.17,2.34,5.66
		c1.49,1.489,3.56,2.34,5.66,2.34s4.17-0.851,5.66-2.34c1.49-1.49,2.34-3.561,2.34-5.66c0-2.101-0.85-4.17-2.34-5.66
		C188.17,256.85,186.1,256,184,256z"/>
	<path d="M288,312c2.1,0,4.16-0.851,5.66-2.34c1.49-1.49,2.34-3.551,2.34-5.66c0-2.11-0.85-4.17-2.34-5.66
		c-1.5-1.49-3.56-2.34-5.66-2.34s-4.17,0.85-5.66,2.34c-1.49,1.49-2.34,3.55-2.34,5.66c0,2.109,0.85,4.17,2.34,5.66
		C283.83,311.149,285.9,312,288,312z"/>
	<path d="M264,256c2.11,0,4.17-0.851,5.66-2.34c1.49-1.49,2.34-3.551,2.34-5.66c0-2.11-0.85-4.17-2.34-5.66
		c-1.49-1.49-3.56-2.34-5.66-2.34s-4.17,0.85-5.66,2.34c-1.49,1.49-2.34,3.55-2.34,5.66c0,2.109,0.85,4.17,2.34,5.66
		C259.83,255.149,261.89,256,264,256z"/>
	<path d="M312,128c-2.11,0-4.17,0.85-5.66,2.34c-1.49,1.49-2.34,3.55-2.34,5.66c0,2.109,0.85,4.17,2.34,5.66
		c1.49,1.489,3.55,2.34,5.66,2.34c2.11,0,4.17-0.851,5.66-2.34c1.49-1.5,2.34-3.561,2.34-5.66c0-2.101-0.85-4.17-2.34-5.66
		C316.17,128.85,314.11,128,312,128z"/>
	<path d="M256,144c-2.11,0-4.17,0.85-5.66,2.34c-1.48,1.49-2.34,3.55-2.34,5.66c0,2.109,0.86,4.17,2.34,5.66
		c1.49,1.489,3.55,2.34,5.66,2.34c2.11,0,4.17-0.851,5.66-2.34c1.49-1.5,2.34-3.561,2.34-5.66c0-2.11-0.85-4.17-2.34-5.66
		C260.17,144.85,258.11,144,256,144z"/>
	<path d="M216,72c-2.11,0-4.17,0.85-5.66,2.34c-1.49,1.49-2.34,3.56-2.34,5.66c0,2.1,0.85,4.17,2.34,5.66
		c1.49,1.489,3.55,2.34,5.66,2.34c2.11,0,4.17-0.851,5.66-2.34c1.49-1.49,2.34-3.551,2.34-5.66c0-2.11-0.85-4.17-2.34-5.66
		C220.17,72.85,218.11,72,216,72z"/>
	<path d="M192,176c-2.11,0-4.17,0.85-5.66,2.34c-1.49,1.49-2.34,3.55-2.34,5.66c0,2.109,0.85,4.17,2.34,5.66
		c1.49,1.489,3.55,2.34,5.66,2.34c2.11,0,4.17-0.851,5.66-2.34c1.49-1.49,2.34-3.551,2.34-5.66c0-2.11-0.85-4.17-2.34-5.66
		C196.17,176.85,194.11,176,192,176z"/>
</g>
<g>
</g>
<g>
</g>
<g>
</g>
<g>
</g>
<g>
</g>
<g>
</g>
<g>
</g>
<g>
</g>
<g>
</g>
<g>
</g>
<g>
</g>
<g>
</g>
<g>
</g>
<g>
</g>
<g>
</g>
</svg>
